%
M48
M72
T01C0.0120
T02C0.0276
T03C0.0320
T04C0.0354
T05C0.0787
%
T01
X14775Y10400
T02
X28650Y11650
T03
X7650Y3950
X8650Y3950
X22075Y3550
X23075Y3550
X8150Y15150
X7150Y15150
X6150Y15150
X5150Y15150
X5150Y18150
X6150Y18150
X7150Y18150
X8150Y18150
T04
X13400Y14650
X13400Y11650
X13711Y8711
X11589Y6589
X7100Y6850
X7100Y9850
X22050Y8300
X22050Y5300
T05
X25925Y10625
X25925Y19025
M30
