G75*
%MOIN*%
%OFA0B0*%
%FSLAX25Y25*%
%IPPOS*%
%LPD*%
%AMOC8*
5,1,8,0,0,1.08239X$1,22.5*
%
%ADD10C,0.00200*%
%ADD11C,0.00400*%
%ADD12C,0.00600*%
%ADD13C,0.00100*%
%ADD14C,0.00500*%
D10*
X0060564Y0044626D02*
X0063134Y0045461D01*
X0062138Y0045611D02*
X0061849Y0045044D01*
X0062138Y0045611D02*
X0061860Y0046468D01*
X0061293Y0046757D01*
X0060008Y0046339D01*
X0060028Y0047733D02*
X0059461Y0048022D01*
X0060028Y0047733D02*
X0061742Y0048290D01*
X0061452Y0047722D02*
X0061174Y0048579D01*
X0060902Y0049415D02*
X0060624Y0050272D01*
X0061191Y0049983D02*
X0059478Y0049426D01*
X0058911Y0049715D01*
X0058639Y0050552D02*
X0058221Y0051837D01*
X0058511Y0052404D01*
X0059367Y0052683D01*
X0059935Y0052393D01*
X0060352Y0051108D01*
X0057782Y0050273D01*
X0057814Y0053091D02*
X0057396Y0054376D01*
X0057685Y0054944D01*
X0058253Y0054655D01*
X0058531Y0053798D01*
X0059099Y0053509D01*
X0059388Y0054076D01*
X0058970Y0055361D01*
X0058702Y0056188D02*
X0058274Y0056048D01*
X0058134Y0056477D01*
X0058563Y0056616D01*
X0058702Y0056188D01*
X0057417Y0055770D02*
X0056989Y0055631D01*
X0056849Y0056059D01*
X0057278Y0056198D01*
X0057417Y0055770D01*
X0056576Y0056901D02*
X0058589Y0059449D01*
X0059886Y0060789D02*
X0060454Y0060500D01*
X0061310Y0060779D01*
X0061600Y0061346D01*
X0061321Y0062203D01*
X0060754Y0062492D01*
X0060325Y0062353D01*
X0060882Y0060640D01*
X0060722Y0059674D02*
X0061290Y0059385D01*
X0061568Y0058528D01*
X0062136Y0058239D01*
X0062425Y0058807D01*
X0062007Y0060092D01*
X0060722Y0059674D02*
X0060433Y0059107D01*
X0060851Y0057822D01*
X0061119Y0056995D02*
X0062404Y0057413D01*
X0062972Y0057124D01*
X0063389Y0055839D01*
X0061676Y0055282D01*
X0062801Y0054734D02*
X0063358Y0053021D01*
X0063786Y0053160D02*
X0064075Y0053727D01*
X0063797Y0054584D01*
X0063229Y0054873D01*
X0062801Y0054734D01*
X0062083Y0054027D02*
X0062362Y0053171D01*
X0062929Y0052882D01*
X0063786Y0053160D01*
X0064483Y0052473D02*
X0064900Y0051188D01*
X0064611Y0050620D01*
X0063754Y0050342D01*
X0063187Y0050631D01*
X0062769Y0051916D01*
X0063598Y0049366D02*
X0063876Y0048510D01*
X0063737Y0048938D02*
X0065450Y0049495D01*
X0065590Y0049066D01*
X0066307Y0049773D02*
X0066735Y0049912D01*
X0067874Y0050282D02*
X0067596Y0051139D01*
X0067874Y0050282D02*
X0068442Y0049993D01*
X0069298Y0050272D01*
X0069587Y0050839D01*
X0069309Y0051696D01*
X0068742Y0051985D01*
X0068313Y0051846D01*
X0068870Y0050132D01*
X0068710Y0049167D02*
X0070423Y0049724D01*
X0070991Y0049435D01*
X0071408Y0048149D01*
X0068838Y0047314D01*
X0068421Y0048599D01*
X0068710Y0049167D01*
X0067271Y0046805D02*
X0064701Y0045970D01*
X0064145Y0047684D01*
X0067188Y0052394D02*
X0066771Y0053679D01*
X0067060Y0054246D01*
X0067627Y0053957D01*
X0067906Y0053100D01*
X0068473Y0052811D01*
X0068762Y0053379D01*
X0068345Y0054664D01*
X0068076Y0055490D02*
X0067937Y0055918D01*
X0066224Y0055362D01*
X0066363Y0054933D02*
X0066085Y0055790D01*
X0066241Y0056765D02*
X0065674Y0057055D01*
X0065256Y0058340D01*
X0064828Y0058200D02*
X0066970Y0058896D01*
X0067387Y0057611D01*
X0067098Y0057044D01*
X0066241Y0056765D01*
X0064678Y0057205D02*
X0064539Y0057633D01*
X0064828Y0058200D01*
X0064988Y0059166D02*
X0066701Y0059723D01*
X0066284Y0061008D01*
X0065716Y0061297D01*
X0064431Y0060879D01*
X0064591Y0061845D02*
X0065448Y0062123D01*
X0065737Y0062690D01*
X0065458Y0063547D01*
X0064891Y0063836D01*
X0064462Y0063697D01*
X0065019Y0061984D01*
X0064591Y0061845D02*
X0064023Y0062134D01*
X0063745Y0062990D01*
X0063766Y0064384D02*
X0064622Y0064662D01*
X0064912Y0065230D01*
X0064494Y0066515D01*
X0065351Y0066793D02*
X0062781Y0065958D01*
X0063198Y0064673D01*
X0063766Y0064384D01*
X0061214Y0065449D02*
X0058644Y0064614D01*
X0059061Y0063329D01*
X0059629Y0063040D01*
X0060485Y0063318D01*
X0060774Y0063886D01*
X0060357Y0065171D01*
X0056960Y0065922D02*
X0056531Y0065783D01*
X0055675Y0065504D02*
X0053961Y0064948D01*
X0054100Y0064519D02*
X0053822Y0065376D01*
X0053840Y0066780D02*
X0053272Y0067069D01*
X0053840Y0066780D02*
X0055553Y0067337D01*
X0055264Y0066769D02*
X0054985Y0067626D01*
X0054285Y0068323D02*
X0054574Y0068890D01*
X0054296Y0069747D01*
X0053729Y0070036D01*
X0052444Y0069619D01*
X0052603Y0070584D02*
X0052036Y0070873D01*
X0051618Y0072158D01*
X0053332Y0072715D01*
X0053063Y0073541D02*
X0052646Y0074826D01*
X0052078Y0075115D01*
X0051222Y0074837D01*
X0050932Y0074270D01*
X0051350Y0072985D01*
X0053920Y0073820D01*
X0055074Y0075599D02*
X0054657Y0076884D01*
X0054946Y0077451D01*
X0055374Y0077590D01*
X0055942Y0077301D01*
X0056359Y0076016D01*
X0056628Y0075190D02*
X0057185Y0073477D01*
X0058310Y0072929D02*
X0058877Y0072640D01*
X0059156Y0071783D01*
X0058866Y0071215D01*
X0057153Y0070659D01*
X0056586Y0070948D01*
X0056307Y0071804D01*
X0056596Y0072372D01*
X0057422Y0069832D02*
X0057132Y0069265D01*
X0057411Y0068408D01*
X0057978Y0068119D01*
X0059692Y0068676D01*
X0059981Y0069243D01*
X0059702Y0070100D01*
X0059135Y0070389D01*
X0059727Y0072442D02*
X0059588Y0072870D01*
X0059877Y0073438D01*
X0062019Y0074134D01*
X0062575Y0072420D02*
X0061290Y0072003D01*
X0060723Y0072292D01*
X0060305Y0073577D01*
X0061559Y0071177D02*
X0062415Y0071455D01*
X0062983Y0071166D01*
X0063400Y0069881D01*
X0064257Y0070159D02*
X0061687Y0069324D01*
X0061270Y0070609D01*
X0061559Y0071177D01*
X0059640Y0077082D02*
X0059072Y0077371D01*
X0058933Y0077800D01*
X0059222Y0078367D01*
X0061364Y0079063D01*
X0061503Y0078635D02*
X0061225Y0079491D01*
X0059961Y0080467D02*
X0059671Y0079900D01*
X0058815Y0079622D01*
X0058247Y0079911D01*
X0057969Y0080767D01*
X0058258Y0081335D01*
X0059115Y0081613D01*
X0059682Y0081324D01*
X0059961Y0080467D01*
X0058846Y0082440D02*
X0059135Y0083007D01*
X0058857Y0083864D01*
X0058290Y0084153D01*
X0057005Y0083735D01*
X0056736Y0084562D02*
X0058449Y0085118D01*
X0058032Y0086403D01*
X0057464Y0086692D01*
X0056179Y0086275D01*
X0054752Y0085337D02*
X0055030Y0084481D01*
X0054741Y0083913D01*
X0054312Y0083774D01*
X0053745Y0084063D01*
X0053466Y0084920D01*
X0052899Y0085209D01*
X0052471Y0085070D01*
X0052181Y0084502D01*
X0052460Y0083646D01*
X0053027Y0083357D01*
X0054152Y0082809D02*
X0054709Y0081095D01*
X0055834Y0080547D02*
X0055256Y0079412D01*
X0053971Y0078995D01*
X0055256Y0079412D02*
X0056391Y0078834D01*
X0056819Y0078973D01*
X0056659Y0078008D02*
X0056231Y0077869D01*
X0055942Y0077301D01*
X0056659Y0078008D02*
X0057227Y0077719D01*
X0057645Y0076434D01*
X0055074Y0075599D01*
X0051397Y0077211D02*
X0051686Y0077779D01*
X0051269Y0079064D01*
X0050572Y0079751D02*
X0049715Y0079473D01*
X0049148Y0079762D01*
X0048870Y0080619D01*
X0049159Y0081186D01*
X0050015Y0081464D01*
X0050583Y0081175D01*
X0050861Y0080319D01*
X0050572Y0079751D01*
X0049556Y0078507D02*
X0049973Y0077222D01*
X0050541Y0076933D01*
X0051397Y0077211D01*
X0050814Y0076092D02*
X0050386Y0075953D01*
X0050525Y0075524D01*
X0050953Y0075663D01*
X0050814Y0076092D01*
X0052603Y0070584D02*
X0053889Y0071002D01*
X0055570Y0068740D02*
X0053000Y0067905D01*
X0055675Y0065504D02*
X0055814Y0065076D01*
X0056082Y0064250D02*
X0056500Y0062965D01*
X0056211Y0062397D01*
X0055354Y0062119D01*
X0054786Y0062408D01*
X0054369Y0063693D01*
X0053941Y0063554D02*
X0056082Y0064250D01*
X0053941Y0063554D02*
X0053651Y0062986D01*
X0053791Y0062558D01*
X0055751Y0059440D02*
X0057764Y0061989D01*
X0059608Y0061646D02*
X0059886Y0060789D01*
X0068794Y0056197D02*
X0069222Y0056336D01*
X0082526Y0048951D02*
X0082526Y0048584D01*
X0083994Y0048584D01*
X0083994Y0048951D02*
X0083627Y0049318D01*
X0082893Y0049318D01*
X0082526Y0048951D01*
X0082893Y0047850D02*
X0083627Y0047850D01*
X0083994Y0048217D01*
X0083994Y0048951D01*
X0084736Y0049318D02*
X0085837Y0049318D01*
X0086204Y0048951D01*
X0086204Y0048217D01*
X0085837Y0047850D01*
X0084736Y0047850D01*
X0084736Y0050052D01*
X0084917Y0051450D02*
X0085284Y0051817D01*
X0085284Y0053285D01*
X0085651Y0052918D02*
X0084917Y0052918D01*
X0086392Y0052918D02*
X0086759Y0052918D01*
X0087493Y0052184D01*
X0087493Y0051450D02*
X0087493Y0052918D01*
X0088235Y0052551D02*
X0088602Y0052918D01*
X0089336Y0052918D01*
X0089702Y0052551D01*
X0089702Y0051817D01*
X0089336Y0051450D01*
X0088602Y0051450D01*
X0088235Y0051817D01*
X0088235Y0052551D01*
X0090444Y0052551D02*
X0090444Y0051450D01*
X0090444Y0052551D02*
X0090811Y0052918D01*
X0091545Y0052918D01*
X0091912Y0052551D01*
X0092654Y0052184D02*
X0093021Y0052551D01*
X0093755Y0052551D01*
X0094122Y0052918D01*
X0094122Y0053285D01*
X0093755Y0053652D01*
X0093021Y0053652D01*
X0092654Y0053285D01*
X0091912Y0053652D02*
X0091912Y0051450D01*
X0092654Y0051817D02*
X0093021Y0051450D01*
X0093755Y0051450D01*
X0094122Y0051817D01*
X0092654Y0051817D02*
X0092654Y0052184D01*
X0091730Y0049685D02*
X0091730Y0048217D01*
X0091363Y0047850D01*
X0090623Y0047850D02*
X0090623Y0050052D01*
X0090256Y0049318D02*
X0090623Y0048951D01*
X0090256Y0049318D02*
X0089522Y0049318D01*
X0089155Y0048951D01*
X0089155Y0047850D01*
X0088413Y0048217D02*
X0088046Y0047850D01*
X0087312Y0047850D01*
X0086945Y0048217D01*
X0086945Y0048951D01*
X0087312Y0049318D01*
X0088046Y0049318D01*
X0088413Y0048951D01*
X0088413Y0048217D01*
X0088046Y0046452D02*
X0088413Y0046085D01*
X0088413Y0045718D01*
X0088046Y0045351D01*
X0087312Y0045351D01*
X0086945Y0044984D01*
X0086945Y0044617D01*
X0087312Y0044250D01*
X0088046Y0044250D01*
X0088413Y0044617D01*
X0088046Y0046452D02*
X0087312Y0046452D01*
X0086945Y0046085D01*
X0086204Y0045718D02*
X0085837Y0045718D01*
X0085837Y0044250D01*
X0086204Y0044250D02*
X0085470Y0044250D01*
X0084730Y0044617D02*
X0084730Y0045351D01*
X0084363Y0045718D01*
X0083262Y0045718D01*
X0083262Y0046452D02*
X0083262Y0044250D01*
X0084363Y0044250D01*
X0084730Y0044617D01*
X0085837Y0046452D02*
X0085837Y0046819D01*
X0082520Y0045351D02*
X0082153Y0045718D01*
X0081419Y0045718D01*
X0081052Y0045351D01*
X0081052Y0044984D01*
X0082520Y0044984D01*
X0082520Y0044617D02*
X0082520Y0045351D01*
X0082520Y0044617D02*
X0082153Y0044250D01*
X0081419Y0044250D01*
X0091363Y0044250D02*
X0091730Y0044617D01*
X0091730Y0046085D01*
X0092097Y0045718D02*
X0091363Y0045718D01*
X0092839Y0045351D02*
X0093205Y0045718D01*
X0093939Y0045718D01*
X0093939Y0044984D02*
X0092839Y0044984D01*
X0092839Y0045351D02*
X0092839Y0044250D01*
X0093939Y0044250D01*
X0094306Y0044617D01*
X0093939Y0044984D01*
X0095046Y0044250D02*
X0095780Y0044250D01*
X0095413Y0044250D02*
X0095413Y0046452D01*
X0095780Y0046452D01*
X0096522Y0046452D02*
X0097990Y0046452D01*
X0097990Y0044250D01*
X0097990Y0045351D02*
X0097256Y0045351D01*
X0096149Y0047850D02*
X0095415Y0047850D01*
X0095048Y0048217D01*
X0094306Y0048217D02*
X0093939Y0048584D01*
X0092839Y0048584D01*
X0092839Y0048951D02*
X0092839Y0047850D01*
X0093939Y0047850D01*
X0094306Y0048217D01*
X0093939Y0049318D02*
X0093205Y0049318D01*
X0092839Y0048951D01*
X0092097Y0049318D02*
X0091363Y0049318D01*
X0095048Y0049685D02*
X0095415Y0050052D01*
X0096149Y0050052D01*
X0096516Y0049685D01*
X0096516Y0048217D01*
X0096149Y0047850D01*
X0090255Y0056151D02*
X0088787Y0056151D01*
X0073771Y0035585D02*
X0073771Y0034117D01*
X0074505Y0034851D02*
X0073037Y0034851D01*
X0073400Y0031618D02*
X0072299Y0031618D01*
X0071932Y0031251D01*
X0071932Y0030150D01*
X0071190Y0030517D02*
X0070823Y0030150D01*
X0069722Y0030150D01*
X0069722Y0029783D02*
X0069722Y0031618D01*
X0070823Y0031618D01*
X0071190Y0031251D01*
X0071190Y0030517D01*
X0070456Y0029416D02*
X0070089Y0029416D01*
X0069722Y0029783D01*
X0070827Y0028752D02*
X0070827Y0026550D01*
X0071928Y0026550D01*
X0072295Y0026917D01*
X0072295Y0027651D01*
X0071928Y0028018D01*
X0070827Y0028018D01*
X0070085Y0027651D02*
X0069718Y0028018D01*
X0068984Y0028018D01*
X0068617Y0027651D01*
X0068617Y0027284D01*
X0070085Y0027284D01*
X0070085Y0026917D02*
X0070085Y0027651D01*
X0070085Y0026917D02*
X0069718Y0026550D01*
X0068984Y0026550D01*
X0073037Y0026917D02*
X0073037Y0027651D01*
X0073404Y0028018D01*
X0074138Y0028018D01*
X0074505Y0027651D01*
X0074505Y0026917D01*
X0074138Y0026550D01*
X0073404Y0026550D01*
X0073037Y0026917D01*
X0075247Y0026550D02*
X0075247Y0027651D01*
X0075614Y0028018D01*
X0076715Y0028018D01*
X0076715Y0026550D01*
X0077457Y0026550D02*
X0077457Y0028018D01*
X0078191Y0028752D01*
X0078925Y0028018D01*
X0078925Y0026550D01*
X0078925Y0027651D02*
X0077457Y0027651D01*
X0077820Y0030150D02*
X0076352Y0030150D01*
X0075610Y0030517D02*
X0075243Y0030150D01*
X0074509Y0030150D01*
X0074142Y0030517D01*
X0074142Y0031251D01*
X0074509Y0031618D01*
X0075243Y0031618D01*
X0075610Y0031251D01*
X0075610Y0030517D01*
X0077820Y0030150D02*
X0077820Y0032352D01*
X0073400Y0031618D02*
X0073400Y0030150D01*
X0056263Y0080687D02*
X0055834Y0080547D01*
X0057561Y0082022D02*
X0060131Y0082857D01*
X0054752Y0085337D02*
X0054184Y0085627D01*
X0053487Y0086314D02*
X0054066Y0087449D01*
X0052930Y0088027D01*
X0051217Y0087470D01*
X0052502Y0087888D02*
X0053059Y0086174D01*
X0053487Y0086314D02*
X0051774Y0085757D01*
X0049650Y0086961D02*
X0047637Y0084413D01*
X0047905Y0083586D02*
X0049190Y0084004D01*
X0049758Y0083715D01*
X0049469Y0083147D01*
X0048184Y0082730D01*
X0048462Y0081873D02*
X0050175Y0082430D01*
X0050036Y0082858D01*
X0049469Y0083147D01*
X0048525Y0087509D02*
X0047240Y0087091D01*
X0046672Y0087381D01*
X0046962Y0087948D01*
X0046394Y0088237D01*
X0046683Y0088805D01*
X0047968Y0089222D01*
X0047561Y0090477D02*
X0047282Y0091334D01*
X0046715Y0091623D01*
X0045430Y0091205D01*
X0045847Y0089920D01*
X0046415Y0089631D01*
X0046704Y0090199D01*
X0046286Y0091484D01*
X0046018Y0092310D02*
X0046596Y0093445D01*
X0046457Y0093873D01*
X0046187Y0094704D02*
X0045909Y0095561D01*
X0046476Y0095272D02*
X0044763Y0094715D01*
X0044195Y0095004D01*
X0043924Y0095841D02*
X0046494Y0096676D01*
X0045498Y0096826D02*
X0045219Y0097683D01*
X0044652Y0097972D01*
X0043367Y0097554D01*
X0043527Y0098520D02*
X0042959Y0098809D01*
X0042681Y0099665D01*
X0042970Y0100233D01*
X0043827Y0100511D01*
X0044394Y0100222D01*
X0044673Y0099365D01*
X0044383Y0098798D01*
X0043527Y0098520D01*
X0045498Y0096826D02*
X0045209Y0096258D01*
X0047235Y0099725D02*
X0046957Y0100581D01*
X0047096Y0100153D02*
X0048810Y0100710D01*
X0048949Y0100281D01*
X0049666Y0100988D02*
X0050095Y0101127D01*
X0051228Y0101512D02*
X0052513Y0101930D01*
X0053081Y0101641D01*
X0053359Y0100784D01*
X0053070Y0100217D01*
X0053770Y0099519D02*
X0054049Y0098663D01*
X0054338Y0099230D02*
X0052624Y0098674D01*
X0052057Y0098963D01*
X0051785Y0099799D02*
X0054355Y0100634D01*
X0052245Y0102756D02*
X0051388Y0102478D01*
X0050821Y0102767D01*
X0050542Y0103624D01*
X0050832Y0104191D01*
X0051688Y0104470D01*
X0052256Y0104180D01*
X0052534Y0103324D01*
X0052245Y0102756D01*
X0051420Y0105296D02*
X0050563Y0105017D01*
X0049996Y0105307D01*
X0049578Y0106592D01*
X0049150Y0106452D02*
X0051291Y0107148D01*
X0051709Y0105863D01*
X0051420Y0105296D01*
X0049000Y0105457D02*
X0048861Y0105885D01*
X0049150Y0106452D01*
X0049738Y0107557D02*
X0049170Y0107846D01*
X0048892Y0108703D01*
X0049181Y0109270D01*
X0050895Y0109827D01*
X0051462Y0109538D01*
X0051741Y0108681D01*
X0051451Y0108114D01*
X0051023Y0107975D01*
X0050455Y0108264D01*
X0050038Y0109549D01*
X0050198Y0110514D02*
X0050487Y0111082D01*
X0051344Y0111360D01*
X0049817Y0114602D02*
X0047247Y0113767D01*
X0048532Y0114184D02*
X0047975Y0115898D01*
X0046850Y0116445D02*
X0047139Y0117013D01*
X0046722Y0118298D01*
X0047150Y0118437D02*
X0045865Y0118020D01*
X0046282Y0116735D01*
X0046850Y0116445D01*
X0046690Y0115480D02*
X0049260Y0116315D01*
X0047996Y0117291D02*
X0047717Y0118148D01*
X0047150Y0118437D01*
X0047310Y0119403D02*
X0046025Y0118985D01*
X0045457Y0119274D01*
X0045746Y0119842D01*
X0045179Y0120131D01*
X0045468Y0120698D01*
X0046753Y0121116D01*
X0047341Y0122221D02*
X0047202Y0122649D01*
X0044632Y0121814D01*
X0044771Y0121385D02*
X0044493Y0122242D01*
X0044650Y0123218D02*
X0045506Y0123496D01*
X0045795Y0124064D01*
X0045517Y0124920D01*
X0044949Y0125209D01*
X0044521Y0125070D01*
X0045078Y0123357D01*
X0044650Y0123218D02*
X0044082Y0123507D01*
X0043804Y0124364D01*
X0043824Y0125757D02*
X0043257Y0126046D01*
X0042839Y0127331D01*
X0042411Y0127192D02*
X0042122Y0126625D01*
X0042261Y0126196D01*
X0042411Y0127192D02*
X0044553Y0127888D01*
X0045109Y0126175D02*
X0043824Y0125757D01*
X0037685Y0123785D02*
X0038242Y0122072D01*
X0035672Y0121237D01*
X0035940Y0120410D02*
X0038510Y0121245D01*
X0037932Y0120110D01*
X0039067Y0119532D01*
X0036497Y0118697D01*
X0036766Y0117871D02*
X0039336Y0118706D01*
X0038757Y0117571D01*
X0039892Y0116992D01*
X0037322Y0116157D01*
X0037591Y0115331D02*
X0038726Y0114753D01*
X0038019Y0115470D02*
X0037730Y0114903D01*
X0038008Y0114046D01*
X0038576Y0113757D01*
X0040289Y0114314D01*
X0040578Y0114881D01*
X0040300Y0115738D01*
X0039732Y0116027D01*
X0038019Y0115470D01*
X0038844Y0112931D02*
X0038555Y0112363D01*
X0038973Y0111078D01*
X0041543Y0111913D01*
X0041125Y0113198D01*
X0040558Y0113488D01*
X0040129Y0113348D01*
X0039840Y0112781D01*
X0040258Y0111496D01*
X0040526Y0110670D02*
X0041083Y0108956D01*
X0041511Y0109095D02*
X0042089Y0110230D01*
X0040954Y0110809D01*
X0039241Y0110252D01*
X0039798Y0108539D02*
X0041511Y0109095D01*
X0042636Y0108548D02*
X0040623Y0105999D01*
X0041320Y0105312D02*
X0043033Y0105869D01*
X0043601Y0105580D01*
X0043879Y0104723D01*
X0043590Y0104155D01*
X0043161Y0104016D01*
X0042594Y0104305D01*
X0042176Y0105590D01*
X0041320Y0105312D02*
X0041031Y0104745D01*
X0041309Y0103888D01*
X0041876Y0103599D01*
X0041717Y0102633D02*
X0042134Y0101348D01*
X0042702Y0101059D01*
X0043558Y0101337D01*
X0043847Y0101905D01*
X0043430Y0103190D01*
X0041288Y0102494D01*
X0040999Y0101927D01*
X0041138Y0101498D01*
X0046129Y0103131D02*
X0047414Y0103549D01*
X0047981Y0103259D01*
X0048399Y0101974D01*
X0046685Y0101418D01*
X0048757Y0096498D02*
X0048468Y0095930D01*
X0048747Y0095074D01*
X0049314Y0094785D01*
X0050471Y0097055D01*
X0048757Y0096498D01*
X0049314Y0094785D02*
X0051027Y0095341D01*
X0051317Y0095909D01*
X0051038Y0096766D01*
X0050471Y0097055D01*
X0053023Y0095990D02*
X0054736Y0096546D01*
X0053880Y0096268D02*
X0054458Y0097403D01*
X0054319Y0097831D01*
X0054576Y0095581D02*
X0053291Y0095163D01*
X0053709Y0093878D01*
X0054276Y0093589D01*
X0054566Y0094157D01*
X0054148Y0095442D01*
X0054576Y0095581D02*
X0055144Y0095292D01*
X0055422Y0094435D01*
X0056687Y0093459D02*
X0054116Y0092624D01*
X0055252Y0092046D01*
X0054673Y0090911D01*
X0057243Y0091746D01*
X0057088Y0090765D02*
X0056799Y0090197D01*
X0057088Y0090765D02*
X0057945Y0091043D01*
X0052276Y0092956D02*
X0051409Y0091254D01*
X0050852Y0092967D01*
X0049727Y0093515D02*
X0049298Y0093376D01*
X0049159Y0093804D01*
X0049588Y0093943D01*
X0049727Y0093515D01*
X0049706Y0092121D02*
X0052276Y0092956D01*
X0046875Y0092588D02*
X0045161Y0092031D01*
X0045035Y0106497D02*
X0046192Y0108767D01*
X0046620Y0108906D01*
X0047188Y0108617D01*
X0047466Y0107760D01*
X0047177Y0107193D01*
X0045035Y0106497D02*
X0044478Y0108210D01*
X0044638Y0109176D02*
X0045795Y0111446D01*
X0044082Y0110889D01*
X0043792Y0110321D01*
X0044071Y0109465D01*
X0044638Y0109176D01*
X0046352Y0109732D01*
X0046641Y0110300D01*
X0046362Y0111156D01*
X0045795Y0111446D01*
X0045098Y0112133D02*
X0045676Y0113268D01*
X0043106Y0112433D01*
X0042828Y0113289D02*
X0043385Y0111576D01*
X0039840Y0112781D02*
X0039273Y0113070D01*
X0038844Y0112931D01*
X0042420Y0114544D02*
X0042142Y0115401D01*
X0042431Y0115968D01*
X0042860Y0116107D01*
X0043427Y0115818D01*
X0043845Y0114533D01*
X0042988Y0114255D01*
X0042420Y0114544D01*
X0043845Y0114533D02*
X0044423Y0115668D01*
X0044573Y0116664D01*
X0036957Y0121654D02*
X0036679Y0122511D01*
X0036132Y0124194D02*
X0035575Y0125907D01*
X0035735Y0126872D02*
X0035167Y0127162D01*
X0034889Y0128018D01*
X0034322Y0128307D01*
X0033893Y0128168D01*
X0033604Y0127601D01*
X0033882Y0126744D01*
X0034450Y0126455D01*
X0035735Y0126872D02*
X0036163Y0127012D01*
X0036453Y0127579D01*
X0036174Y0128436D01*
X0035607Y0128725D01*
X0034481Y0129273D02*
X0033625Y0128995D01*
X0033057Y0129284D01*
X0032779Y0130140D01*
X0033068Y0130708D01*
X0033925Y0130986D01*
X0034492Y0130697D01*
X0034771Y0129840D01*
X0034481Y0129273D01*
X0032371Y0131395D02*
X0032093Y0132252D01*
X0032232Y0131823D02*
X0034802Y0132658D01*
X0034941Y0132230D01*
X0033106Y0133505D02*
X0032250Y0133227D01*
X0031682Y0133516D01*
X0031265Y0134801D01*
X0033835Y0135636D01*
X0032978Y0135358D02*
X0033395Y0134073D01*
X0033106Y0133505D01*
X0032281Y0136045D02*
X0032570Y0136613D01*
X0032292Y0137469D01*
X0031724Y0137758D01*
X0031296Y0137619D01*
X0031853Y0135906D01*
X0031424Y0135767D02*
X0032281Y0136045D01*
X0031424Y0135767D02*
X0030857Y0136056D01*
X0030579Y0136913D01*
X0030171Y0138167D02*
X0031884Y0138724D01*
X0031028Y0138445D02*
X0031606Y0139580D01*
X0031467Y0140009D01*
X0032053Y0141118D02*
X0029483Y0140283D01*
X0030340Y0140562D02*
X0030779Y0142125D01*
X0030509Y0142956D02*
X0030370Y0143385D01*
X0028656Y0142828D01*
X0028796Y0142400D02*
X0028517Y0143256D01*
X0028535Y0144660D02*
X0027967Y0144949D01*
X0028535Y0144660D02*
X0030248Y0145217D01*
X0029681Y0145506D02*
X0029959Y0144649D01*
X0031227Y0143663D02*
X0031655Y0143802D01*
X0029066Y0141568D02*
X0030340Y0140562D01*
X0028980Y0146203D02*
X0028424Y0147917D01*
X0029012Y0149021D02*
X0029301Y0149589D01*
X0029023Y0150445D01*
X0028455Y0150735D01*
X0028027Y0150595D01*
X0026870Y0148325D01*
X0026314Y0150039D01*
X0026473Y0151004D02*
X0027630Y0153274D01*
X0025917Y0152718D01*
X0025628Y0152150D01*
X0025906Y0151293D01*
X0026473Y0151004D01*
X0028187Y0151561D01*
X0028476Y0152128D01*
X0028198Y0152985D01*
X0027630Y0153274D01*
X0026933Y0153961D02*
X0027512Y0155096D01*
X0024942Y0154261D01*
X0025220Y0153405D02*
X0024663Y0155118D01*
X0024823Y0156083D02*
X0024256Y0156372D01*
X0023977Y0157229D01*
X0024266Y0157797D01*
X0024695Y0157936D01*
X0025262Y0157647D01*
X0025680Y0156362D01*
X0024823Y0156083D01*
X0025680Y0156362D02*
X0026258Y0157497D01*
X0026408Y0158493D01*
X0025842Y0165200D02*
X0025108Y0165200D01*
X0024741Y0165567D01*
X0024741Y0166301D01*
X0025108Y0166668D01*
X0025475Y0166668D01*
X0026209Y0166301D01*
X0026209Y0167402D01*
X0024741Y0167402D01*
X0026951Y0167035D02*
X0026951Y0166668D01*
X0027317Y0166301D01*
X0028051Y0166301D01*
X0028418Y0166668D01*
X0028418Y0167035D01*
X0028051Y0167402D01*
X0027317Y0167402D01*
X0026951Y0167035D01*
X0027317Y0166301D02*
X0026951Y0165934D01*
X0026951Y0165567D01*
X0027317Y0165200D01*
X0028051Y0165200D01*
X0028418Y0165567D01*
X0028418Y0165934D01*
X0028051Y0166301D01*
X0029160Y0166668D02*
X0029160Y0164833D01*
X0029527Y0164466D01*
X0029894Y0164466D01*
X0030261Y0165200D02*
X0029160Y0165200D01*
X0030261Y0165200D02*
X0030628Y0165567D01*
X0030628Y0166668D01*
X0031370Y0166301D02*
X0031737Y0166668D01*
X0032838Y0166668D01*
X0032838Y0165200D01*
X0033577Y0165200D02*
X0034311Y0165200D01*
X0033944Y0165200D02*
X0033944Y0166668D01*
X0034311Y0166668D01*
X0033944Y0167402D02*
X0033944Y0167769D01*
X0035053Y0167402D02*
X0036521Y0167402D01*
X0035787Y0167402D02*
X0035787Y0165200D01*
X0037997Y0165200D02*
X0037997Y0167402D01*
X0038731Y0167402D02*
X0037263Y0167402D01*
X0039473Y0166668D02*
X0039473Y0165200D01*
X0039473Y0166301D02*
X0040941Y0166301D01*
X0040941Y0166668D02*
X0040941Y0165200D01*
X0040941Y0166668D02*
X0040207Y0167402D01*
X0039473Y0166668D01*
X0043893Y0166301D02*
X0043893Y0165934D01*
X0045361Y0165934D01*
X0045361Y0166301D02*
X0044994Y0166668D01*
X0044260Y0166668D01*
X0043893Y0166301D01*
X0044260Y0165200D02*
X0044994Y0165200D01*
X0045361Y0165567D01*
X0045361Y0166301D01*
X0046103Y0166301D02*
X0046103Y0165200D01*
X0046103Y0166301D02*
X0046470Y0166668D01*
X0047204Y0166668D01*
X0047571Y0166301D01*
X0048310Y0166668D02*
X0049044Y0166668D01*
X0048677Y0167035D02*
X0048677Y0165567D01*
X0048310Y0165200D01*
X0047571Y0165200D02*
X0047571Y0167402D01*
X0050887Y0164169D02*
X0050887Y0163802D01*
X0050887Y0163068D02*
X0050887Y0161600D01*
X0051254Y0161600D02*
X0050520Y0161600D01*
X0049414Y0161967D02*
X0049047Y0161600D01*
X0049414Y0161967D02*
X0049414Y0163435D01*
X0049781Y0163068D02*
X0049047Y0163068D01*
X0050887Y0163068D02*
X0051254Y0163068D01*
X0051996Y0165200D02*
X0051996Y0166301D01*
X0052363Y0166668D01*
X0052730Y0166301D01*
X0052730Y0165200D01*
X0053464Y0165200D02*
X0053464Y0166668D01*
X0053097Y0166668D01*
X0052730Y0166301D01*
X0054206Y0166301D02*
X0054206Y0165200D01*
X0055307Y0165200D01*
X0055674Y0165567D01*
X0055307Y0165934D01*
X0054206Y0165934D01*
X0054206Y0166301D02*
X0054573Y0166668D01*
X0055307Y0166668D01*
X0056414Y0166668D02*
X0056781Y0166668D01*
X0057515Y0165934D01*
X0057515Y0165200D02*
X0057515Y0166668D01*
X0058257Y0166668D02*
X0058257Y0164833D01*
X0058624Y0164466D01*
X0058991Y0164466D01*
X0058990Y0164169D02*
X0058990Y0163802D01*
X0058990Y0163068D02*
X0058990Y0161600D01*
X0059357Y0161600D02*
X0058623Y0161600D01*
X0057883Y0161600D02*
X0057883Y0163068D01*
X0056783Y0163068D01*
X0056416Y0162701D01*
X0056416Y0161600D01*
X0055674Y0161967D02*
X0055307Y0161600D01*
X0054206Y0161600D01*
X0054206Y0161233D02*
X0054206Y0163068D01*
X0055307Y0163068D01*
X0055674Y0162701D01*
X0055674Y0161967D01*
X0054940Y0160866D02*
X0054573Y0160866D01*
X0054206Y0161233D01*
X0058990Y0163068D02*
X0059357Y0163068D01*
X0060097Y0163068D02*
X0060464Y0163068D01*
X0061198Y0162334D01*
X0061198Y0161600D02*
X0061198Y0163068D01*
X0061940Y0162701D02*
X0061940Y0162334D01*
X0063408Y0162334D01*
X0063408Y0162701D02*
X0063041Y0163068D01*
X0062307Y0163068D01*
X0061940Y0162701D01*
X0062307Y0161600D02*
X0063041Y0161600D01*
X0063408Y0161967D01*
X0063408Y0162701D01*
X0064150Y0163068D02*
X0065251Y0163068D01*
X0065618Y0162701D01*
X0065618Y0161967D01*
X0065251Y0161600D01*
X0064150Y0161600D01*
X0064150Y0163802D01*
X0063777Y0165200D02*
X0063777Y0166668D01*
X0063777Y0165934D02*
X0063043Y0166668D01*
X0062676Y0166668D01*
X0061935Y0166301D02*
X0061568Y0166668D01*
X0060834Y0166668D01*
X0060467Y0166301D01*
X0060467Y0165567D01*
X0060834Y0165200D01*
X0061568Y0165200D01*
X0061935Y0165567D01*
X0061935Y0166301D01*
X0059725Y0166301D02*
X0059358Y0166668D01*
X0058257Y0166668D01*
X0058257Y0165200D02*
X0059358Y0165200D01*
X0059725Y0165567D01*
X0059725Y0166301D01*
X0064518Y0166301D02*
X0064518Y0165567D01*
X0064885Y0165200D01*
X0065986Y0165200D01*
X0065986Y0164466D02*
X0065986Y0166668D01*
X0064885Y0166668D01*
X0064518Y0166301D01*
X0066724Y0163802D02*
X0066724Y0161600D01*
X0067091Y0161600D02*
X0066357Y0161600D01*
X0067833Y0161967D02*
X0067833Y0162701D01*
X0068200Y0163068D01*
X0068934Y0163068D01*
X0069301Y0162701D01*
X0069301Y0161967D01*
X0068934Y0161600D01*
X0068200Y0161600D01*
X0067833Y0161967D01*
X0067091Y0163802D02*
X0066724Y0163802D01*
X0068938Y0165567D02*
X0068938Y0166301D01*
X0069305Y0166668D01*
X0070039Y0166668D01*
X0070406Y0166301D01*
X0070406Y0165567D01*
X0070039Y0165200D01*
X0069305Y0165200D01*
X0068938Y0165567D01*
X0071145Y0165200D02*
X0071512Y0165567D01*
X0071512Y0167035D01*
X0071879Y0166668D02*
X0071145Y0166668D01*
X0074830Y0166668D02*
X0075197Y0166668D01*
X0075931Y0165934D01*
X0075931Y0165200D02*
X0075931Y0166668D01*
X0076673Y0166301D02*
X0077040Y0166668D01*
X0077774Y0166668D01*
X0078141Y0166301D01*
X0078141Y0165567D01*
X0077774Y0165200D01*
X0077040Y0165200D01*
X0076673Y0165934D02*
X0078141Y0165934D01*
X0078883Y0166301D02*
X0079250Y0166668D01*
X0080351Y0166668D01*
X0080351Y0167402D02*
X0080351Y0165200D01*
X0079250Y0165200D01*
X0078883Y0165567D01*
X0078883Y0166301D01*
X0081093Y0166301D02*
X0081460Y0166668D01*
X0081827Y0166301D01*
X0081827Y0165200D01*
X0082560Y0165200D02*
X0082560Y0166668D01*
X0082194Y0166668D01*
X0081827Y0166301D01*
X0081093Y0166301D02*
X0081093Y0165200D01*
X0081460Y0163802D02*
X0081093Y0163435D01*
X0081093Y0161967D01*
X0081460Y0161600D01*
X0082194Y0161600D01*
X0082560Y0161967D01*
X0082560Y0163435D01*
X0082194Y0163802D01*
X0081460Y0163802D01*
X0080351Y0163802D02*
X0080351Y0161600D01*
X0080351Y0162334D02*
X0079250Y0162334D01*
X0078883Y0162701D01*
X0078883Y0163435D01*
X0079250Y0163802D01*
X0080351Y0163802D01*
X0079617Y0162334D02*
X0078883Y0161600D01*
X0078141Y0161600D02*
X0076673Y0161600D01*
X0075931Y0161967D02*
X0074463Y0163435D01*
X0075197Y0163435D02*
X0075197Y0161967D01*
X0074463Y0161967D02*
X0075931Y0163435D01*
X0075931Y0162701D02*
X0074463Y0162701D01*
X0076673Y0163802D02*
X0078141Y0163802D01*
X0078141Y0161600D01*
X0078141Y0162701D02*
X0077407Y0162701D01*
X0076673Y0165934D02*
X0076673Y0166301D01*
X0071511Y0162701D02*
X0071144Y0163068D01*
X0070043Y0163068D01*
X0070410Y0162334D02*
X0071144Y0162334D01*
X0071511Y0162701D01*
X0071511Y0161600D02*
X0070410Y0161600D01*
X0070043Y0161967D01*
X0070410Y0162334D01*
X0083302Y0163802D02*
X0084770Y0163802D01*
X0084770Y0161600D01*
X0085512Y0161600D02*
X0086980Y0161600D01*
X0086980Y0163802D01*
X0085512Y0163802D01*
X0086246Y0162701D02*
X0086980Y0162701D01*
X0087722Y0163068D02*
X0088089Y0162701D01*
X0089190Y0162701D01*
X0089932Y0162701D02*
X0091400Y0162701D01*
X0091400Y0163435D02*
X0089932Y0161967D01*
X0090666Y0161967D02*
X0090666Y0163435D01*
X0089932Y0163435D02*
X0091400Y0161967D01*
X0089190Y0161600D02*
X0088089Y0161600D01*
X0087722Y0161967D01*
X0087722Y0162334D01*
X0088089Y0162701D01*
X0087722Y0163068D02*
X0087722Y0163435D01*
X0088089Y0163802D01*
X0089190Y0163802D01*
X0089190Y0161600D01*
X0084770Y0162701D02*
X0084036Y0162701D01*
X0083669Y0165200D02*
X0084403Y0165200D01*
X0084770Y0165567D01*
X0084770Y0166301D01*
X0084403Y0166668D01*
X0083669Y0166668D01*
X0083302Y0166301D01*
X0083302Y0165934D01*
X0084770Y0165934D01*
X0085512Y0166301D02*
X0085512Y0165200D01*
X0086246Y0165200D02*
X0086246Y0166301D01*
X0085879Y0166668D01*
X0085512Y0166301D01*
X0086246Y0166301D02*
X0086613Y0166668D01*
X0086980Y0166668D01*
X0086980Y0165200D01*
X0087722Y0165934D02*
X0089190Y0165934D01*
X0089190Y0166301D02*
X0088823Y0166668D01*
X0088089Y0166668D01*
X0087722Y0166301D01*
X0087722Y0165934D01*
X0088089Y0165200D02*
X0088823Y0165200D01*
X0089190Y0165567D01*
X0089190Y0166301D01*
X0089932Y0166301D02*
X0090299Y0165934D01*
X0091400Y0165934D01*
X0090666Y0165934D02*
X0089932Y0165200D01*
X0089932Y0166301D02*
X0089932Y0167035D01*
X0090299Y0167402D01*
X0091400Y0167402D01*
X0091400Y0165200D01*
X0102490Y0189116D02*
X0102490Y0191318D01*
X0101390Y0191318D01*
X0101023Y0190951D01*
X0101023Y0190217D01*
X0101390Y0189850D01*
X0102490Y0189850D01*
X0103232Y0190584D02*
X0104700Y0190584D01*
X0104700Y0190951D02*
X0104333Y0191318D01*
X0103599Y0191318D01*
X0103232Y0190951D01*
X0103232Y0190584D01*
X0103599Y0189850D02*
X0104333Y0189850D01*
X0104700Y0190217D01*
X0104700Y0190951D01*
X0105442Y0191318D02*
X0106543Y0191318D01*
X0106910Y0190951D01*
X0106910Y0190217D01*
X0106543Y0189850D01*
X0105442Y0189850D01*
X0107652Y0189850D02*
X0109120Y0191318D01*
X0109862Y0190951D02*
X0109862Y0190584D01*
X0111330Y0190584D01*
X0111330Y0190951D02*
X0110963Y0191318D01*
X0110229Y0191318D01*
X0109862Y0190951D01*
X0110229Y0189850D02*
X0110963Y0189850D01*
X0111330Y0190217D01*
X0111330Y0190951D01*
X0109120Y0189850D02*
X0107652Y0191318D01*
X0107650Y0193450D02*
X0108017Y0193817D01*
X0108017Y0195285D01*
X0108383Y0194918D02*
X0107650Y0194918D01*
X0106910Y0194551D02*
X0106543Y0194918D01*
X0105809Y0194918D01*
X0105442Y0194551D01*
X0105442Y0193450D01*
X0104700Y0193817D02*
X0104333Y0193450D01*
X0103599Y0193450D01*
X0103232Y0194184D02*
X0104700Y0194184D01*
X0104700Y0194551D02*
X0104333Y0194918D01*
X0103599Y0194918D01*
X0103232Y0194551D01*
X0103232Y0194184D01*
X0104700Y0193817D02*
X0104700Y0194551D01*
X0106910Y0195652D02*
X0106910Y0193450D01*
X0111333Y0193450D02*
X0111700Y0193817D01*
X0111700Y0195285D01*
X0112067Y0194918D02*
X0111333Y0194918D01*
X0112809Y0194918D02*
X0112809Y0193450D01*
X0113910Y0193450D01*
X0114277Y0193817D01*
X0114277Y0194918D01*
X0115018Y0194551D02*
X0115018Y0193817D01*
X0115385Y0193450D01*
X0116486Y0193450D01*
X0116486Y0192716D02*
X0116486Y0194918D01*
X0115385Y0194918D01*
X0115018Y0194551D01*
X0116492Y0192052D02*
X0116492Y0189850D01*
X0117593Y0189850D01*
X0117960Y0190217D01*
X0117960Y0190951D01*
X0117593Y0191318D01*
X0116492Y0191318D01*
X0115750Y0190951D02*
X0115383Y0191318D01*
X0114649Y0191318D01*
X0114282Y0190951D01*
X0114282Y0190584D01*
X0115750Y0190584D01*
X0115750Y0190217D02*
X0115750Y0190951D01*
X0115750Y0190217D02*
X0115383Y0189850D01*
X0114649Y0189850D01*
X0118699Y0189850D02*
X0119433Y0189850D01*
X0119066Y0189850D02*
X0119066Y0191318D01*
X0119433Y0191318D01*
X0120175Y0191318D02*
X0121276Y0191318D01*
X0121643Y0190951D01*
X0121276Y0190584D01*
X0120542Y0190584D01*
X0120175Y0190217D01*
X0120542Y0189850D01*
X0121643Y0189850D01*
X0124593Y0191318D02*
X0124960Y0191318D01*
X0125694Y0190584D01*
X0125694Y0189850D02*
X0125694Y0191318D01*
X0126436Y0190951D02*
X0126436Y0190584D01*
X0127904Y0190584D01*
X0127904Y0190951D02*
X0127537Y0191318D01*
X0126803Y0191318D01*
X0126436Y0190951D01*
X0126803Y0189850D02*
X0127537Y0189850D01*
X0127904Y0190217D01*
X0127904Y0190951D01*
X0128646Y0190951D02*
X0128646Y0189850D01*
X0128646Y0190951D02*
X0129013Y0191318D01*
X0129747Y0191318D01*
X0130114Y0190951D01*
X0130853Y0191318D02*
X0131587Y0191318D01*
X0131220Y0191685D02*
X0131220Y0190217D01*
X0130853Y0189850D01*
X0130114Y0189850D02*
X0130114Y0192052D01*
X0129750Y0193450D02*
X0129383Y0193817D01*
X0129383Y0194551D01*
X0129750Y0194918D01*
X0130851Y0194918D01*
X0130851Y0195652D02*
X0130851Y0193450D01*
X0129750Y0193450D01*
X0128641Y0193817D02*
X0128641Y0194551D01*
X0128274Y0194918D01*
X0127540Y0194918D01*
X0127173Y0194551D01*
X0127173Y0194184D01*
X0128641Y0194184D01*
X0128641Y0193817D02*
X0128274Y0193450D01*
X0127540Y0193450D01*
X0126431Y0193450D02*
X0126431Y0194918D01*
X0126431Y0194184D02*
X0125697Y0194918D01*
X0125330Y0194918D01*
X0122379Y0194918D02*
X0121645Y0194918D01*
X0122012Y0195285D02*
X0122012Y0193817D01*
X0121645Y0193450D01*
X0120906Y0193817D02*
X0120539Y0193450D01*
X0119805Y0193450D01*
X0119438Y0193817D01*
X0119438Y0194551D01*
X0119805Y0194918D01*
X0120539Y0194918D01*
X0120906Y0194551D01*
X0120906Y0193817D01*
X0119066Y0192419D02*
X0119066Y0192052D01*
X0131593Y0193450D02*
X0131593Y0194551D01*
X0131960Y0194918D01*
X0132327Y0194551D01*
X0132327Y0193450D01*
X0133060Y0193450D02*
X0133060Y0194918D01*
X0132694Y0194918D01*
X0132327Y0194551D01*
X0133802Y0194551D02*
X0133802Y0194184D01*
X0135270Y0194184D01*
X0135270Y0194551D02*
X0134903Y0194918D01*
X0134169Y0194918D01*
X0133802Y0194551D01*
X0134169Y0193450D02*
X0134903Y0193450D01*
X0135270Y0193817D01*
X0135270Y0194551D01*
X0136012Y0194551D02*
X0136012Y0193450D01*
X0136746Y0193450D02*
X0136746Y0194551D01*
X0136379Y0194918D01*
X0136012Y0194551D01*
X0136746Y0194551D02*
X0137113Y0194918D01*
X0137480Y0194918D01*
X0137480Y0193450D01*
X0138222Y0194184D02*
X0139690Y0194184D01*
X0139690Y0194551D02*
X0139323Y0194918D01*
X0138589Y0194918D01*
X0138222Y0194551D01*
X0138222Y0194184D01*
X0138589Y0193450D02*
X0139323Y0193450D01*
X0139690Y0193817D01*
X0139690Y0194551D01*
X0140432Y0194551D02*
X0140799Y0194184D01*
X0141900Y0194184D01*
X0141166Y0194184D02*
X0140432Y0193450D01*
X0140432Y0194551D02*
X0140432Y0195285D01*
X0140799Y0195652D01*
X0141900Y0195652D01*
X0141900Y0193450D01*
X0141533Y0191685D02*
X0141533Y0190217D01*
X0141166Y0189850D01*
X0140427Y0189850D02*
X0140427Y0192052D01*
X0140060Y0191318D02*
X0139326Y0191318D01*
X0138959Y0190951D01*
X0138959Y0189850D01*
X0138217Y0190217D02*
X0138217Y0190951D01*
X0137850Y0191318D01*
X0137116Y0191318D01*
X0136749Y0190951D01*
X0136749Y0190584D01*
X0138217Y0190584D01*
X0138217Y0190217D02*
X0137850Y0189850D01*
X0137116Y0189850D01*
X0140060Y0191318D02*
X0140427Y0190951D01*
X0141166Y0191318D02*
X0141900Y0191318D01*
X0133797Y0190951D02*
X0133797Y0190217D01*
X0133430Y0189850D01*
X0132696Y0189850D01*
X0132329Y0190217D01*
X0132329Y0190951D01*
X0132696Y0191318D01*
X0133430Y0191318D01*
X0133797Y0190951D01*
X0100281Y0191318D02*
X0099547Y0191318D01*
X0099914Y0191685D02*
X0099914Y0190217D01*
X0099547Y0189850D01*
X0096597Y0190951D02*
X0095864Y0190951D01*
X0095124Y0190951D02*
X0095124Y0190217D01*
X0094757Y0189850D01*
X0094023Y0189850D01*
X0093656Y0190217D01*
X0093656Y0190951D01*
X0094023Y0191318D01*
X0094757Y0191318D01*
X0095124Y0190951D01*
X0095864Y0192052D02*
X0096230Y0191685D01*
X0096230Y0189850D01*
X0092914Y0189850D02*
X0092914Y0191318D01*
X0092180Y0191318D02*
X0091813Y0191318D01*
X0092180Y0191318D02*
X0092914Y0190584D01*
X0093651Y0192716D02*
X0093651Y0194918D01*
X0092550Y0194918D01*
X0092183Y0194551D01*
X0092183Y0193817D01*
X0092550Y0193450D01*
X0093651Y0193450D01*
X0094393Y0193450D02*
X0094393Y0194551D01*
X0094760Y0194918D01*
X0095127Y0194551D01*
X0095127Y0193450D01*
X0095861Y0193450D02*
X0095861Y0194918D01*
X0095494Y0194918D01*
X0095127Y0194551D01*
X0096603Y0194551D02*
X0096970Y0194918D01*
X0097704Y0194918D01*
X0098071Y0194551D01*
X0098071Y0193817D01*
X0097704Y0193450D01*
X0096970Y0193450D01*
X0096603Y0193817D01*
X0096603Y0194551D01*
X0098813Y0194918D02*
X0099914Y0194918D01*
X0100281Y0194551D01*
X0100281Y0193817D01*
X0099914Y0193450D01*
X0098813Y0193450D01*
X0091441Y0193817D02*
X0091074Y0193450D01*
X0090340Y0193450D01*
X0089973Y0193817D01*
X0089973Y0194551D01*
X0090340Y0194918D01*
X0091074Y0194918D01*
X0091441Y0194551D01*
X0091441Y0193817D01*
X0089231Y0193450D02*
X0089231Y0194918D01*
X0088130Y0194918D01*
X0087763Y0194551D01*
X0087763Y0193450D01*
X0087021Y0193817D02*
X0087021Y0194551D01*
X0086654Y0194918D01*
X0085920Y0194918D01*
X0085553Y0194551D01*
X0085553Y0194184D01*
X0087021Y0194184D01*
X0087021Y0193817D02*
X0086654Y0193450D01*
X0085920Y0193450D01*
X0084811Y0193450D02*
X0084811Y0194918D01*
X0083711Y0194918D01*
X0083344Y0194551D01*
X0083344Y0193450D01*
X0082235Y0193817D02*
X0081868Y0193450D01*
X0082235Y0193817D02*
X0082235Y0195285D01*
X0082602Y0194918D02*
X0081868Y0194918D01*
X0081128Y0194551D02*
X0080761Y0194918D01*
X0079660Y0194918D01*
X0080027Y0194184D02*
X0080761Y0194184D01*
X0081128Y0194551D01*
X0081128Y0193450D02*
X0080027Y0193450D01*
X0079660Y0193817D01*
X0080027Y0194184D01*
X0080760Y0192052D02*
X0080760Y0189850D01*
X0079659Y0189850D01*
X0079292Y0190217D01*
X0079292Y0190951D01*
X0079659Y0191318D01*
X0080760Y0191318D01*
X0078550Y0190217D02*
X0078183Y0190584D01*
X0077082Y0190584D01*
X0077082Y0190951D02*
X0077082Y0189850D01*
X0078183Y0189850D01*
X0078550Y0190217D01*
X0078183Y0191318D02*
X0077449Y0191318D01*
X0077082Y0190951D01*
X0076340Y0191318D02*
X0075606Y0191318D01*
X0075973Y0191685D02*
X0075973Y0190217D01*
X0075606Y0189850D01*
X0074500Y0190217D02*
X0074133Y0189850D01*
X0074500Y0190217D02*
X0074500Y0191685D01*
X0074867Y0191318D02*
X0074133Y0191318D01*
X0073394Y0190951D02*
X0073027Y0191318D01*
X0072293Y0191318D01*
X0071926Y0190951D01*
X0071926Y0190584D01*
X0073394Y0190584D01*
X0073394Y0190217D02*
X0073394Y0190951D01*
X0073394Y0190217D02*
X0073027Y0189850D01*
X0072293Y0189850D01*
X0071184Y0189850D02*
X0071184Y0191318D01*
X0071184Y0190584D02*
X0070450Y0191318D01*
X0070083Y0191318D01*
X0069342Y0191318D02*
X0069342Y0190217D01*
X0068975Y0189850D01*
X0067874Y0189850D01*
X0067874Y0189483D02*
X0068241Y0189116D01*
X0068608Y0189116D01*
X0067874Y0189483D02*
X0067874Y0191318D01*
X0064923Y0190951D02*
X0064556Y0191318D01*
X0063822Y0191318D01*
X0063455Y0190951D01*
X0063455Y0189850D01*
X0062713Y0190217D02*
X0062346Y0189850D01*
X0061612Y0189850D01*
X0061245Y0190217D01*
X0061245Y0190951D01*
X0061612Y0191318D01*
X0062346Y0191318D01*
X0062713Y0190951D01*
X0062713Y0190217D01*
X0064923Y0189850D02*
X0064923Y0192052D01*
X0060503Y0192052D02*
X0060136Y0192052D01*
X0060136Y0189850D01*
X0060503Y0189850D02*
X0059769Y0189850D01*
X0059030Y0190217D02*
X0059030Y0190951D01*
X0058663Y0191318D01*
X0057562Y0191318D01*
X0057562Y0192052D02*
X0057562Y0189850D01*
X0058663Y0189850D01*
X0059030Y0190217D01*
X0056820Y0190217D02*
X0056820Y0190951D01*
X0056453Y0191318D01*
X0055719Y0191318D01*
X0055352Y0190951D01*
X0055352Y0190584D01*
X0056820Y0190584D01*
X0056820Y0190217D02*
X0056453Y0189850D01*
X0055719Y0189850D01*
X0054610Y0189850D02*
X0054610Y0191318D01*
X0054610Y0190584D02*
X0053876Y0191318D01*
X0053509Y0191318D01*
X0073031Y0193450D02*
X0073031Y0194551D01*
X0073398Y0194918D01*
X0074499Y0194918D01*
X0074499Y0193450D01*
X0075241Y0193817D02*
X0075608Y0193450D01*
X0076342Y0193450D01*
X0076709Y0193817D01*
X0076709Y0194551D01*
X0076342Y0194918D01*
X0075608Y0194918D01*
X0075241Y0194551D01*
X0075241Y0193817D01*
X0083712Y0190951D02*
X0083712Y0190584D01*
X0085180Y0190584D01*
X0085180Y0190951D02*
X0084813Y0191318D01*
X0084079Y0191318D01*
X0083712Y0190951D01*
X0084079Y0189850D02*
X0084813Y0189850D01*
X0085180Y0190217D01*
X0085180Y0190951D01*
X0085922Y0190951D02*
X0085922Y0189850D01*
X0085922Y0190951D02*
X0086289Y0191318D01*
X0087023Y0191318D01*
X0087390Y0190951D01*
X0088129Y0191318D02*
X0088863Y0191318D01*
X0088496Y0191685D02*
X0088496Y0190217D01*
X0088129Y0189850D01*
X0087390Y0189850D02*
X0087390Y0192052D01*
X0046097Y0162701D02*
X0046097Y0161967D01*
X0045730Y0161600D01*
X0044997Y0161600D01*
X0044630Y0161967D01*
X0044630Y0162701D01*
X0044997Y0163068D01*
X0045730Y0163068D01*
X0046097Y0162701D01*
X0043888Y0163068D02*
X0043888Y0161600D01*
X0043888Y0163068D02*
X0042787Y0163068D01*
X0042420Y0162701D01*
X0042420Y0161600D01*
X0031370Y0165200D02*
X0031370Y0166301D01*
X0026209Y0165567D02*
X0025842Y0165200D01*
X0214037Y0033601D02*
X0215505Y0033601D01*
X0214771Y0034335D02*
X0214771Y0032867D01*
X0214400Y0030368D02*
X0213299Y0030368D01*
X0212932Y0030001D01*
X0212932Y0028900D01*
X0212190Y0029267D02*
X0211823Y0028900D01*
X0210722Y0028900D01*
X0210722Y0028533D02*
X0210722Y0030368D01*
X0211823Y0030368D01*
X0212190Y0030001D01*
X0212190Y0029267D01*
X0211456Y0028166D02*
X0211089Y0028166D01*
X0210722Y0028533D01*
X0211827Y0027502D02*
X0211827Y0025300D01*
X0212928Y0025300D01*
X0213295Y0025667D01*
X0213295Y0026401D01*
X0212928Y0026768D01*
X0211827Y0026768D01*
X0211085Y0026401D02*
X0210718Y0026768D01*
X0209984Y0026768D01*
X0209617Y0026401D01*
X0209617Y0026034D01*
X0211085Y0026034D01*
X0211085Y0025667D02*
X0211085Y0026401D01*
X0211085Y0025667D02*
X0210718Y0025300D01*
X0209984Y0025300D01*
X0214037Y0025667D02*
X0214037Y0026401D01*
X0214404Y0026768D01*
X0215138Y0026768D01*
X0215505Y0026401D01*
X0215505Y0025667D01*
X0215138Y0025300D01*
X0214404Y0025300D01*
X0214037Y0025667D01*
X0216247Y0025300D02*
X0216247Y0026401D01*
X0216614Y0026768D01*
X0217715Y0026768D01*
X0217715Y0025300D01*
X0218457Y0025300D02*
X0218457Y0026768D01*
X0219191Y0027502D01*
X0219925Y0026768D01*
X0219925Y0025300D01*
X0219925Y0026401D02*
X0218457Y0026401D01*
X0218820Y0028900D02*
X0217352Y0028900D01*
X0216610Y0029267D02*
X0216243Y0028900D01*
X0215509Y0028900D01*
X0215142Y0029267D01*
X0215142Y0030001D01*
X0215509Y0030368D01*
X0216243Y0030368D01*
X0216610Y0030001D01*
X0216610Y0029267D01*
X0218820Y0028900D02*
X0218820Y0031102D01*
X0214400Y0030368D02*
X0214400Y0028900D01*
X0226919Y0040000D02*
X0227653Y0040000D01*
X0228020Y0040367D01*
X0228020Y0041101D01*
X0227653Y0041468D01*
X0226919Y0041468D01*
X0226552Y0041101D01*
X0226552Y0040734D01*
X0228020Y0040734D01*
X0228762Y0041468D02*
X0229863Y0041468D01*
X0230230Y0041101D01*
X0230230Y0040367D01*
X0229863Y0040000D01*
X0228762Y0040000D01*
X0228762Y0042202D01*
X0229127Y0043600D02*
X0229494Y0043967D01*
X0229494Y0044701D01*
X0229127Y0045068D01*
X0228393Y0045068D01*
X0228026Y0044701D01*
X0228026Y0044334D01*
X0229494Y0044334D01*
X0229127Y0043600D02*
X0228393Y0043600D01*
X0230236Y0043600D02*
X0230236Y0045802D01*
X0230236Y0045068D02*
X0231337Y0045068D01*
X0231704Y0044701D01*
X0231704Y0043967D01*
X0231337Y0043600D01*
X0230236Y0043600D01*
X0231337Y0042569D02*
X0231337Y0042202D01*
X0231337Y0041468D02*
X0231337Y0040000D01*
X0231704Y0040000D02*
X0230970Y0040000D01*
X0231337Y0041468D02*
X0231704Y0041468D01*
X0232445Y0041835D02*
X0232812Y0042202D01*
X0233546Y0042202D01*
X0233913Y0041835D01*
X0233913Y0041468D01*
X0233546Y0041101D01*
X0232812Y0041101D01*
X0232445Y0040734D01*
X0232445Y0040367D01*
X0232812Y0040000D01*
X0233546Y0040000D01*
X0233913Y0040367D01*
X0236863Y0040000D02*
X0237230Y0040367D01*
X0237230Y0041835D01*
X0237597Y0041468D02*
X0236863Y0041468D01*
X0238339Y0041101D02*
X0238339Y0040000D01*
X0239439Y0040000D01*
X0239806Y0040367D01*
X0239439Y0040734D01*
X0238339Y0040734D01*
X0238339Y0041101D02*
X0238705Y0041468D01*
X0239439Y0041468D01*
X0240913Y0042202D02*
X0240913Y0040000D01*
X0241280Y0040000D02*
X0240546Y0040000D01*
X0240913Y0042202D02*
X0241280Y0042202D01*
X0242022Y0042202D02*
X0243490Y0042202D01*
X0243490Y0040000D01*
X0243490Y0041101D02*
X0242756Y0041101D01*
X0241649Y0043600D02*
X0240915Y0043600D01*
X0240548Y0043967D01*
X0239806Y0043967D02*
X0239439Y0044334D01*
X0238339Y0044334D01*
X0238339Y0044701D02*
X0238339Y0043600D01*
X0239439Y0043600D01*
X0239806Y0043967D01*
X0239439Y0045068D02*
X0238705Y0045068D01*
X0238339Y0044701D01*
X0237597Y0045068D02*
X0236863Y0045068D01*
X0237230Y0045435D02*
X0237230Y0043967D01*
X0236863Y0043600D01*
X0236123Y0043600D02*
X0236123Y0045802D01*
X0235756Y0045068D02*
X0235022Y0045068D01*
X0234655Y0044701D01*
X0234655Y0043600D01*
X0233913Y0043967D02*
X0233546Y0043600D01*
X0232812Y0043600D01*
X0232445Y0043967D01*
X0232445Y0044701D01*
X0232812Y0045068D01*
X0233546Y0045068D01*
X0233913Y0044701D01*
X0233913Y0043967D01*
X0235756Y0045068D02*
X0236123Y0044701D01*
X0235944Y0047200D02*
X0235944Y0048301D01*
X0236311Y0048668D01*
X0237045Y0048668D01*
X0237412Y0048301D01*
X0238154Y0047934D02*
X0238154Y0047567D01*
X0238521Y0047200D01*
X0239255Y0047200D01*
X0239622Y0047567D01*
X0239255Y0048301D02*
X0238521Y0048301D01*
X0238154Y0047934D01*
X0237412Y0047200D02*
X0237412Y0049402D01*
X0238154Y0049035D02*
X0238521Y0049402D01*
X0239255Y0049402D01*
X0239622Y0049035D01*
X0239622Y0048668D01*
X0239255Y0048301D01*
X0240915Y0045802D02*
X0241649Y0045802D01*
X0242016Y0045435D01*
X0242016Y0043967D01*
X0241649Y0043600D01*
X0240548Y0045435D02*
X0240915Y0045802D01*
X0235202Y0047567D02*
X0234836Y0047200D01*
X0234102Y0047200D01*
X0233735Y0047567D01*
X0233735Y0048301D01*
X0234102Y0048668D01*
X0234836Y0048668D01*
X0235202Y0048301D01*
X0235202Y0047567D01*
X0232993Y0047200D02*
X0232993Y0048668D01*
X0232993Y0047934D02*
X0232259Y0048668D01*
X0231892Y0048668D01*
X0231151Y0048668D02*
X0230417Y0048668D01*
X0230784Y0049035D02*
X0230784Y0047567D01*
X0230417Y0047200D01*
X0234287Y0051901D02*
X0235755Y0051901D01*
X0234090Y0169033D02*
X0232989Y0170501D01*
X0234090Y0171243D02*
X0234090Y0172711D01*
X0234090Y0173453D02*
X0234090Y0174921D01*
X0233723Y0177873D02*
X0233723Y0178974D01*
X0234090Y0179341D01*
X0234823Y0179341D01*
X0235190Y0178974D01*
X0235190Y0177873D01*
X0232989Y0177873D01*
X0233356Y0180082D02*
X0232989Y0180449D01*
X0232989Y0181550D01*
X0234456Y0181550D01*
X0234456Y0182292D02*
X0234456Y0183026D01*
X0234823Y0182659D02*
X0233356Y0182659D01*
X0232989Y0183026D01*
X0230856Y0182659D02*
X0230490Y0182292D01*
X0229756Y0182292D01*
X0229389Y0182659D01*
X0229389Y0183393D01*
X0229756Y0183760D01*
X0230490Y0183760D01*
X0230856Y0183393D01*
X0230856Y0182659D01*
X0230856Y0184502D02*
X0230856Y0185603D01*
X0230490Y0185970D01*
X0229389Y0185970D01*
X0227990Y0185603D02*
X0227990Y0184502D01*
X0225789Y0184502D01*
X0225789Y0185603D01*
X0226156Y0185970D01*
X0226523Y0185970D01*
X0226890Y0185603D01*
X0226890Y0184502D01*
X0226890Y0183760D02*
X0226890Y0182292D01*
X0227623Y0182292D02*
X0226156Y0183760D01*
X0226156Y0183026D02*
X0227623Y0183026D01*
X0227623Y0183760D02*
X0226156Y0182292D01*
X0224390Y0182292D02*
X0222189Y0182292D01*
X0222189Y0183393D01*
X0222556Y0183760D01*
X0223290Y0183760D01*
X0223656Y0183393D01*
X0223656Y0182292D01*
X0222556Y0184502D02*
X0222923Y0184869D01*
X0222923Y0185970D01*
X0223290Y0185970D02*
X0222189Y0185970D01*
X0222189Y0184869D01*
X0222556Y0184502D01*
X0223656Y0184869D02*
X0223656Y0185603D01*
X0223290Y0185970D01*
X0223656Y0186712D02*
X0223656Y0187446D01*
X0224023Y0187079D02*
X0222556Y0187079D01*
X0222189Y0187446D01*
X0222556Y0188552D02*
X0222189Y0188919D01*
X0222556Y0188552D02*
X0224023Y0188552D01*
X0223656Y0188185D02*
X0223656Y0188919D01*
X0223290Y0189659D02*
X0222556Y0189659D01*
X0222189Y0190026D01*
X0222189Y0190760D01*
X0222923Y0191127D02*
X0222923Y0189659D01*
X0223290Y0189659D02*
X0223656Y0190026D01*
X0223656Y0190760D01*
X0223290Y0191127D01*
X0222923Y0191127D01*
X0222923Y0191868D02*
X0223656Y0192602D01*
X0223656Y0192969D01*
X0223656Y0193710D02*
X0222556Y0193710D01*
X0222189Y0194077D01*
X0222189Y0195178D01*
X0221822Y0195178D02*
X0221455Y0194811D01*
X0221455Y0194444D01*
X0221822Y0195178D02*
X0223656Y0195178D01*
X0225789Y0194810D02*
X0226523Y0194076D01*
X0226523Y0194443D02*
X0226523Y0193342D01*
X0225789Y0193342D02*
X0227990Y0193342D01*
X0227990Y0194443D01*
X0227623Y0194810D01*
X0226890Y0194810D01*
X0226523Y0194443D01*
X0226890Y0195552D02*
X0226890Y0196286D01*
X0227990Y0197020D02*
X0227990Y0195552D01*
X0225789Y0195552D01*
X0225789Y0197020D01*
X0226156Y0197762D02*
X0227623Y0199229D01*
X0226890Y0199229D02*
X0226890Y0197762D01*
X0227623Y0197762D02*
X0226156Y0199229D01*
X0226156Y0198495D02*
X0227623Y0198495D01*
X0228655Y0198498D02*
X0230856Y0198498D01*
X0230856Y0199599D01*
X0230490Y0199966D01*
X0229756Y0199966D01*
X0229389Y0199599D01*
X0229389Y0198498D01*
X0229756Y0200708D02*
X0230123Y0201075D01*
X0230123Y0202176D01*
X0230490Y0202176D02*
X0229389Y0202176D01*
X0229389Y0201075D01*
X0229756Y0200708D01*
X0230856Y0201075D02*
X0230856Y0201809D01*
X0230490Y0202176D01*
X0230490Y0202918D02*
X0230856Y0203285D01*
X0230856Y0204386D01*
X0231590Y0204386D02*
X0229389Y0204386D01*
X0229389Y0203285D01*
X0229756Y0202918D01*
X0230490Y0202918D01*
X0232989Y0203285D02*
X0234823Y0203285D01*
X0235190Y0203652D01*
X0234090Y0203652D02*
X0234090Y0202918D01*
X0234090Y0202176D02*
X0234456Y0201809D01*
X0234456Y0201075D01*
X0234090Y0200708D01*
X0233356Y0200708D01*
X0232989Y0201075D01*
X0232989Y0201809D01*
X0233356Y0202176D01*
X0234090Y0202176D01*
X0234090Y0197756D02*
X0234456Y0197389D01*
X0234456Y0196288D01*
X0235190Y0196288D02*
X0232989Y0196288D01*
X0232989Y0197389D01*
X0233356Y0197756D01*
X0234090Y0197756D01*
X0234090Y0195546D02*
X0234456Y0195179D01*
X0234456Y0194445D01*
X0234090Y0194078D01*
X0233356Y0194078D01*
X0232989Y0194445D01*
X0232989Y0195179D01*
X0233356Y0195546D01*
X0234090Y0195546D01*
X0232989Y0193339D02*
X0232989Y0192605D01*
X0232989Y0192972D02*
X0235190Y0192972D01*
X0235190Y0192605D01*
X0234090Y0191863D02*
X0234456Y0191496D01*
X0234456Y0190395D01*
X0235190Y0190395D02*
X0232989Y0190395D01*
X0232989Y0191496D01*
X0233356Y0191863D01*
X0234090Y0191863D01*
X0231957Y0192972D02*
X0231590Y0192972D01*
X0230856Y0192972D02*
X0229389Y0192972D01*
X0229389Y0192605D02*
X0229389Y0193339D01*
X0229389Y0194078D02*
X0229389Y0195179D01*
X0229756Y0195546D01*
X0230123Y0195179D01*
X0230123Y0194445D01*
X0230490Y0194078D01*
X0230856Y0194445D01*
X0230856Y0195546D01*
X0230856Y0192972D02*
X0230856Y0192605D01*
X0230490Y0191863D02*
X0229389Y0191863D01*
X0230490Y0191863D02*
X0230856Y0191496D01*
X0230856Y0190762D01*
X0230490Y0190395D01*
X0230856Y0189656D02*
X0230856Y0188922D01*
X0231223Y0189289D02*
X0229756Y0189289D01*
X0229389Y0189656D01*
X0229389Y0190395D02*
X0231590Y0190395D01*
X0232989Y0187443D02*
X0232989Y0186342D01*
X0233356Y0185975D01*
X0233723Y0186342D01*
X0233723Y0187443D01*
X0234090Y0187443D02*
X0232989Y0187443D01*
X0234090Y0187443D02*
X0234456Y0187076D01*
X0234456Y0186342D01*
X0230856Y0184502D02*
X0229389Y0184502D01*
X0227990Y0185603D02*
X0227623Y0185970D01*
X0227256Y0185970D01*
X0226890Y0185603D01*
X0226890Y0186712D02*
X0226890Y0187446D01*
X0227990Y0188180D02*
X0227990Y0186712D01*
X0225789Y0186712D01*
X0225789Y0188180D01*
X0225789Y0188922D02*
X0227990Y0188922D01*
X0227990Y0190390D01*
X0227623Y0191132D02*
X0226156Y0191132D01*
X0225789Y0191499D01*
X0225789Y0192233D01*
X0226156Y0192600D01*
X0227623Y0192600D01*
X0227990Y0192233D01*
X0227990Y0191499D01*
X0227623Y0191132D01*
X0226890Y0189656D02*
X0226890Y0188922D01*
X0223656Y0191868D02*
X0222189Y0191868D01*
X0222189Y0198130D02*
X0224390Y0198130D01*
X0223656Y0198497D02*
X0223290Y0198130D01*
X0223656Y0198497D02*
X0223656Y0199231D01*
X0223290Y0199598D01*
X0222189Y0199598D01*
X0222556Y0200340D02*
X0222189Y0200707D01*
X0222189Y0201441D01*
X0222556Y0201808D01*
X0223290Y0201808D01*
X0223656Y0201441D01*
X0223656Y0200707D01*
X0223290Y0200340D01*
X0222556Y0200340D01*
X0222189Y0202550D02*
X0222189Y0203284D01*
X0222189Y0202917D02*
X0224390Y0202917D01*
X0224390Y0202550D01*
X0225789Y0202915D02*
X0226156Y0202548D01*
X0227623Y0202548D01*
X0227256Y0202181D02*
X0227256Y0202915D01*
X0226890Y0203655D02*
X0227256Y0204021D01*
X0227256Y0204755D01*
X0226890Y0205122D01*
X0225789Y0205122D01*
X0226156Y0205864D02*
X0225789Y0206231D01*
X0225789Y0206965D01*
X0226523Y0207332D02*
X0226523Y0205864D01*
X0226890Y0205864D02*
X0227256Y0206231D01*
X0227256Y0206965D01*
X0226890Y0207332D01*
X0226523Y0207332D01*
X0226156Y0205864D02*
X0226890Y0205864D01*
X0227990Y0203655D02*
X0225789Y0203655D01*
X0223656Y0204390D02*
X0223656Y0205491D01*
X0224390Y0205491D02*
X0222189Y0205491D01*
X0222189Y0204390D01*
X0222556Y0204023D01*
X0223290Y0204023D01*
X0223656Y0204390D01*
X0223290Y0206233D02*
X0222556Y0206233D01*
X0222189Y0206600D01*
X0222189Y0207334D01*
X0222923Y0207701D02*
X0222923Y0206233D01*
X0223290Y0206233D02*
X0223656Y0206600D01*
X0223656Y0207334D01*
X0223290Y0207701D01*
X0222923Y0207701D01*
X0222923Y0208443D02*
X0223656Y0209177D01*
X0223656Y0209544D01*
X0223656Y0208443D02*
X0222189Y0208443D01*
X0222556Y0212494D02*
X0222189Y0212861D01*
X0222189Y0213595D01*
X0222556Y0213962D01*
X0223290Y0213962D01*
X0223656Y0213595D01*
X0223656Y0212861D01*
X0223290Y0212494D01*
X0222556Y0212494D01*
X0222189Y0214704D02*
X0223656Y0214704D01*
X0223656Y0215805D01*
X0223290Y0216172D01*
X0222189Y0216172D01*
X0232989Y0215805D02*
X0232989Y0215071D01*
X0233356Y0214704D01*
X0234090Y0214704D01*
X0234456Y0215071D01*
X0234456Y0215805D01*
X0234090Y0216172D01*
X0233723Y0216172D01*
X0233723Y0214704D01*
X0234456Y0213962D02*
X0234456Y0212861D01*
X0234090Y0212494D01*
X0233356Y0212494D01*
X0232989Y0212861D01*
X0232989Y0213962D01*
X0235190Y0213962D01*
X0235190Y0211388D02*
X0232989Y0211388D01*
X0232989Y0211021D02*
X0232989Y0211755D01*
X0233356Y0210279D02*
X0234090Y0210279D01*
X0234456Y0209912D01*
X0234456Y0209178D01*
X0234090Y0208811D01*
X0233356Y0208811D01*
X0232989Y0209178D01*
X0232989Y0209912D01*
X0233356Y0210279D01*
X0235190Y0211021D02*
X0235190Y0211388D01*
X0234456Y0208069D02*
X0234456Y0206968D01*
X0234090Y0206601D01*
X0233723Y0206968D01*
X0233723Y0207702D01*
X0233356Y0208069D01*
X0232989Y0207702D01*
X0232989Y0206601D01*
X0232989Y0216914D02*
X0234456Y0216914D01*
X0233723Y0216914D02*
X0234456Y0217648D01*
X0234456Y0218015D01*
X0234456Y0180082D02*
X0233356Y0180082D01*
X0235190Y0170501D02*
X0234090Y0169033D01*
D11*
X0186304Y0176378D02*
X0181700Y0176378D01*
X0184002Y0176378D02*
X0184769Y0177145D01*
X0184769Y0178680D01*
X0184002Y0179447D01*
X0181700Y0179447D01*
X0182467Y0180982D02*
X0184002Y0180982D01*
X0184769Y0181749D01*
X0184769Y0183284D01*
X0184002Y0184051D01*
X0183235Y0184051D01*
X0183235Y0180982D01*
X0182467Y0180982D02*
X0181700Y0181749D01*
X0181700Y0183284D01*
X0181700Y0185586D02*
X0184769Y0185586D01*
X0183235Y0185586D02*
X0184769Y0187121D01*
X0184769Y0187888D01*
X0184002Y0189423D02*
X0184769Y0190190D01*
X0184769Y0191725D01*
X0184002Y0192492D01*
X0183235Y0192492D01*
X0183235Y0189423D01*
X0184002Y0189423D02*
X0182467Y0189423D01*
X0181700Y0190190D01*
X0181700Y0191725D01*
X0181700Y0198630D02*
X0181700Y0200165D01*
X0186304Y0200165D01*
X0186304Y0198630D01*
X0184769Y0170240D02*
X0184769Y0167938D01*
X0184002Y0167170D01*
X0183235Y0167938D01*
X0183235Y0169472D01*
X0182467Y0170240D01*
X0181700Y0169472D01*
X0181700Y0167170D01*
X0183235Y0165636D02*
X0183235Y0162566D01*
X0184002Y0162566D02*
X0184769Y0163334D01*
X0184769Y0164868D01*
X0184002Y0165636D01*
X0183235Y0165636D01*
X0181700Y0164868D02*
X0181700Y0163334D01*
X0182467Y0162566D01*
X0184002Y0162566D01*
X0184002Y0161032D02*
X0184769Y0160264D01*
X0184769Y0158730D01*
X0184002Y0157962D01*
X0182467Y0157962D01*
X0181700Y0158730D01*
X0181700Y0160264D01*
X0182467Y0161032D01*
X0184002Y0161032D01*
X0184769Y0156428D02*
X0180933Y0156428D01*
X0180165Y0155660D01*
X0180165Y0154893D01*
X0181700Y0154126D02*
X0181700Y0156428D01*
X0181700Y0154126D02*
X0182467Y0153359D01*
X0184002Y0153359D01*
X0184769Y0154126D01*
X0184769Y0156428D01*
X0184769Y0147220D02*
X0184769Y0146453D01*
X0183235Y0144918D01*
X0184769Y0144918D02*
X0181700Y0144918D01*
X0183235Y0143383D02*
X0183235Y0140314D01*
X0184002Y0140314D02*
X0184769Y0141081D01*
X0184769Y0142616D01*
X0184002Y0143383D01*
X0183235Y0143383D01*
X0181700Y0142616D02*
X0181700Y0141081D01*
X0182467Y0140314D01*
X0184002Y0140314D01*
X0184769Y0138779D02*
X0184769Y0136477D01*
X0184002Y0135710D01*
X0182467Y0135710D01*
X0181700Y0136477D01*
X0181700Y0138779D01*
X0186304Y0138779D01*
X0186304Y0133408D02*
X0181700Y0133408D01*
X0181700Y0132641D02*
X0181700Y0134176D01*
X0182467Y0131106D02*
X0184002Y0131106D01*
X0184769Y0130339D01*
X0184769Y0128804D01*
X0184002Y0128037D01*
X0182467Y0128037D01*
X0181700Y0128804D01*
X0181700Y0130339D01*
X0182467Y0131106D01*
X0186304Y0132641D02*
X0186304Y0133408D01*
X0184002Y0126502D02*
X0181700Y0126502D01*
X0184002Y0126502D02*
X0184769Y0125735D01*
X0184769Y0124200D01*
X0184002Y0123433D01*
X0186304Y0123433D02*
X0181700Y0123433D01*
X0181700Y0117294D02*
X0182467Y0116527D01*
X0185537Y0116527D01*
X0184769Y0115760D02*
X0184769Y0117294D01*
X0184002Y0114225D02*
X0183235Y0114225D01*
X0183235Y0111156D01*
X0184002Y0111156D02*
X0184769Y0111923D01*
X0184769Y0113458D01*
X0184002Y0114225D01*
X0181700Y0113458D02*
X0181700Y0111923D01*
X0182467Y0111156D01*
X0184002Y0111156D01*
X0184002Y0109621D02*
X0181700Y0109621D01*
X0184002Y0109621D02*
X0184769Y0108854D01*
X0184769Y0106552D01*
X0181700Y0106552D01*
X0181700Y0105017D02*
X0181700Y0102715D01*
X0182467Y0101948D01*
X0184002Y0101948D01*
X0184769Y0102715D01*
X0184769Y0105017D01*
X0180933Y0105017D01*
X0180165Y0104250D01*
X0180165Y0103483D01*
X0181700Y0100413D02*
X0181700Y0098111D01*
X0182467Y0097344D01*
X0183235Y0098111D01*
X0183235Y0100413D01*
X0184002Y0100413D02*
X0181700Y0100413D01*
X0184002Y0100413D02*
X0184769Y0099646D01*
X0184769Y0098111D01*
X0186304Y0095809D02*
X0181700Y0095809D01*
X0184769Y0094275D02*
X0186304Y0095809D01*
X0184769Y0094275D02*
X0186304Y0092740D01*
X0181700Y0092740D01*
X0181700Y0086602D02*
X0181700Y0085067D01*
X0186304Y0085067D01*
X0186304Y0086602D01*
D12*
X0240452Y0200050D02*
X0244723Y0200050D01*
X0240452Y0204320D01*
X0240452Y0205388D01*
X0241520Y0206455D01*
X0243655Y0206455D01*
X0244723Y0205388D01*
X0246898Y0205388D02*
X0246898Y0204320D01*
X0247965Y0203253D01*
X0246898Y0202185D01*
X0246898Y0201118D01*
X0247965Y0200050D01*
X0250100Y0200050D01*
X0251168Y0201118D01*
X0253343Y0201118D02*
X0254411Y0200050D01*
X0256546Y0200050D01*
X0257614Y0201118D01*
X0253343Y0205388D01*
X0253343Y0201118D01*
X0257614Y0201118D02*
X0257614Y0205388D01*
X0256546Y0206455D01*
X0254411Y0206455D01*
X0253343Y0205388D01*
X0251168Y0205388D02*
X0250100Y0206455D01*
X0247965Y0206455D01*
X0246898Y0205388D01*
X0247965Y0203253D02*
X0249033Y0203253D01*
X0259789Y0204320D02*
X0259789Y0205388D01*
X0260856Y0206455D01*
X0262991Y0206455D01*
X0264059Y0205388D01*
X0266234Y0205388D02*
X0266234Y0203253D01*
X0267302Y0202185D01*
X0270505Y0202185D01*
X0270505Y0200050D02*
X0270505Y0206455D01*
X0267302Y0206455D01*
X0266234Y0205388D01*
X0268369Y0202185D02*
X0266234Y0200050D01*
X0264059Y0200050D02*
X0259789Y0204320D01*
X0259789Y0200050D02*
X0264059Y0200050D01*
X0272680Y0201118D02*
X0273747Y0200050D01*
X0275882Y0200050D01*
X0276950Y0201118D01*
X0276950Y0205388D01*
X0275882Y0206455D01*
X0273747Y0206455D01*
X0272680Y0205388D01*
D13*
X0225201Y0077578D02*
X0225451Y0077327D01*
X0225451Y0076827D01*
X0225201Y0076577D01*
X0225201Y0076104D02*
X0224701Y0076104D01*
X0224450Y0075854D01*
X0224450Y0075103D01*
X0223950Y0075103D02*
X0225451Y0075103D01*
X0225451Y0075854D01*
X0225201Y0076104D01*
X0224450Y0075604D02*
X0223950Y0076104D01*
X0223950Y0076577D02*
X0224951Y0077578D01*
X0225201Y0077578D01*
X0223950Y0077578D02*
X0223950Y0076577D01*
D14*
X0249250Y0104250D02*
X0269250Y0104250D01*
X0269250Y0108250D01*
X0297250Y0108250D01*
X0297250Y0127250D01*
X0290250Y0136250D01*
X0290250Y0161250D01*
X0297250Y0171250D01*
X0297250Y0188250D01*
X0269250Y0188250D01*
X0269250Y0192250D01*
X0249250Y0192250D01*
X0249250Y0188250D01*
X0240250Y0188250D01*
X0219250Y0168250D01*
X0219250Y0129250D01*
X0241250Y0108250D01*
X0249250Y0108250D01*
X0249250Y0104250D01*
X0272500Y0134500D02*
X0272500Y0137553D01*
X0273518Y0138570D01*
X0274535Y0138570D01*
X0275553Y0137553D01*
X0275553Y0134500D01*
X0278605Y0134500D02*
X0272500Y0134500D01*
X0275553Y0137553D02*
X0276570Y0138570D01*
X0277588Y0138570D01*
X0278605Y0137553D01*
X0278605Y0134500D01*
X0276570Y0140577D02*
X0272500Y0140577D01*
X0275553Y0140577D02*
X0275553Y0144647D01*
X0276570Y0144647D02*
X0272500Y0144647D01*
X0276570Y0144647D02*
X0278605Y0142612D01*
X0276570Y0140577D01*
X0278605Y0146654D02*
X0278605Y0150725D01*
X0278605Y0148689D02*
X0272500Y0148689D01*
X0272500Y0152732D02*
X0272500Y0156802D01*
X0272500Y0154767D02*
X0278605Y0154767D01*
X0276570Y0152732D01*
M02*
