G75*
%MOIN*%
%OFA0B0*%
%FSLAX25Y25*%
%IPPOS*%
%LPD*%
%AMOC8*
5,1,8,0,0,1.08239X$1,22.5*
%
%ADD10C,0.00098*%
D10*
X0176181Y0068722D02*
X0173800Y0071351D01*
X0171381Y0073944D01*
X0165279Y0081734D02*
X0165253Y0081790D01*
X0165223Y0081845D01*
X0165190Y0081899D01*
X0165155Y0081950D01*
X0165117Y0082000D01*
X0165076Y0082047D01*
X0165033Y0082092D01*
X0164987Y0082135D01*
X0164940Y0082175D01*
X0164890Y0082213D01*
X0164838Y0082248D01*
X0164784Y0082280D01*
X0164729Y0082309D01*
X0164728Y0082309D02*
X0164686Y0082324D01*
X0164646Y0082342D01*
X0164607Y0082364D01*
X0164570Y0082389D01*
X0164535Y0082416D01*
X0164502Y0082447D01*
X0164472Y0082480D01*
X0164445Y0082515D01*
X0164421Y0082552D01*
X0164400Y0082592D01*
X0164382Y0082632D01*
X0164367Y0082675D01*
X0164356Y0082718D01*
X0163723Y0083644D02*
X0163090Y0084305D01*
X0160581Y0081460D01*
X0163723Y0083644D02*
X0163792Y0083579D01*
X0163858Y0083511D01*
X0163921Y0083441D01*
X0163982Y0083369D01*
X0164040Y0083294D01*
X0164094Y0083218D01*
X0164146Y0083139D01*
X0164195Y0083058D01*
X0164240Y0082975D01*
X0164282Y0082891D01*
X0164321Y0082805D01*
X0164356Y0082717D01*
X0140184Y0062107D02*
X0140023Y0061952D01*
X0139858Y0061802D01*
X0139691Y0061655D01*
X0139519Y0061513D01*
X0139344Y0061374D01*
X0139167Y0061240D01*
X0138986Y0061110D01*
X0138801Y0060984D01*
X0140184Y0062107D02*
X0140239Y0062171D01*
X0140297Y0062233D01*
X0140358Y0062293D01*
X0140420Y0062351D01*
X0140486Y0062405D01*
X0140553Y0062458D01*
X0140622Y0062507D01*
X0140693Y0062554D01*
X0140766Y0062597D01*
X0140841Y0062638D01*
X0121652Y0048448D02*
X0121563Y0048408D01*
X0121476Y0048364D01*
X0121390Y0048317D01*
X0121306Y0048268D01*
X0121225Y0048215D01*
X0121145Y0048159D01*
X0121067Y0048100D01*
X0120992Y0048038D01*
X0120919Y0047974D01*
X0120848Y0047907D01*
X0120780Y0047837D01*
X0120780Y0047838D02*
X0120693Y0047752D01*
X0120605Y0047669D01*
X0120514Y0047589D01*
X0120420Y0047511D01*
X0120325Y0047436D01*
X0120227Y0047363D01*
X0120127Y0047294D01*
X0120025Y0047227D01*
X0114101Y0043302D02*
X0114046Y0043286D01*
X0113993Y0043266D01*
X0113941Y0043243D01*
X0113890Y0043216D01*
X0113842Y0043186D01*
X0113796Y0043152D01*
X0113752Y0043116D01*
X0113711Y0043076D01*
X0113673Y0043034D01*
X0113638Y0042989D01*
X0113606Y0042942D01*
X0113577Y0042893D01*
X0113552Y0042842D01*
X0113551Y0042842D02*
X0113493Y0042769D01*
X0113431Y0042699D01*
X0113367Y0042631D01*
X0113301Y0042565D01*
X0113231Y0042503D01*
X0113160Y0042443D01*
X0113086Y0042386D01*
X0113010Y0042332D01*
X0112931Y0042281D01*
X0112851Y0042233D01*
X0112769Y0042189D01*
X0112685Y0042148D01*
X0112600Y0042110D01*
X0112513Y0042075D01*
X0112208Y0041914D01*
X0111906Y0041747D01*
X0111609Y0041572D01*
X0111316Y0041391D01*
X0111027Y0041202D01*
X0110743Y0041007D01*
X0093238Y0028785D02*
X0093159Y0028654D01*
X0093083Y0028521D01*
X0093011Y0028386D01*
X0092941Y0028250D01*
X0092874Y0028111D01*
X0092811Y0027972D01*
X0092751Y0027831D01*
X0092694Y0027689D01*
X0092640Y0027545D01*
X0092590Y0027400D01*
X0092543Y0027254D01*
X0092499Y0027107D01*
X0092459Y0026960D01*
X0093238Y0028786D02*
X0093332Y0028983D01*
X0093430Y0029178D01*
X0093533Y0029370D01*
X0093641Y0029560D01*
X0093753Y0029747D01*
X0093870Y0029931D01*
X0093991Y0030112D01*
X0094116Y0030290D01*
X0094246Y0030466D01*
X0094381Y0030637D01*
X0094519Y0030806D01*
X0094661Y0030971D01*
X0094808Y0031133D01*
X0094958Y0031291D01*
X0095112Y0031445D01*
X0095270Y0031595D01*
X0075646Y0005740D02*
X0074878Y0005820D01*
X0074113Y0005918D01*
X0073350Y0006034D01*
X0072590Y0006168D01*
X0071834Y0006320D01*
X0071081Y0006489D01*
X0070333Y0006677D01*
X0069589Y0006882D01*
X0067598Y0008385D02*
X0067493Y0008483D01*
X0067391Y0008584D01*
X0067291Y0008688D01*
X0067194Y0008794D01*
X0067101Y0008903D01*
X0067010Y0009015D01*
X0066923Y0009129D01*
X0066839Y0009245D01*
X0066758Y0009364D01*
X0066680Y0009485D01*
X0066606Y0009608D01*
X0066535Y0009733D01*
X0066468Y0009860D01*
X0066404Y0009988D01*
X0066343Y0010119D01*
X0066287Y0010251D01*
X0066234Y0010384D01*
X0066185Y0010519D01*
X0066139Y0010655D01*
X0066097Y0010793D01*
X0066059Y0010932D01*
X0066025Y0011071D01*
X0065995Y0011212D01*
X0065969Y0011353D01*
X0065947Y0011495D01*
X0065928Y0011637D01*
X0065914Y0011780D01*
X0065903Y0011923D01*
X0065897Y0012067D01*
X0065894Y0012211D01*
X0065895Y0012354D01*
X0065901Y0012498D01*
X0065910Y0012641D01*
X0065923Y0012784D01*
X0067597Y0008385D02*
X0067761Y0008228D01*
X0067929Y0008074D01*
X0068100Y0007924D01*
X0068275Y0007779D01*
X0068453Y0007637D01*
X0068635Y0007500D01*
X0068820Y0007367D01*
X0069007Y0007239D01*
X0069198Y0007115D01*
X0069392Y0006996D01*
X0069588Y0006881D01*
X0178392Y0066157D02*
X0180361Y0063837D01*
X0203972Y0038551D02*
X0204026Y0038469D01*
X0204076Y0038385D01*
X0204122Y0038299D01*
X0204166Y0038212D01*
X0204206Y0038123D01*
X0204244Y0038032D01*
X0204277Y0037940D01*
X0204307Y0037847D01*
X0204334Y0037753D01*
X0204357Y0037658D01*
X0204377Y0037562D01*
X0204393Y0037466D01*
X0204405Y0037369D01*
X0204414Y0037272D01*
X0204419Y0037174D01*
X0204420Y0037175D02*
X0204436Y0036917D01*
X0204457Y0036660D01*
X0204484Y0036403D01*
X0204518Y0036147D01*
X0204557Y0035891D01*
X0204602Y0035637D01*
X0204653Y0035384D01*
X0204709Y0035132D01*
X0204772Y0034881D01*
X0204840Y0034632D01*
X0204914Y0034385D01*
X0204994Y0034139D01*
X0205079Y0033895D01*
X0205170Y0033654D01*
X0205266Y0033414D01*
X0208810Y0024000D02*
X0208911Y0023854D01*
X0209015Y0023710D01*
X0209122Y0023569D01*
X0209233Y0023431D01*
X0209348Y0023295D01*
X0209465Y0023162D01*
X0209586Y0023032D01*
X0209709Y0022905D01*
X0209836Y0022781D01*
X0209966Y0022660D01*
X0210099Y0022542D01*
X0210234Y0022427D01*
X0210372Y0022316D01*
X0210513Y0022208D01*
X0210657Y0022104D01*
X0210803Y0022003D01*
X0210951Y0021906D01*
X0211102Y0021812D01*
X0211255Y0021722D01*
X0211410Y0021635D01*
X0211567Y0021553D01*
X0211726Y0021474D01*
X0211887Y0021399D01*
X0212049Y0021328D01*
X0212214Y0021261D01*
X0212380Y0021199D01*
X0212547Y0021140D01*
X0212716Y0021085D01*
X0212886Y0021034D01*
X0213057Y0020987D01*
X0213229Y0020945D01*
X0213402Y0020907D01*
X0213577Y0020873D01*
X0213751Y0020843D01*
X0213927Y0020817D01*
X0214103Y0020796D01*
X0216016Y0020480D01*
X0215960Y0019166D01*
X0215959Y0019051D01*
X0215955Y0018935D01*
X0215948Y0018820D01*
X0215936Y0018705D01*
X0215921Y0018590D01*
X0215903Y0018476D01*
X0215880Y0018362D01*
X0215854Y0018250D01*
X0215825Y0018138D01*
X0215792Y0018027D01*
X0215755Y0017917D01*
X0215715Y0017809D01*
X0215672Y0017701D01*
X0215625Y0017596D01*
X0215575Y0017491D01*
X0215522Y0017389D01*
X0215465Y0017288D01*
X0215405Y0017189D01*
X0215342Y0017092D01*
X0215276Y0016997D01*
X0215207Y0016904D01*
X0215136Y0016813D01*
X0215061Y0016725D01*
X0214983Y0016639D01*
X0214903Y0016556D01*
X0214903Y0016557D02*
X0214749Y0016348D01*
X0214599Y0016135D01*
X0214455Y0015919D01*
X0214316Y0015699D01*
X0214182Y0015477D01*
X0214054Y0015251D01*
X0213931Y0015022D01*
X0213813Y0014790D01*
X0213701Y0014556D01*
X0213595Y0014319D01*
X0213494Y0014079D01*
X0213400Y0013837D01*
X0213311Y0013593D01*
X0213227Y0013347D01*
X0213150Y0013099D01*
X0213079Y0012849D01*
X0213013Y0012598D01*
X0212954Y0012345D01*
X0212901Y0012090D01*
X0212853Y0011835D01*
X0212812Y0011578D01*
X0212777Y0011321D01*
X0212748Y0011063D01*
X0212726Y0010804D01*
X0212709Y0010545D01*
X0212699Y0010285D01*
X0212695Y0010025D01*
X0212697Y0009765D01*
X0212706Y0009506D01*
X0212720Y0009246D01*
X0213241Y0004544D02*
X0213770Y0002529D01*
X0215312Y0002529D01*
X0215312Y0002528D02*
X0215387Y0002553D01*
X0215464Y0002574D01*
X0215542Y0002591D01*
X0215620Y0002605D01*
X0215699Y0002614D01*
X0215778Y0002620D01*
X0215858Y0002622D01*
X0215937Y0002620D01*
X0216016Y0002614D01*
X0216095Y0002605D01*
X0216174Y0002592D01*
X0216251Y0002575D01*
X0216328Y0002554D01*
X0216403Y0002529D01*
X0216478Y0002501D01*
X0216551Y0002470D01*
X0216622Y0002435D01*
X0216691Y0002396D01*
X0216759Y0002354D01*
X0216825Y0002309D01*
X0216888Y0002261D01*
X0216949Y0002210D01*
X0217007Y0002156D01*
X0217063Y0002099D01*
X0217115Y0002040D01*
X0217115Y0002040D01*
X0217147Y0001984D01*
X0217181Y0001932D01*
X0217221Y0001884D01*
X0217270Y0001841D01*
X0217329Y0001801D01*
X0217401Y0001766D01*
X0217490Y0001734D01*
X0217597Y0001705D01*
X0217726Y0001679D01*
X0217879Y0001657D01*
X0218059Y0001637D01*
X0218268Y0001620D01*
X0218509Y0001605D01*
X0218786Y0001593D01*
X0219099Y0001582D01*
X0219453Y0001574D01*
X0219850Y0001567D01*
X0220292Y0001562D01*
X0220783Y0001558D01*
X0221324Y0001555D01*
X0221919Y0001554D01*
X0222570Y0001552D01*
X0223280Y0001552D01*
X0224052Y0001552D01*
X0224809Y0001552D01*
X0225508Y0001553D01*
X0226151Y0001554D01*
X0226741Y0001556D01*
X0227279Y0001559D01*
X0227769Y0001563D01*
X0228214Y0001569D01*
X0228615Y0001576D01*
X0228977Y0001585D01*
X0229300Y0001595D01*
X0229588Y0001608D01*
X0229844Y0001623D01*
X0230071Y0001640D01*
X0230270Y0001660D01*
X0230444Y0001683D01*
X0230597Y0001709D01*
X0230730Y0001737D01*
X0230847Y0001769D01*
X0230950Y0001805D01*
X0231042Y0001844D01*
X0231125Y0001887D01*
X0231202Y0001934D01*
X0231275Y0001985D01*
X0231348Y0002040D01*
X0232724Y0002529D02*
X0233480Y0002529D01*
X0233480Y0004926D01*
X0233480Y0005206D01*
X0233480Y0005464D01*
X0233482Y0005701D01*
X0233484Y0005919D01*
X0233488Y0006118D01*
X0233493Y0006299D01*
X0233501Y0006464D01*
X0233510Y0006615D01*
X0233523Y0006752D01*
X0233537Y0006876D01*
X0233555Y0006990D01*
X0233577Y0007093D01*
X0233602Y0007188D01*
X0233631Y0007275D01*
X0233664Y0007357D01*
X0233702Y0007433D01*
X0233744Y0007506D01*
X0233792Y0007576D01*
X0233845Y0007645D01*
X0233904Y0007713D01*
X0233968Y0007784D01*
X0234039Y0007856D01*
X0234117Y0007933D01*
X0234201Y0008014D01*
X0213240Y0004544D02*
X0213146Y0004928D01*
X0213060Y0005315D01*
X0212984Y0005703D01*
X0212917Y0006093D01*
X0212860Y0006484D01*
X0212811Y0006877D01*
X0212773Y0007270D01*
X0212743Y0007665D01*
X0212723Y0008060D01*
X0212713Y0008455D01*
X0212712Y0008851D01*
X0212720Y0009246D01*
X0234201Y0008015D02*
X0234300Y0008133D01*
X0234396Y0008253D01*
X0234489Y0008376D01*
X0234578Y0008502D01*
X0234665Y0008629D01*
X0234748Y0008759D01*
X0234828Y0008890D01*
X0234905Y0009024D01*
X0234979Y0009160D01*
X0235049Y0009297D01*
X0235116Y0009436D01*
X0235179Y0009576D01*
X0235238Y0009718D01*
X0235294Y0009862D01*
X0235347Y0010007D01*
X0235396Y0010153D01*
X0235441Y0010301D01*
X0235482Y0010449D01*
X0235520Y0010598D01*
X0235554Y0010749D01*
X0235584Y0010900D01*
X0235611Y0011052D01*
X0235634Y0011204D01*
X0235652Y0011357D01*
X0235668Y0011510D01*
X0235679Y0011664D01*
X0235686Y0011818D01*
X0235690Y0011972D01*
X0235689Y0012126D01*
X0235685Y0012280D01*
X0235677Y0012434D01*
X0235678Y0012435D02*
X0235697Y0012569D01*
X0235714Y0012705D01*
X0235726Y0012840D01*
X0235734Y0012976D01*
X0235739Y0013112D01*
X0235740Y0013249D01*
X0235737Y0013385D01*
X0235730Y0013521D01*
X0235720Y0013657D01*
X0235706Y0013792D01*
X0235688Y0013927D01*
X0235666Y0014062D01*
X0235641Y0014195D01*
X0235612Y0014328D01*
X0235579Y0014461D01*
X0235543Y0014592D01*
X0235503Y0014722D01*
X0235459Y0014851D01*
X0235412Y0014979D01*
X0235361Y0015105D01*
X0235307Y0015230D01*
X0235249Y0015354D01*
X0235188Y0015476D01*
X0235124Y0015596D01*
X0235056Y0015714D01*
X0234985Y0015830D01*
X0234911Y0015944D01*
X0234834Y0016056D01*
X0234753Y0016166D01*
X0234670Y0016274D01*
X0234584Y0016379D01*
X0233441Y0019049D02*
X0233090Y0020792D01*
X0235089Y0020897D01*
X0237500Y0021413D02*
X0237549Y0021463D01*
X0237600Y0021511D01*
X0237654Y0021556D01*
X0237709Y0021598D01*
X0237767Y0021638D01*
X0237827Y0021674D01*
X0237889Y0021707D01*
X0237952Y0021738D01*
X0238017Y0021764D01*
X0238083Y0021788D01*
X0238150Y0021808D01*
X0238218Y0021824D01*
X0233441Y0019049D02*
X0233460Y0018910D01*
X0233482Y0018772D01*
X0233509Y0018634D01*
X0233539Y0018497D01*
X0233573Y0018361D01*
X0233610Y0018226D01*
X0233651Y0018092D01*
X0233696Y0017959D01*
X0233744Y0017828D01*
X0233796Y0017698D01*
X0233851Y0017569D01*
X0233909Y0017441D01*
X0233971Y0017316D01*
X0234037Y0017192D01*
X0234105Y0017070D01*
X0234177Y0016949D01*
X0234253Y0016831D01*
X0234331Y0016715D01*
X0234412Y0016601D01*
X0234497Y0016489D01*
X0234584Y0016379D01*
X0235089Y0020896D02*
X0235214Y0020886D01*
X0235339Y0020880D01*
X0235464Y0020877D01*
X0235589Y0020878D01*
X0235715Y0020884D01*
X0235839Y0020893D01*
X0235964Y0020906D01*
X0236088Y0020922D01*
X0236212Y0020943D01*
X0236334Y0020967D01*
X0236456Y0020995D01*
X0236578Y0021027D01*
X0236698Y0021063D01*
X0236817Y0021102D01*
X0236934Y0021145D01*
X0237050Y0021192D01*
X0237165Y0021242D01*
X0237278Y0021295D01*
X0237390Y0021352D01*
X0237500Y0021413D01*
X0238218Y0021824D02*
X0238320Y0021881D01*
X0238421Y0021941D01*
X0238520Y0022004D01*
X0238616Y0022071D01*
X0238710Y0022140D01*
X0238803Y0022212D01*
X0238892Y0022287D01*
X0238980Y0022365D01*
X0239065Y0022446D01*
X0239147Y0022530D01*
X0239226Y0022616D01*
X0239303Y0022704D01*
X0239377Y0022795D01*
X0239448Y0022888D01*
X0239516Y0022983D01*
X0239581Y0023081D01*
X0239642Y0023180D01*
X0239701Y0023282D01*
X0239756Y0023385D01*
X0239808Y0023490D01*
X0239857Y0023596D01*
X0239902Y0023704D01*
X0239944Y0023814D01*
X0239982Y0023924D01*
X0240017Y0024036D01*
X0240048Y0024149D01*
X0240076Y0024263D01*
X0243985Y0035617D02*
X0244010Y0035751D01*
X0244039Y0035884D01*
X0244072Y0036016D01*
X0244108Y0036147D01*
X0244147Y0036277D01*
X0244191Y0036406D01*
X0244238Y0036534D01*
X0244288Y0036661D01*
X0244342Y0036786D01*
X0244399Y0036909D01*
X0244459Y0037031D01*
X0244523Y0037151D01*
X0244591Y0037270D01*
X0244661Y0037386D01*
X0244735Y0037501D01*
X0244811Y0037613D01*
X0244891Y0037723D01*
X0244974Y0037831D01*
X0245060Y0037937D01*
X0245148Y0038040D01*
X0245240Y0038141D01*
X0245334Y0038239D01*
X0245431Y0038335D01*
X0245530Y0038428D01*
X0245632Y0038518D01*
X0245737Y0038605D01*
X0245843Y0038690D01*
X0247403Y0040599D02*
X0247411Y0040643D01*
X0247423Y0040686D01*
X0247439Y0040728D01*
X0247458Y0040769D01*
X0247480Y0040808D01*
X0247505Y0040845D01*
X0247534Y0040879D01*
X0247565Y0040911D01*
X0247599Y0040941D01*
X0247635Y0040967D01*
X0247674Y0040991D01*
X0247714Y0041011D01*
X0247755Y0041027D01*
X0247402Y0040598D02*
X0247294Y0040423D01*
X0247181Y0040251D01*
X0247064Y0040081D01*
X0246943Y0039915D01*
X0246818Y0039751D01*
X0246690Y0039589D01*
X0246557Y0039431D01*
X0246421Y0039276D01*
X0246282Y0039125D01*
X0246139Y0038976D01*
X0245993Y0038831D01*
X0245843Y0038690D01*
X0243984Y0035618D02*
X0243953Y0035443D01*
X0243918Y0035269D01*
X0243879Y0035096D01*
X0243837Y0034924D01*
X0243790Y0034753D01*
X0243740Y0034583D01*
X0243685Y0034414D01*
X0243627Y0034247D01*
X0243565Y0034081D01*
X0243500Y0033916D01*
X0247755Y0041027D02*
X0247875Y0041126D01*
X0247993Y0041228D01*
X0248108Y0041332D01*
X0248221Y0041439D01*
X0248332Y0041548D01*
X0248440Y0041660D01*
X0248546Y0041774D01*
X0248649Y0041891D01*
X0248750Y0042010D01*
X0248847Y0042131D01*
X0248942Y0042255D01*
X0249034Y0042380D01*
X0249123Y0042508D01*
X0255288Y0049409D02*
X0260900Y0055403D01*
X0206383Y0029872D02*
X0206492Y0029429D01*
X0206611Y0028989D01*
X0206740Y0028552D01*
X0206880Y0028118D01*
X0207029Y0027687D01*
X0207189Y0027260D01*
X0207358Y0026837D01*
X0207537Y0026418D01*
X0207726Y0026003D01*
X0207924Y0025592D01*
X0208132Y0025187D01*
X0208349Y0024786D01*
X0208575Y0024390D01*
X0208811Y0024000D01*
X0241148Y0026827D02*
X0241373Y0027380D01*
X0241584Y0027938D01*
X0241781Y0028501D01*
X0241965Y0029069D01*
X0242135Y0029641D01*
X0242265Y0030187D01*
X0242407Y0030731D01*
X0242560Y0031271D01*
X0242725Y0031808D01*
X0242902Y0032341D01*
X0243090Y0032870D01*
X0243289Y0033395D01*
X0243500Y0033915D01*
X0232724Y0002529D02*
X0232626Y0002521D01*
X0232528Y0002510D01*
X0232430Y0002495D01*
X0232333Y0002476D01*
X0232237Y0002454D01*
X0232142Y0002428D01*
X0232048Y0002399D01*
X0231955Y0002366D01*
X0231863Y0002329D01*
X0231773Y0002289D01*
X0231684Y0002246D01*
X0231597Y0002199D01*
X0231512Y0002149D01*
X0231429Y0002096D01*
X0231348Y0002040D01*
X0138802Y0060984D02*
X0136441Y0059231D01*
X0134110Y0057439D01*
X0124730Y0050612D02*
X0124236Y0050225D01*
X0123734Y0049848D01*
X0123225Y0049482D01*
X0122707Y0049126D01*
X0122183Y0048782D01*
X0121652Y0048448D01*
X0110743Y0041007D02*
X0110219Y0040665D01*
X0109688Y0040335D01*
X0109150Y0040015D01*
X0108606Y0039706D01*
X0108056Y0039409D01*
X0097843Y0033183D02*
X0097430Y0032893D01*
X0097010Y0032614D01*
X0096584Y0032344D01*
X0096152Y0032084D01*
X0095714Y0031835D01*
X0095270Y0031596D01*
X0090331Y0021946D02*
X0090211Y0021703D01*
X0090096Y0021456D01*
X0089987Y0021207D01*
X0089884Y0020956D01*
X0089787Y0020702D01*
X0089696Y0020445D01*
X0089611Y0020187D01*
X0089532Y0019927D01*
X0089459Y0019665D01*
X0089393Y0019402D01*
X0089332Y0019137D01*
X0089278Y0018870D01*
X0089230Y0018603D01*
X0089189Y0018334D01*
X0089153Y0018064D01*
X0089124Y0017794D01*
X0088024Y0011700D02*
X0087970Y0011312D01*
X0087918Y0010951D01*
X0087867Y0010614D01*
X0087816Y0010300D01*
X0087766Y0010008D01*
X0087715Y0009737D01*
X0087664Y0009484D01*
X0087611Y0009249D01*
X0087557Y0009031D01*
X0087500Y0008827D01*
X0087440Y0008637D01*
X0087377Y0008459D01*
X0087309Y0008291D01*
X0087237Y0008133D01*
X0087160Y0007983D01*
X0087078Y0007839D01*
X0086989Y0007700D01*
X0086894Y0007565D01*
X0086792Y0007433D01*
X0086682Y0007301D01*
X0086564Y0007169D01*
X0086437Y0007036D01*
X0086301Y0006899D01*
X0086155Y0006757D01*
X0086154Y0006757D02*
X0086045Y0006658D01*
X0085932Y0006562D01*
X0085817Y0006469D01*
X0085700Y0006379D01*
X0085580Y0006292D01*
X0085458Y0006208D01*
X0085334Y0006128D01*
X0085207Y0006050D01*
X0085079Y0005977D01*
X0084949Y0005906D01*
X0084817Y0005839D01*
X0084683Y0005776D01*
X0084548Y0005716D01*
X0084411Y0005659D01*
X0084273Y0005607D01*
X0084133Y0005558D01*
X0083993Y0005512D01*
X0083851Y0005471D01*
X0083708Y0005433D01*
X0083563Y0005399D01*
X0083419Y0005369D01*
X0083273Y0005342D01*
X0083127Y0005320D01*
X0082980Y0005301D01*
X0082833Y0005286D01*
X0082685Y0005275D01*
X0082537Y0005268D01*
X0082389Y0005265D01*
X0082242Y0005266D01*
X0082094Y0005271D01*
X0081946Y0005279D01*
X0081798Y0005292D01*
X0199041Y0044056D02*
X0201541Y0041334D01*
X0203973Y0038551D01*
X0205266Y0033414D02*
X0205518Y0032715D01*
X0205755Y0032011D01*
X0205979Y0031302D01*
X0206188Y0030589D01*
X0206383Y0029872D01*
X0129011Y0053679D02*
X0127565Y0052684D01*
X0126138Y0051661D01*
X0124730Y0050612D01*
X0117291Y0045371D02*
X0116672Y0044929D01*
X0116043Y0044500D01*
X0115405Y0044086D01*
X0114758Y0043686D01*
X0114101Y0043301D01*
X0064447Y0037946D02*
X0063932Y0038497D01*
X0063430Y0039060D01*
X0062941Y0039635D01*
X0062466Y0040221D01*
X0062005Y0040818D01*
X0061558Y0041426D01*
X0061125Y0042043D01*
X0060707Y0042671D01*
X0060304Y0043309D01*
X0060304Y0043308D02*
X0060295Y0043350D01*
X0060283Y0043391D01*
X0060267Y0043431D01*
X0060248Y0043469D01*
X0060226Y0043506D01*
X0060201Y0043541D01*
X0060173Y0043573D01*
X0060142Y0043603D01*
X0060109Y0043631D01*
X0060074Y0043656D01*
X0060037Y0043677D01*
X0059999Y0043696D01*
X0059959Y0043711D01*
X0059958Y0043712D02*
X0059864Y0043786D01*
X0059772Y0043862D01*
X0059682Y0043941D01*
X0059594Y0044023D01*
X0059508Y0044107D01*
X0059426Y0044194D01*
X0059345Y0044283D01*
X0059268Y0044374D01*
X0059193Y0044467D01*
X0059120Y0044563D01*
X0059051Y0044661D01*
X0058984Y0044760D01*
X0058920Y0044862D01*
X0053294Y0052793D02*
X0053253Y0052880D01*
X0053208Y0052966D01*
X0053161Y0053051D01*
X0053110Y0053133D01*
X0053057Y0053214D01*
X0053001Y0053293D01*
X0052942Y0053369D01*
X0052880Y0053444D01*
X0052815Y0053516D01*
X0052748Y0053586D01*
X0052679Y0053653D01*
X0052607Y0053718D01*
X0052533Y0053780D01*
X0052457Y0053839D01*
X0052456Y0053840D02*
X0052408Y0053862D01*
X0052361Y0053887D01*
X0052317Y0053915D01*
X0052274Y0053946D01*
X0052233Y0053980D01*
X0052194Y0054017D01*
X0052158Y0054056D01*
X0052124Y0054097D01*
X0052093Y0054140D01*
X0052065Y0054185D01*
X0052040Y0054232D01*
X0052019Y0054280D01*
X0052000Y0054330D01*
X0041248Y0069618D02*
X0041207Y0069699D01*
X0041164Y0069778D01*
X0041116Y0069856D01*
X0041066Y0069931D01*
X0041013Y0070005D01*
X0040957Y0070076D01*
X0040899Y0070145D01*
X0040837Y0070212D01*
X0040773Y0070276D01*
X0040706Y0070338D01*
X0040637Y0070396D01*
X0040638Y0070396D02*
X0040571Y0070452D01*
X0040508Y0070512D01*
X0040446Y0070574D01*
X0040388Y0070638D01*
X0040332Y0070706D01*
X0040280Y0070775D01*
X0040230Y0070847D01*
X0040184Y0070921D01*
X0040141Y0070996D01*
X0040101Y0071074D01*
X0040064Y0071153D01*
X0040031Y0071234D01*
X0039921Y0071445D01*
X0039806Y0071654D01*
X0039687Y0071861D01*
X0039563Y0072064D01*
X0039434Y0072265D01*
X0039301Y0072463D01*
X0039164Y0072658D01*
X0039022Y0072849D01*
X0038876Y0073038D01*
X0038725Y0073223D01*
X0027086Y0090863D02*
X0027054Y0090954D01*
X0027019Y0091043D01*
X0026979Y0091131D01*
X0026937Y0091217D01*
X0026890Y0091301D01*
X0026840Y0091383D01*
X0026787Y0091463D01*
X0026731Y0091540D01*
X0026672Y0091616D01*
X0026609Y0091689D01*
X0026544Y0091759D01*
X0026475Y0091826D01*
X0026475Y0091827D02*
X0026408Y0091893D01*
X0026344Y0091962D01*
X0026282Y0092033D01*
X0026223Y0092107D01*
X0026167Y0092182D01*
X0026114Y0092260D01*
X0026064Y0092340D01*
X0026018Y0092422D01*
X0025975Y0092506D01*
X0025935Y0092591D01*
X0025898Y0092678D01*
X0025865Y0092766D01*
X0027086Y0090863D02*
X0027176Y0090652D01*
X0027271Y0090442D01*
X0027371Y0090235D01*
X0027477Y0090031D01*
X0027587Y0089829D01*
X0027701Y0089629D01*
X0027821Y0089433D01*
X0027945Y0089239D01*
X0028073Y0089048D01*
X0028206Y0088861D01*
X0025864Y0092765D02*
X0025741Y0093070D01*
X0025610Y0093371D01*
X0025473Y0093669D01*
X0025329Y0093964D01*
X0025179Y0094256D01*
X0025022Y0094545D01*
X0024859Y0094830D01*
X0024689Y0095111D01*
X0022676Y0099131D02*
X0022531Y0099485D01*
X0022378Y0099837D01*
X0022217Y0100185D01*
X0022049Y0100529D01*
X0021873Y0100870D01*
X0021689Y0101207D01*
X0018764Y0107800D02*
X0018626Y0108060D01*
X0018494Y0108324D01*
X0018368Y0108590D01*
X0018249Y0108860D01*
X0018137Y0109132D01*
X0018031Y0109407D01*
X0017931Y0109684D01*
X0017838Y0109964D01*
X0017752Y0110246D01*
X0017673Y0110530D01*
X0017601Y0110815D01*
X0017535Y0111102D01*
X0017477Y0111391D01*
X0017425Y0111681D01*
X0017380Y0111972D01*
X0017342Y0112265D01*
X0017312Y0112558D01*
X0017288Y0112851D01*
X0017271Y0113146D01*
X0017262Y0113440D01*
X0017259Y0113735D01*
X0017264Y0114029D01*
X0017275Y0114324D01*
X0017287Y0114531D01*
X0017294Y0114739D01*
X0017297Y0114947D01*
X0017295Y0115155D01*
X0017287Y0115363D01*
X0017275Y0115570D01*
X0017258Y0115778D01*
X0017236Y0115985D01*
X0017210Y0116191D01*
X0017178Y0116396D01*
X0017142Y0116601D01*
X0017101Y0116805D01*
X0017055Y0117008D01*
X0017004Y0117209D01*
X0016949Y0117410D01*
X0016889Y0117609D01*
X0018762Y0107799D02*
X0018956Y0107409D01*
X0019140Y0107015D01*
X0019315Y0106617D01*
X0019481Y0106215D01*
X0019637Y0105809D01*
X0019638Y0105809D02*
X0019939Y0105025D01*
X0020257Y0104247D01*
X0020591Y0103476D01*
X0020941Y0102712D01*
X0021308Y0101955D01*
X0021690Y0101207D01*
X0022676Y0099131D02*
X0023145Y0098109D01*
X0023637Y0097098D01*
X0024152Y0096098D01*
X0024690Y0095111D01*
X0100417Y0034770D02*
X0101458Y0035360D01*
X0102487Y0035971D01*
X0103502Y0036605D01*
X0104504Y0037260D01*
X0105492Y0037936D01*
X0081799Y0005291D02*
X0080770Y0005304D01*
X0079741Y0005341D01*
X0078714Y0005404D01*
X0077688Y0005491D01*
X0076665Y0005602D01*
X0075645Y0005738D01*
X0088641Y0015108D02*
X0088737Y0015487D01*
X0088823Y0015867D01*
X0088901Y0016250D01*
X0088970Y0016634D01*
X0089031Y0017020D01*
X0089082Y0017407D01*
X0089125Y0017795D01*
X0066884Y0019993D02*
X0066672Y0018975D01*
X0066485Y0017952D01*
X0066322Y0016924D01*
X0066185Y0015893D01*
X0066073Y0014859D01*
X0065986Y0013822D01*
X0065924Y0012784D01*
X0066408Y0035319D02*
X0066218Y0035630D01*
X0066020Y0035937D01*
X0065815Y0036239D01*
X0065604Y0036536D01*
X0065385Y0036828D01*
X0065160Y0037116D01*
X0064929Y0037398D01*
X0064691Y0037674D01*
X0064446Y0037945D01*
X0066409Y0035320D02*
X0066408Y0035289D01*
X0066411Y0035257D01*
X0066418Y0035226D01*
X0066428Y0035196D01*
X0066441Y0035168D01*
X0066457Y0035141D01*
X0066476Y0035116D01*
X0066498Y0035093D01*
X0066522Y0035072D01*
X0066548Y0035055D01*
X0066576Y0035040D01*
X0066605Y0035028D01*
X0066636Y0035020D01*
X0066667Y0035015D01*
X0066666Y0035014D02*
X0066738Y0034956D01*
X0066807Y0034895D01*
X0066873Y0034832D01*
X0066936Y0034765D01*
X0066997Y0034696D01*
X0067054Y0034624D01*
X0067109Y0034550D01*
X0067160Y0034474D01*
X0067207Y0034395D01*
X0067252Y0034315D01*
X0067293Y0034232D01*
X0067330Y0034148D01*
X0067364Y0034063D01*
X0067394Y0033976D01*
X0090331Y0021947D02*
X0090597Y0022424D01*
X0090852Y0022907D01*
X0091095Y0023395D01*
X0091326Y0023890D01*
X0091546Y0024390D01*
X0091753Y0024895D01*
X0091948Y0025405D01*
X0092131Y0025919D01*
X0092301Y0026438D01*
X0092459Y0026960D01*
X0097843Y0033183D02*
X0098256Y0033473D01*
X0098675Y0033753D01*
X0099101Y0034022D01*
X0099534Y0034282D01*
X0099972Y0034532D01*
X0100416Y0034771D01*
X0088641Y0015108D02*
X0088508Y0014546D01*
X0088387Y0013981D01*
X0088278Y0013414D01*
X0088181Y0012844D01*
X0088097Y0012273D01*
X0088024Y0011700D01*
X0067873Y0029397D02*
X0067900Y0029653D01*
X0067920Y0029910D01*
X0067934Y0030168D01*
X0067942Y0030425D01*
X0067944Y0030683D01*
X0067939Y0030941D01*
X0067928Y0031199D01*
X0067910Y0031456D01*
X0067887Y0031713D01*
X0067857Y0031969D01*
X0067821Y0032224D01*
X0067778Y0032479D01*
X0067730Y0032732D01*
X0067675Y0032984D01*
X0067614Y0033235D01*
X0067547Y0033484D01*
X0067473Y0033731D01*
X0067394Y0033976D01*
X0046388Y0062126D02*
X0046163Y0062504D01*
X0045929Y0062876D01*
X0045686Y0063243D01*
X0045435Y0063604D01*
X0045176Y0063958D01*
X0034657Y0078873D02*
X0034194Y0079624D01*
X0033715Y0080363D01*
X0033219Y0081093D01*
X0032708Y0081811D01*
X0030043Y0085885D02*
X0029450Y0086889D01*
X0028838Y0087881D01*
X0028206Y0088861D01*
X0026521Y0179081D02*
X0027614Y0180324D01*
X0028734Y0181543D01*
X0029881Y0182736D01*
X0031054Y0183904D01*
X0035895Y0188406D02*
X0035961Y0188428D01*
X0036026Y0188453D01*
X0036090Y0188482D01*
X0036153Y0188514D01*
X0036213Y0188550D01*
X0036271Y0188588D01*
X0036328Y0188630D01*
X0036382Y0188674D01*
X0036433Y0188722D01*
X0036482Y0188772D01*
X0036528Y0188824D01*
X0036572Y0188879D01*
X0036669Y0188976D01*
X0036767Y0189070D01*
X0036869Y0189161D01*
X0036972Y0189250D01*
X0037078Y0189336D01*
X0037186Y0189420D01*
X0037296Y0189501D01*
X0037408Y0189578D01*
X0037522Y0189654D01*
X0037637Y0189726D01*
X0037755Y0189795D01*
X0043381Y0193305D02*
X0043473Y0193338D01*
X0043564Y0193376D01*
X0043654Y0193416D01*
X0043742Y0193460D01*
X0043828Y0193507D01*
X0043913Y0193557D01*
X0043996Y0193610D01*
X0044076Y0193666D01*
X0044155Y0193725D01*
X0044231Y0193787D01*
X0044306Y0193852D01*
X0048824Y0196243D02*
X0049027Y0196365D01*
X0049234Y0196483D01*
X0049443Y0196596D01*
X0049655Y0196705D01*
X0049869Y0196809D01*
X0050085Y0196907D01*
X0050303Y0197001D01*
X0055258Y0200618D02*
X0055365Y0200690D01*
X0055470Y0200763D01*
X0055574Y0200840D01*
X0055675Y0200919D01*
X0055775Y0201001D01*
X0055872Y0201085D01*
X0055968Y0201171D01*
X0056061Y0201260D01*
X0056152Y0201351D01*
X0056151Y0201352D02*
X0056227Y0201429D01*
X0056305Y0201505D01*
X0056386Y0201577D01*
X0056469Y0201646D01*
X0056555Y0201713D01*
X0056644Y0201776D01*
X0056734Y0201836D01*
X0056826Y0201893D01*
X0056921Y0201946D01*
X0057017Y0201996D01*
X0057115Y0202042D01*
X0057215Y0202085D01*
X0057394Y0202152D01*
X0057570Y0202223D01*
X0057745Y0202298D01*
X0057917Y0202377D01*
X0058088Y0202461D01*
X0058257Y0202548D01*
X0058424Y0202640D01*
X0058588Y0202736D01*
X0058750Y0202835D01*
X0058910Y0202939D01*
X0065677Y0205377D02*
X0065830Y0205406D01*
X0065982Y0205438D01*
X0066134Y0205474D01*
X0066284Y0205513D01*
X0066434Y0205556D01*
X0066582Y0205602D01*
X0066730Y0205652D01*
X0066876Y0205704D01*
X0067021Y0205761D01*
X0053405Y0199117D02*
X0053117Y0198875D01*
X0052824Y0198639D01*
X0052526Y0198409D01*
X0052223Y0198187D01*
X0051915Y0197971D01*
X0051601Y0197762D01*
X0051284Y0197561D01*
X0050961Y0197367D01*
X0050635Y0197180D01*
X0050304Y0197001D01*
X0160582Y0081459D02*
X0158522Y0079231D01*
X0156418Y0077044D01*
X0154272Y0074900D01*
X0165280Y0081734D02*
X0165745Y0080961D01*
X0166229Y0080200D01*
X0166732Y0079450D01*
X0167253Y0078714D01*
X0167792Y0077990D01*
X0168348Y0077280D01*
X0168922Y0076583D01*
X0169512Y0075901D01*
X0170119Y0075234D01*
X0170742Y0074581D01*
X0171380Y0073944D01*
X0269750Y0215546D02*
X0272135Y0214415D01*
X0274498Y0213240D01*
X0276838Y0212020D01*
X0279155Y0210757D01*
X0279156Y0210758D02*
X0279488Y0210536D01*
X0279825Y0210323D01*
X0280167Y0210117D01*
X0280514Y0209920D01*
X0280865Y0209731D01*
X0263156Y0217736D02*
X0262727Y0217863D01*
X0262295Y0217981D01*
X0261861Y0218090D01*
X0261424Y0218190D01*
X0260986Y0218281D01*
X0260545Y0218362D01*
X0260103Y0218434D01*
X0263156Y0217736D02*
X0263498Y0217608D01*
X0263843Y0217486D01*
X0264189Y0217373D01*
X0264539Y0217266D01*
X0264890Y0217167D01*
X0265244Y0217076D01*
X0265599Y0216992D01*
X0260103Y0218434D02*
X0259625Y0218483D01*
X0259148Y0218544D01*
X0258672Y0218616D01*
X0258199Y0218699D01*
X0257727Y0218794D01*
X0257258Y0218899D01*
X0256792Y0219016D01*
X0256328Y0219144D01*
X0255868Y0219282D01*
X0255411Y0219432D01*
X0254958Y0219592D01*
X0254508Y0219763D01*
X0244541Y0219996D02*
X0234565Y0220030D01*
X0224588Y0220037D01*
X0195010Y0220037D01*
X0192445Y0219460D01*
X0185980Y0217730D02*
X0185330Y0217476D01*
X0184674Y0217237D01*
X0184013Y0217014D01*
X0183346Y0216807D01*
X0182674Y0216616D01*
X0179133Y0215405D02*
X0178816Y0215246D01*
X0178495Y0215095D01*
X0178170Y0214950D01*
X0177843Y0214813D01*
X0177512Y0214683D01*
X0177179Y0214559D01*
X0168269Y0210048D02*
X0168107Y0209934D01*
X0167943Y0209824D01*
X0167776Y0209718D01*
X0167606Y0209616D01*
X0167435Y0209518D01*
X0167260Y0209424D01*
X0167084Y0209334D01*
X0166906Y0209248D01*
X0166725Y0209167D01*
X0159067Y0203794D02*
X0159011Y0203768D01*
X0158957Y0203738D01*
X0158905Y0203706D01*
X0158855Y0203671D01*
X0158807Y0203632D01*
X0158762Y0203591D01*
X0158718Y0203548D01*
X0158678Y0203502D01*
X0158640Y0203453D01*
X0158605Y0203403D01*
X0158573Y0203351D01*
X0158545Y0203297D01*
X0158545Y0203296D02*
X0158492Y0203224D01*
X0158435Y0203155D01*
X0158375Y0203087D01*
X0158313Y0203023D01*
X0158247Y0202961D01*
X0158180Y0202902D01*
X0158110Y0202845D01*
X0158037Y0202792D01*
X0157962Y0202742D01*
X0157886Y0202695D01*
X0157807Y0202652D01*
X0157726Y0202611D01*
X0157644Y0202575D01*
X0157645Y0202574D02*
X0157557Y0202529D01*
X0157472Y0202481D01*
X0157388Y0202429D01*
X0157306Y0202374D01*
X0157227Y0202316D01*
X0157150Y0202255D01*
X0157076Y0202191D01*
X0157004Y0202124D01*
X0156935Y0202054D01*
X0156868Y0201981D01*
X0156805Y0201906D01*
X0156744Y0201829D01*
X0156687Y0201749D01*
X0156632Y0201667D01*
X0150506Y0194531D02*
X0150339Y0194605D01*
X0150174Y0194683D01*
X0150011Y0194765D01*
X0149850Y0194850D01*
X0149691Y0194939D01*
X0149534Y0195032D01*
X0149380Y0195128D01*
X0149227Y0195227D01*
X0149077Y0195330D01*
X0148929Y0195437D01*
X0148783Y0195547D01*
X0134062Y0202811D02*
X0133962Y0202848D01*
X0133864Y0202888D01*
X0133767Y0202931D01*
X0133672Y0202977D01*
X0133578Y0203027D01*
X0133486Y0203079D01*
X0133396Y0203135D01*
X0133308Y0203194D01*
X0133221Y0203255D01*
X0133137Y0203320D01*
X0133055Y0203387D01*
X0129320Y0203740D02*
X0128940Y0203754D01*
X0128585Y0203767D01*
X0128256Y0203780D01*
X0127951Y0203793D01*
X0127670Y0203807D01*
X0127409Y0203821D01*
X0127170Y0203836D01*
X0126949Y0203852D01*
X0126747Y0203869D01*
X0126562Y0203887D01*
X0126393Y0203907D01*
X0126238Y0203928D01*
X0126097Y0203951D01*
X0125968Y0203976D01*
X0125850Y0204003D01*
X0125742Y0204033D01*
X0125643Y0204065D01*
X0125551Y0204100D01*
X0125466Y0204137D01*
X0125385Y0204178D01*
X0125309Y0204222D01*
X0125235Y0204269D01*
X0125163Y0204320D01*
X0125092Y0204374D01*
X0121367Y0206551D02*
X0121246Y0206609D01*
X0121127Y0206663D01*
X0121009Y0206714D01*
X0120889Y0206760D01*
X0120766Y0206803D01*
X0120639Y0206843D01*
X0120506Y0206879D01*
X0120364Y0206913D01*
X0120213Y0206944D01*
X0120051Y0206972D01*
X0119875Y0206998D01*
X0119685Y0207022D01*
X0119478Y0207044D01*
X0119253Y0207065D01*
X0119008Y0207083D01*
X0118741Y0207100D01*
X0118451Y0207117D01*
X0118136Y0207132D01*
X0117795Y0207146D01*
X0117425Y0207160D01*
X0117025Y0207173D01*
X0116593Y0207187D01*
X0116128Y0207200D01*
X0115627Y0207213D01*
X0115078Y0207228D01*
X0114573Y0207242D01*
X0114110Y0207255D01*
X0113687Y0207268D01*
X0113300Y0207282D01*
X0112948Y0207296D01*
X0112627Y0207311D01*
X0112336Y0207328D01*
X0112072Y0207346D01*
X0111833Y0207366D01*
X0111615Y0207389D01*
X0111417Y0207414D01*
X0111235Y0207442D01*
X0111069Y0207474D01*
X0110914Y0207510D01*
X0110769Y0207550D01*
X0110631Y0207594D01*
X0110497Y0207643D01*
X0110365Y0207698D01*
X0110233Y0207758D01*
X0110098Y0207824D01*
X0109958Y0207896D01*
X0109810Y0207975D01*
X0109651Y0208060D01*
X0109495Y0208145D01*
X0109349Y0208222D01*
X0109210Y0208293D01*
X0109077Y0208358D01*
X0108947Y0208417D01*
X0108819Y0208471D01*
X0108690Y0208520D01*
X0108559Y0208564D01*
X0108422Y0208604D01*
X0108279Y0208639D01*
X0108127Y0208671D01*
X0107965Y0208699D01*
X0107789Y0208724D01*
X0107598Y0208747D01*
X0107391Y0208766D01*
X0107164Y0208784D01*
X0106917Y0208800D01*
X0106646Y0208814D01*
X0106350Y0208827D01*
X0106027Y0208839D01*
X0105675Y0208850D01*
X0105291Y0208861D01*
X0104874Y0208873D01*
X0104422Y0208884D01*
X0103945Y0208895D01*
X0103485Y0208902D01*
X0103041Y0208905D01*
X0102613Y0208904D01*
X0102201Y0208899D01*
X0101805Y0208891D01*
X0101425Y0208879D01*
X0101062Y0208863D01*
X0100715Y0208844D01*
X0100384Y0208820D01*
X0100069Y0208793D01*
X0099770Y0208763D01*
X0099488Y0208728D01*
X0099222Y0208690D01*
X0098972Y0208648D01*
X0098738Y0208602D01*
X0098521Y0208553D01*
X0098320Y0208500D01*
X0098135Y0208443D01*
X0097966Y0208382D01*
X0097814Y0208318D01*
X0097678Y0208250D01*
X0097558Y0208178D01*
X0097454Y0208102D01*
X0096221Y0207957D01*
X0094985Y0207839D01*
X0093747Y0207749D01*
X0092507Y0207686D01*
X0091266Y0207651D01*
X0090025Y0207644D01*
X0088783Y0207664D01*
X0078867Y0207109D02*
X0077580Y0206902D01*
X0076288Y0206722D01*
X0074993Y0206571D01*
X0073695Y0206447D01*
X0072394Y0206353D01*
X0171073Y0211650D02*
X0174126Y0213192D01*
X0161267Y0205331D02*
X0160970Y0205089D01*
X0160666Y0204854D01*
X0160357Y0204626D01*
X0160042Y0204407D01*
X0159722Y0204194D01*
X0159397Y0203990D01*
X0159067Y0203794D01*
X0156631Y0201667D02*
X0156442Y0201414D01*
X0156248Y0201165D01*
X0156048Y0200920D01*
X0155842Y0200679D01*
X0155632Y0200443D01*
X0155416Y0200212D01*
X0155195Y0199985D01*
X0154970Y0199764D01*
X0139960Y0199632D02*
X0139756Y0199677D01*
X0139554Y0199726D01*
X0139352Y0199779D01*
X0139152Y0199838D01*
X0138954Y0199902D01*
X0138757Y0199970D01*
X0138561Y0200043D01*
X0138368Y0200120D01*
X0138176Y0200203D01*
X0137987Y0200289D01*
X0137800Y0200380D01*
X0137614Y0200476D01*
X0137432Y0200576D01*
X0137251Y0200681D01*
X0137073Y0200790D01*
X0136898Y0200903D01*
X0136726Y0201020D01*
X0136556Y0201141D01*
X0136390Y0201266D01*
X0136226Y0201395D01*
X0136227Y0201396D02*
X0136026Y0201560D01*
X0135821Y0201718D01*
X0135612Y0201872D01*
X0135401Y0202022D01*
X0135185Y0202166D01*
X0134967Y0202305D01*
X0134745Y0202440D01*
X0134520Y0202569D01*
X0134293Y0202693D01*
X0134062Y0202812D01*
X0133056Y0203388D02*
X0132646Y0203467D01*
X0132234Y0203537D01*
X0131820Y0203597D01*
X0131405Y0203646D01*
X0130990Y0203686D01*
X0130573Y0203715D01*
X0130156Y0203734D01*
X0129738Y0203742D01*
X0129320Y0203741D01*
X0125091Y0204374D02*
X0124648Y0204683D01*
X0124199Y0204982D01*
X0123742Y0205270D01*
X0123279Y0205548D01*
X0122810Y0205815D01*
X0122335Y0206071D01*
X0121853Y0206317D01*
X0121367Y0206551D01*
X0065677Y0205378D02*
X0065039Y0205229D01*
X0064404Y0205065D01*
X0063773Y0204886D01*
X0063146Y0204693D01*
X0062524Y0204485D01*
X0061907Y0204262D01*
X0061295Y0204026D01*
X0060690Y0203775D01*
X0060090Y0203510D01*
X0059496Y0203231D01*
X0058909Y0202938D01*
X0048824Y0196243D02*
X0048394Y0196000D01*
X0047960Y0195766D01*
X0047520Y0195542D01*
X0047075Y0195328D01*
X0046626Y0195123D01*
X0046625Y0195123D02*
X0046322Y0194989D01*
X0046023Y0194848D01*
X0045727Y0194699D01*
X0045434Y0194544D01*
X0045146Y0194381D01*
X0044861Y0194211D01*
X0044581Y0194035D01*
X0044305Y0193852D01*
X0053404Y0199118D02*
X0053761Y0199435D01*
X0054125Y0199743D01*
X0054496Y0200043D01*
X0054874Y0200335D01*
X0055257Y0200619D01*
X0043381Y0193305D02*
X0042904Y0193056D01*
X0042433Y0192796D01*
X0041968Y0192525D01*
X0041511Y0192242D01*
X0041060Y0191949D01*
X0040616Y0191645D01*
X0022063Y0172228D02*
X0022042Y0172154D01*
X0022018Y0172082D01*
X0021991Y0172010D01*
X0021961Y0171940D01*
X0021927Y0171871D01*
X0021891Y0171803D01*
X0021851Y0171738D01*
X0021808Y0171674D01*
X0021763Y0171612D01*
X0021715Y0171552D01*
X0019513Y0166755D02*
X0019517Y0166723D01*
X0019518Y0166691D01*
X0019515Y0166659D01*
X0019509Y0166627D01*
X0019499Y0166597D01*
X0019486Y0166567D01*
X0019470Y0166539D01*
X0019450Y0166513D01*
X0019428Y0166490D01*
X0019404Y0166469D01*
X0019378Y0166450D01*
X0019349Y0166435D01*
X0019319Y0166423D01*
X0019320Y0166423D02*
X0019264Y0166364D01*
X0019212Y0166304D01*
X0019162Y0166240D01*
X0019116Y0166175D01*
X0019072Y0166107D01*
X0019032Y0166037D01*
X0018995Y0165965D01*
X0018962Y0165892D01*
X0018932Y0165817D01*
X0018906Y0165741D01*
X0018883Y0165664D01*
X0018864Y0165586D01*
X0018849Y0165507D01*
X0018032Y0162881D02*
X0017974Y0162692D01*
X0017919Y0162507D01*
X0017869Y0162323D01*
X0017822Y0162138D01*
X0017779Y0161949D01*
X0017739Y0161753D01*
X0017702Y0161548D01*
X0017667Y0161332D01*
X0017636Y0161100D01*
X0017607Y0160851D01*
X0017580Y0160582D01*
X0017555Y0160290D01*
X0017533Y0159973D01*
X0017511Y0159628D01*
X0017491Y0159252D01*
X0017472Y0158842D01*
X0017455Y0158396D01*
X0017438Y0157912D01*
X0017421Y0157385D01*
X0017405Y0156815D01*
X0017389Y0156197D01*
X0017373Y0155530D01*
X0017356Y0154810D01*
X0017339Y0154036D01*
X0017339Y0154035D02*
X0017369Y0153206D01*
X0017378Y0152377D01*
X0017367Y0151547D01*
X0017337Y0150718D01*
X0017286Y0149890D01*
X0017215Y0149064D01*
X0017125Y0148239D01*
X0017014Y0147417D01*
X0016884Y0146598D01*
X0019514Y0166755D02*
X0019741Y0167376D01*
X0019982Y0167991D01*
X0020237Y0168600D01*
X0020505Y0169204D01*
X0020788Y0169801D01*
X0021084Y0170392D01*
X0021393Y0170975D01*
X0021716Y0171552D01*
X0031054Y0183904D02*
X0031815Y0184702D01*
X0032595Y0185481D01*
X0033393Y0186242D01*
X0034210Y0186983D01*
X0035044Y0187704D01*
X0035894Y0188406D01*
X0067021Y0205761D02*
X0068089Y0205931D01*
X0069162Y0206076D01*
X0070237Y0206194D01*
X0071315Y0206287D01*
X0072395Y0206354D01*
X0139961Y0199633D02*
X0140631Y0199440D01*
X0141296Y0199230D01*
X0141957Y0199005D01*
X0142612Y0198765D01*
X0143261Y0198510D01*
X0143904Y0198239D01*
X0144540Y0197953D01*
X0145170Y0197653D01*
X0145792Y0197337D01*
X0146407Y0197008D01*
X0147014Y0196663D01*
X0147612Y0196305D01*
X0148202Y0195933D01*
X0148784Y0195547D01*
X0304102Y0113786D02*
X0302793Y0111031D01*
X0301427Y0108303D01*
X0300004Y0105604D01*
X0306905Y0120108D02*
X0306998Y0120394D01*
X0307098Y0120679D01*
X0307204Y0120961D01*
X0307317Y0121240D01*
X0307437Y0121517D01*
X0307563Y0121791D01*
X0307696Y0122062D01*
X0016573Y0127266D02*
X0016572Y0136941D01*
X0129011Y0053679D02*
X0130736Y0054898D01*
X0132435Y0056151D01*
X0134110Y0057439D01*
X0055951Y0048934D02*
X0055387Y0049683D01*
X0054839Y0050443D01*
X0054307Y0051215D01*
X0053792Y0051998D01*
X0053294Y0052792D01*
X0051999Y0054330D02*
X0051505Y0055098D01*
X0050993Y0055855D01*
X0050463Y0056598D01*
X0049915Y0057329D01*
X0049349Y0058046D01*
X0067872Y0029397D02*
X0067872Y0028449D01*
X0067850Y0027502D01*
X0067805Y0026555D01*
X0067739Y0025610D01*
X0067651Y0024666D01*
X0067540Y0023725D01*
X0067408Y0022787D01*
X0067255Y0021851D01*
X0067079Y0020920D01*
X0066882Y0019993D01*
X0105491Y0037936D02*
X0106334Y0038447D01*
X0107189Y0038939D01*
X0108056Y0039409D01*
X0117291Y0045371D02*
X0118189Y0046009D01*
X0119101Y0046628D01*
X0120026Y0047227D01*
X0049350Y0058046D02*
X0048580Y0059045D01*
X0047830Y0060058D01*
X0047099Y0061086D01*
X0046388Y0062127D01*
X0045176Y0063959D02*
X0044343Y0065057D01*
X0043534Y0066172D01*
X0042748Y0067304D01*
X0041986Y0068453D01*
X0041249Y0069618D01*
X0140841Y0062639D02*
X0141880Y0063419D01*
X0142902Y0064223D01*
X0143905Y0065050D01*
X0144889Y0065899D01*
X0145854Y0066771D01*
X0146798Y0067664D01*
X0147722Y0068579D01*
X0038725Y0073223D02*
X0037662Y0074602D01*
X0036629Y0076004D01*
X0035627Y0077428D01*
X0034657Y0078874D01*
X0032709Y0081812D02*
X0031789Y0083149D01*
X0030900Y0084507D01*
X0030044Y0085885D01*
X0016888Y0117609D02*
X0016742Y0119537D01*
X0016637Y0121467D01*
X0016574Y0123399D01*
X0016553Y0125333D01*
X0016573Y0127266D01*
X0022063Y0172228D02*
X0022736Y0173414D01*
X0023437Y0174584D01*
X0024167Y0175736D01*
X0024925Y0176870D01*
X0025710Y0177985D01*
X0026522Y0179081D01*
X0078867Y0207110D02*
X0080276Y0207290D01*
X0081689Y0207437D01*
X0083105Y0207549D01*
X0084523Y0207629D01*
X0085943Y0207674D01*
X0087363Y0207686D01*
X0088784Y0207663D01*
X0266482Y0061425D02*
X0268318Y0063454D01*
X0270119Y0065516D01*
X0271884Y0067608D01*
X0288805Y0087652D02*
X0289121Y0088240D01*
X0289449Y0088821D01*
X0289789Y0089395D01*
X0290142Y0089961D01*
X0290507Y0090520D01*
X0290884Y0091071D01*
X0290883Y0091071D02*
X0291181Y0091474D01*
X0291470Y0091883D01*
X0291750Y0092299D01*
X0292021Y0092720D01*
X0292282Y0093148D01*
X0288805Y0087651D02*
X0288514Y0087103D01*
X0288210Y0086562D01*
X0287893Y0086029D01*
X0287563Y0085503D01*
X0287221Y0084985D01*
X0286866Y0084476D01*
X0286867Y0084476D02*
X0286315Y0083755D01*
X0285779Y0083022D01*
X0285259Y0082278D01*
X0296784Y0100194D02*
X0297144Y0100824D01*
X0297517Y0101448D01*
X0297901Y0102064D01*
X0298297Y0102673D01*
X0298296Y0102673D02*
X0298749Y0103391D01*
X0299184Y0104119D01*
X0299603Y0104857D01*
X0300004Y0105604D01*
X0308662Y0124656D02*
X0308788Y0125051D01*
X0308904Y0125448D01*
X0309010Y0125848D01*
X0309108Y0126250D01*
X0309195Y0126655D01*
X0309273Y0127062D01*
X0309342Y0127470D01*
X0309401Y0127880D01*
X0309450Y0128291D01*
X0309489Y0128703D01*
X0309519Y0129116D01*
X0309539Y0129529D01*
X0309549Y0129943D01*
X0309549Y0130357D01*
X0309539Y0130771D01*
X0309520Y0131185D01*
X0309491Y0131598D01*
X0309872Y0136320D02*
X0309913Y0136351D01*
X0309952Y0136385D01*
X0309988Y0136422D01*
X0310021Y0136461D01*
X0310051Y0136502D01*
X0310079Y0136546D01*
X0310103Y0136591D01*
X0310124Y0136638D01*
X0310142Y0136686D01*
X0310157Y0136735D01*
X0310167Y0136786D01*
X0310175Y0136837D01*
X0310178Y0136888D01*
X0310179Y0136939D01*
X0310175Y0136991D01*
X0310175Y0136990D02*
X0310171Y0137042D01*
X0310172Y0137093D01*
X0310175Y0137145D01*
X0310183Y0137196D01*
X0310194Y0137246D01*
X0310208Y0137296D01*
X0310226Y0137344D01*
X0310248Y0137391D01*
X0310272Y0137436D01*
X0310300Y0137480D01*
X0310331Y0137521D01*
X0310364Y0137560D01*
X0310400Y0137597D01*
X0310439Y0137631D01*
X0310480Y0137662D01*
X0310771Y0144883D02*
X0310786Y0152134D01*
X0310771Y0159385D01*
X0310481Y0166605D02*
X0310440Y0166635D01*
X0310402Y0166667D01*
X0310366Y0166701D01*
X0310333Y0166738D01*
X0310303Y0166778D01*
X0310275Y0166819D01*
X0310250Y0166863D01*
X0310229Y0166908D01*
X0310211Y0166954D01*
X0310196Y0167002D01*
X0310185Y0167051D01*
X0310177Y0167100D01*
X0310173Y0167150D01*
X0310172Y0167199D01*
X0310175Y0167249D01*
X0310172Y0167320D01*
X0310166Y0167390D01*
X0310156Y0167460D01*
X0310143Y0167529D01*
X0310126Y0167597D01*
X0310106Y0167665D01*
X0310082Y0167731D01*
X0310054Y0167796D01*
X0310024Y0167860D01*
X0309990Y0167921D01*
X0309953Y0167981D01*
X0309913Y0168039D01*
X0309870Y0168095D01*
X0184764Y0059019D02*
X0182538Y0061405D01*
X0180361Y0063837D01*
X0281243Y0077652D02*
X0281955Y0078385D01*
X0282651Y0079133D01*
X0283329Y0079897D01*
X0283990Y0080676D01*
X0284634Y0081469D01*
X0285259Y0082277D01*
X0292283Y0093147D02*
X0292964Y0094247D01*
X0293667Y0095334D01*
X0294390Y0096407D01*
X0304103Y0113786D02*
X0304830Y0115382D01*
X0305592Y0116961D01*
X0307697Y0122062D02*
X0307883Y0122484D01*
X0308059Y0122911D01*
X0308225Y0123342D01*
X0308381Y0123776D01*
X0308527Y0124215D01*
X0308663Y0124656D01*
X0309492Y0131597D02*
X0309463Y0131894D01*
X0309442Y0132191D01*
X0309428Y0132488D01*
X0309420Y0132786D01*
X0309420Y0133084D01*
X0309426Y0133382D01*
X0309440Y0133679D01*
X0309460Y0133976D01*
X0309488Y0134273D01*
X0309522Y0134569D01*
X0309563Y0134864D01*
X0309612Y0135158D01*
X0309667Y0135450D01*
X0309729Y0135742D01*
X0309797Y0136031D01*
X0309873Y0136319D01*
X0306905Y0120107D02*
X0306671Y0119467D01*
X0306423Y0118831D01*
X0306160Y0118202D01*
X0305883Y0117579D01*
X0305592Y0116962D01*
X0310481Y0137662D02*
X0310591Y0138459D01*
X0310682Y0139258D01*
X0310753Y0140060D01*
X0310805Y0140862D01*
X0310837Y0141666D01*
X0310850Y0142471D01*
X0310843Y0143275D01*
X0310817Y0144079D01*
X0310771Y0144883D01*
X0310771Y0159384D02*
X0310817Y0160188D01*
X0310843Y0160992D01*
X0310850Y0161796D01*
X0310837Y0162601D01*
X0310805Y0163405D01*
X0310753Y0164208D01*
X0310682Y0165009D01*
X0310591Y0165809D01*
X0310481Y0166606D01*
X0309871Y0168096D02*
X0309789Y0168416D01*
X0309716Y0168739D01*
X0309650Y0169064D01*
X0309592Y0169389D01*
X0309543Y0169717D01*
X0309500Y0170045D01*
X0309466Y0170374D01*
X0309440Y0170704D01*
X0309422Y0171035D01*
X0309412Y0171365D01*
X0309409Y0171696D01*
X0309415Y0172027D01*
X0309428Y0172358D01*
X0307001Y0181567D02*
X0306952Y0181719D01*
X0306899Y0181870D01*
X0306843Y0182020D01*
X0306783Y0182168D01*
X0306720Y0182315D01*
X0306653Y0182460D01*
X0306582Y0182603D01*
X0306508Y0182745D01*
X0306431Y0182885D01*
X0306351Y0183023D01*
X0306267Y0183159D01*
X0306179Y0183293D01*
X0307000Y0181567D02*
X0307026Y0181459D01*
X0307055Y0181351D01*
X0307088Y0181245D01*
X0307124Y0181139D01*
X0307163Y0181035D01*
X0307205Y0180932D01*
X0307250Y0180830D01*
X0307299Y0180730D01*
X0307350Y0180632D01*
X0307405Y0180535D01*
X0307463Y0180439D01*
X0307523Y0180346D01*
X0307523Y0180345D02*
X0307691Y0180057D01*
X0307852Y0179765D01*
X0308005Y0179469D01*
X0308152Y0179169D01*
X0308291Y0178865D01*
X0308422Y0178559D01*
X0308546Y0178249D01*
X0308663Y0177937D01*
X0308772Y0177621D01*
X0308873Y0177303D01*
X0308966Y0176983D01*
X0309051Y0176660D01*
X0309129Y0176336D01*
X0309198Y0176009D01*
X0309259Y0175681D01*
X0309313Y0175352D01*
X0309358Y0175022D01*
X0309395Y0174690D01*
X0309425Y0174358D01*
X0309445Y0174025D01*
X0309458Y0173691D01*
X0309463Y0173358D01*
X0309459Y0173024D01*
X0309448Y0172691D01*
X0309428Y0172358D01*
X0300022Y0192925D02*
X0299913Y0193057D01*
X0299808Y0193191D01*
X0299705Y0193328D01*
X0299606Y0193467D01*
X0299509Y0193608D01*
X0299416Y0193751D01*
X0299326Y0193896D01*
X0299239Y0194043D01*
X0299155Y0194192D01*
X0293452Y0200696D02*
X0292833Y0201285D01*
X0292201Y0201860D01*
X0291557Y0202422D01*
X0290902Y0202970D01*
X0290234Y0203503D01*
X0289555Y0204022D01*
X0288865Y0204527D01*
X0269749Y0215546D02*
X0269073Y0215828D01*
X0268389Y0216094D01*
X0267700Y0216343D01*
X0267005Y0216576D01*
X0266304Y0216792D01*
X0265599Y0216991D01*
X0285463Y0206766D02*
X0286297Y0206181D01*
X0287142Y0205613D01*
X0287999Y0205062D01*
X0288866Y0204527D01*
X0304360Y0186516D02*
X0305253Y0184895D01*
X0306179Y0183293D01*
X0299155Y0194192D02*
X0298588Y0194970D01*
X0298003Y0195735D01*
X0297401Y0196486D01*
X0296783Y0197224D01*
X0296148Y0197948D01*
X0295498Y0198658D01*
X0294831Y0199352D01*
X0294150Y0200032D01*
X0293453Y0200697D01*
X0184764Y0059018D02*
X0189270Y0054294D01*
X0244540Y0219996D02*
X0247034Y0220026D01*
X0249527Y0219997D01*
X0252019Y0219910D01*
X0254509Y0219763D01*
X0192445Y0219459D02*
X0191506Y0219276D01*
X0190571Y0219070D01*
X0189642Y0218844D01*
X0188717Y0218597D01*
X0187799Y0218329D01*
X0186886Y0218040D01*
X0185981Y0217730D01*
X0182675Y0216616D02*
X0181955Y0216408D01*
X0181241Y0216182D01*
X0180532Y0215940D01*
X0179829Y0215681D01*
X0179133Y0215404D01*
X0171073Y0211649D02*
X0170499Y0211352D01*
X0169931Y0211044D01*
X0169370Y0210724D01*
X0168816Y0210392D01*
X0168269Y0210048D01*
X0174126Y0213191D02*
X0174726Y0213489D01*
X0175331Y0213775D01*
X0175942Y0214049D01*
X0176558Y0214311D01*
X0177179Y0214560D01*
X0166726Y0209167D02*
X0165912Y0208671D01*
X0165108Y0208157D01*
X0164316Y0207625D01*
X0163535Y0207077D01*
X0162767Y0206511D01*
X0162011Y0205929D01*
X0161268Y0205331D01*
X0154970Y0199764D02*
X0154036Y0198753D01*
X0153122Y0197724D01*
X0152229Y0196677D01*
X0151357Y0195612D01*
X0150506Y0194531D01*
X0016884Y0146598D02*
X0016738Y0144670D01*
X0016634Y0142740D01*
X0016572Y0140807D01*
X0016551Y0138874D01*
X0016572Y0136941D01*
X0037755Y0189795D02*
X0038719Y0190395D01*
X0039673Y0191012D01*
X0040616Y0191644D01*
X0277000Y0073227D02*
X0281243Y0077652D01*
X0294390Y0096407D02*
X0295217Y0097651D01*
X0296016Y0098913D01*
X0296785Y0100193D01*
X0285462Y0206765D02*
X0283954Y0207791D01*
X0282421Y0208779D01*
X0280865Y0209730D01*
X0176181Y0068722D02*
X0178393Y0066157D01*
X0241147Y0026828D02*
X0240599Y0025550D01*
X0240074Y0024263D01*
X0249124Y0042508D02*
X0250294Y0043943D01*
X0251496Y0045352D01*
X0252729Y0046732D01*
X0253994Y0048085D01*
X0255288Y0049409D01*
X0271883Y0067609D02*
X0273549Y0069516D01*
X0275255Y0071389D01*
X0276999Y0073227D01*
X0304360Y0186516D02*
X0303804Y0187473D01*
X0303226Y0188417D01*
X0302627Y0189347D01*
X0302006Y0190264D01*
X0301365Y0191166D01*
X0300703Y0192053D01*
X0300022Y0192925D01*
X0194766Y0048552D02*
X0199040Y0044057D01*
X0058920Y0044862D02*
X0057450Y0046909D01*
X0055951Y0048935D01*
X0189270Y0054295D02*
X0194766Y0048551D01*
X0154271Y0074901D02*
X0151018Y0071717D01*
X0147722Y0068579D01*
X0018032Y0162882D02*
X0018849Y0165507D01*
X0260900Y0055403D02*
X0266482Y0061426D01*
M02*
