G75*
%MOIN*%
%OFA0B0*%
%FSLAX25Y25*%
%IPPOS*%
%LPD*%
%AMOC8*
5,1,8,0,0,1.08239X$1,22.5*
%
%ADD10OC8,0.07600*%
%ADD11C,0.08200*%
%ADD12OC8,0.06000*%
%ADD13OC8,0.15800*%
%ADD14C,0.63800*%
%ADD15C,0.00500*%
%ADD16C,0.03600*%
%ADD17C,0.05156*%
D10*
X0051500Y0151500D03*
X0061500Y0151500D03*
X0071500Y0151500D03*
X0081500Y0151500D03*
X0081500Y0181500D03*
X0071500Y0181500D03*
X0061500Y0181500D03*
X0051500Y0181500D03*
D11*
X0134000Y0146500D03*
X0134000Y0116500D03*
X0137107Y0087107D03*
X0115893Y0065893D03*
X0071000Y0068500D03*
X0071000Y0098500D03*
X0220500Y0083000D03*
X0220500Y0053000D03*
D12*
X0076500Y0039500D03*
X0086500Y0039500D03*
X0220750Y0035500D03*
X0230750Y0035500D03*
D13*
X0259250Y0106250D03*
X0259250Y0190250D03*
D14*
X0259250Y0148250D03*
D15*
X0234770Y0165510D02*
X0283730Y0165510D01*
X0284084Y0165012D02*
X0234416Y0165012D01*
X0234063Y0164513D02*
X0284437Y0164513D01*
X0284652Y0164211D02*
X0286279Y0161267D01*
X0287566Y0158158D01*
X0288498Y0154926D01*
X0289061Y0151609D01*
X0289250Y0148250D01*
X0289061Y0144891D01*
X0288498Y0141574D01*
X0287566Y0138342D01*
X0286279Y0135233D01*
X0284652Y0132289D01*
X0282705Y0129545D01*
X0280463Y0127037D01*
X0277955Y0124795D01*
X0275211Y0122848D01*
X0272267Y0121221D01*
X0269158Y0119934D01*
X0265926Y0119002D01*
X0262609Y0118439D01*
X0259250Y0118250D01*
X0255891Y0118439D01*
X0252574Y0119002D01*
X0249342Y0119934D01*
X0246233Y0121221D01*
X0243289Y0122848D01*
X0240545Y0124795D01*
X0238037Y0127037D01*
X0235795Y0129545D01*
X0233848Y0132289D01*
X0232221Y0135233D01*
X0230934Y0138342D01*
X0230002Y0141574D01*
X0229439Y0144891D01*
X0229250Y0148250D01*
X0229439Y0151609D01*
X0230002Y0154926D01*
X0230934Y0158158D01*
X0232221Y0161267D01*
X0233848Y0164211D01*
X0235795Y0166955D01*
X0238037Y0169463D01*
X0240545Y0171705D01*
X0243289Y0173652D01*
X0246233Y0175279D01*
X0249342Y0176566D01*
X0252574Y0177498D01*
X0255891Y0178061D01*
X0259250Y0178250D01*
X0262609Y0178061D01*
X0265926Y0177498D01*
X0269158Y0176566D01*
X0272267Y0175279D01*
X0275211Y0173652D01*
X0277955Y0171705D01*
X0280463Y0169463D01*
X0282705Y0166955D01*
X0284652Y0164211D01*
X0284760Y0164015D02*
X0233740Y0164015D01*
X0233464Y0163516D02*
X0285036Y0163516D01*
X0285311Y0163018D02*
X0233189Y0163018D01*
X0232913Y0162519D02*
X0285587Y0162519D01*
X0285862Y0162021D02*
X0232638Y0162021D01*
X0232362Y0161522D02*
X0286138Y0161522D01*
X0286380Y0161024D02*
X0232120Y0161024D01*
X0231914Y0160525D02*
X0286586Y0160525D01*
X0286793Y0160027D02*
X0231707Y0160027D01*
X0231501Y0159528D02*
X0286999Y0159528D01*
X0287206Y0159030D02*
X0231294Y0159030D01*
X0231088Y0158531D02*
X0287412Y0158531D01*
X0287603Y0158033D02*
X0230897Y0158033D01*
X0230754Y0157534D02*
X0287746Y0157534D01*
X0287890Y0157036D02*
X0230610Y0157036D01*
X0230466Y0156537D02*
X0288034Y0156537D01*
X0288177Y0156039D02*
X0230323Y0156039D01*
X0230179Y0155540D02*
X0288321Y0155540D01*
X0288464Y0155041D02*
X0230036Y0155041D01*
X0229937Y0154543D02*
X0288563Y0154543D01*
X0288648Y0154044D02*
X0229852Y0154044D01*
X0229768Y0153546D02*
X0288732Y0153546D01*
X0288817Y0153047D02*
X0229683Y0153047D01*
X0229598Y0152549D02*
X0288902Y0152549D01*
X0288986Y0152050D02*
X0229514Y0152050D01*
X0229435Y0151552D02*
X0289065Y0151552D01*
X0289093Y0151053D02*
X0229407Y0151053D01*
X0229379Y0150555D02*
X0289121Y0150555D01*
X0289149Y0150056D02*
X0229351Y0150056D01*
X0229323Y0149558D02*
X0289177Y0149558D01*
X0289205Y0149059D02*
X0229295Y0149059D01*
X0229267Y0148561D02*
X0289233Y0148561D01*
X0289239Y0148062D02*
X0229261Y0148062D01*
X0229289Y0147564D02*
X0289211Y0147564D01*
X0289183Y0147065D02*
X0229317Y0147065D01*
X0229345Y0146567D02*
X0289155Y0146567D01*
X0289127Y0146068D02*
X0229373Y0146068D01*
X0229401Y0145570D02*
X0289099Y0145570D01*
X0289071Y0145071D02*
X0229429Y0145071D01*
X0229493Y0144573D02*
X0289007Y0144573D01*
X0288923Y0144074D02*
X0229577Y0144074D01*
X0229662Y0143576D02*
X0288838Y0143576D01*
X0288753Y0143077D02*
X0229747Y0143077D01*
X0229832Y0142579D02*
X0288668Y0142579D01*
X0288584Y0142080D02*
X0229916Y0142080D01*
X0230001Y0141582D02*
X0288499Y0141582D01*
X0288356Y0141083D02*
X0230144Y0141083D01*
X0230287Y0140585D02*
X0288213Y0140585D01*
X0288069Y0140086D02*
X0230431Y0140086D01*
X0230575Y0139588D02*
X0287925Y0139588D01*
X0287782Y0139089D02*
X0230718Y0139089D01*
X0230862Y0138591D02*
X0287638Y0138591D01*
X0287463Y0138092D02*
X0231037Y0138092D01*
X0231243Y0137594D02*
X0287257Y0137594D01*
X0287050Y0137095D02*
X0231450Y0137095D01*
X0231656Y0136597D02*
X0286844Y0136597D01*
X0286637Y0136098D02*
X0231863Y0136098D01*
X0232069Y0135600D02*
X0286431Y0135600D01*
X0286206Y0135101D02*
X0232294Y0135101D01*
X0232570Y0134603D02*
X0285930Y0134603D01*
X0285655Y0134104D02*
X0232845Y0134104D01*
X0233121Y0133605D02*
X0285379Y0133605D01*
X0285104Y0133107D02*
X0233396Y0133107D01*
X0233672Y0132608D02*
X0284828Y0132608D01*
X0284525Y0132110D02*
X0233975Y0132110D01*
X0234329Y0131611D02*
X0284171Y0131611D01*
X0283817Y0131113D02*
X0234683Y0131113D01*
X0235036Y0130614D02*
X0283464Y0130614D01*
X0283110Y0130116D02*
X0235390Y0130116D01*
X0235744Y0129617D02*
X0282756Y0129617D01*
X0282324Y0129119D02*
X0236176Y0129119D01*
X0236622Y0128620D02*
X0281878Y0128620D01*
X0281433Y0128122D02*
X0237067Y0128122D01*
X0237513Y0127623D02*
X0280987Y0127623D01*
X0280542Y0127125D02*
X0237958Y0127125D01*
X0238496Y0126626D02*
X0280004Y0126626D01*
X0279446Y0126128D02*
X0239054Y0126128D01*
X0239612Y0125629D02*
X0278888Y0125629D01*
X0278330Y0125131D02*
X0240170Y0125131D01*
X0240775Y0124632D02*
X0277725Y0124632D01*
X0277023Y0124134D02*
X0241477Y0124134D01*
X0242180Y0123635D02*
X0276320Y0123635D01*
X0275618Y0123137D02*
X0242882Y0123137D01*
X0243669Y0122638D02*
X0274831Y0122638D01*
X0273929Y0122140D02*
X0244571Y0122140D01*
X0245473Y0121641D02*
X0273027Y0121641D01*
X0272078Y0121143D02*
X0246422Y0121143D01*
X0247626Y0120644D02*
X0270874Y0120644D01*
X0269671Y0120146D02*
X0248829Y0120146D01*
X0250335Y0119647D02*
X0268165Y0119647D01*
X0266434Y0119149D02*
X0252066Y0119149D01*
X0254646Y0118650D02*
X0263854Y0118650D01*
X0283376Y0166009D02*
X0235124Y0166009D01*
X0235478Y0166507D02*
X0283022Y0166507D01*
X0282659Y0167006D02*
X0235841Y0167006D01*
X0236286Y0167504D02*
X0282214Y0167504D01*
X0281768Y0168003D02*
X0236732Y0168003D01*
X0237177Y0168501D02*
X0281323Y0168501D01*
X0280877Y0169000D02*
X0237623Y0169000D01*
X0238076Y0169498D02*
X0280424Y0169498D01*
X0279866Y0169997D02*
X0238634Y0169997D01*
X0239192Y0170495D02*
X0279308Y0170495D01*
X0278750Y0170994D02*
X0239750Y0170994D01*
X0240307Y0171492D02*
X0278193Y0171492D01*
X0277552Y0171991D02*
X0240948Y0171991D01*
X0241651Y0172489D02*
X0276849Y0172489D01*
X0276147Y0172988D02*
X0242353Y0172988D01*
X0243056Y0173486D02*
X0275444Y0173486D01*
X0274608Y0173985D02*
X0243892Y0173985D01*
X0244794Y0174483D02*
X0273706Y0174483D01*
X0272804Y0174982D02*
X0245696Y0174982D01*
X0246720Y0175480D02*
X0271780Y0175480D01*
X0270577Y0175979D02*
X0247923Y0175979D01*
X0249127Y0176477D02*
X0269373Y0176477D01*
X0267737Y0176976D02*
X0250763Y0176976D01*
X0252493Y0177474D02*
X0266007Y0177474D01*
X0263129Y0177973D02*
X0255371Y0177973D01*
D16*
X0147750Y0104000D03*
D17*
X0286500Y0116500D03*
M02*
