G75*
%MOIN*%
%OFA0B0*%
%FSLAX25Y25*%
%IPPOS*%
%LPD*%
%AMOC8*
5,1,8,0,0,1.08239X$1,22.5*
%
%ADD10OC8,0.06800*%
%ADD11C,0.07400*%
%ADD12OC8,0.05200*%
%ADD13OC8,0.15000*%
%ADD14C,0.63000*%
%ADD15C,0.01600*%
%ADD16C,0.02800*%
%ADD17C,0.01000*%
%ADD18C,0.05000*%
%ADD19C,0.04356*%
D10*
X0051500Y0151500D03*
X0061500Y0151500D03*
X0071500Y0151500D03*
X0081500Y0151500D03*
X0081500Y0181500D03*
X0071500Y0181500D03*
X0061500Y0181500D03*
X0051500Y0181500D03*
D11*
X0134000Y0146500D03*
X0134000Y0116500D03*
X0137107Y0087107D03*
X0115893Y0065893D03*
X0071000Y0068500D03*
X0071000Y0098500D03*
X0220500Y0083000D03*
X0220500Y0053000D03*
D12*
X0220750Y0035500D03*
X0230750Y0035500D03*
X0086500Y0039500D03*
X0076500Y0039500D03*
D13*
X0259250Y0106250D03*
X0259250Y0190250D03*
D14*
X0259250Y0148250D03*
D15*
X0147750Y0115250D02*
X0147750Y0104000D01*
X0147750Y0115250D02*
X0131500Y0131500D01*
X0091500Y0131500D01*
X0071500Y0151500D01*
X0066500Y0146500D02*
X0096500Y0116500D01*
X0134000Y0116500D01*
X0134000Y0090213D01*
X0137107Y0087107D01*
X0086500Y0044000D02*
X0086500Y0039500D01*
X0086500Y0041500D01*
X0086750Y0039750D02*
X0086500Y0039500D01*
X0086500Y0044000D02*
X0071500Y0059000D01*
X0071500Y0068000D01*
X0071000Y0068500D01*
X0051500Y0071500D02*
X0076500Y0046500D01*
X0076500Y0039500D01*
X0051500Y0071500D02*
X0051500Y0151500D01*
X0061500Y0151500D02*
X0061500Y0166500D01*
X0056500Y0171500D01*
X0056500Y0186500D01*
X0061500Y0191500D01*
X0101500Y0191500D01*
X0141500Y0151500D01*
X0141500Y0146500D01*
X0231500Y0056500D01*
X0231500Y0036250D01*
X0230750Y0035500D01*
X0220750Y0035500D02*
X0220750Y0052750D01*
X0220500Y0053000D01*
X0066500Y0146500D02*
X0066500Y0176500D01*
X0071500Y0181500D01*
D16*
X0147750Y0104000D03*
D17*
X0060535Y0045275D02*
X0060342Y0045534D01*
X0060216Y0045712D01*
X0059912Y0046214D01*
X0059850Y0046229D01*
X0058716Y0047831D01*
X0057569Y0049360D01*
X0057570Y0049372D01*
X0057184Y0049873D01*
X0057173Y0049887D01*
X0055847Y0051707D01*
X0054660Y0053533D01*
X0054260Y0054424D01*
X0053730Y0054821D01*
X0053650Y0055017D01*
X0053361Y0055139D01*
X0053259Y0055437D01*
X0053079Y0055525D01*
X0052050Y0057169D01*
X0050564Y0059007D01*
X0049083Y0060968D01*
X0047697Y0062956D01*
X0047131Y0063935D01*
X0046791Y0064387D01*
X0046793Y0064401D01*
X0046406Y0064900D01*
X0046392Y0064919D01*
X0044410Y0067620D01*
X0042603Y0070376D01*
X0042279Y0071055D01*
X0042115Y0071189D01*
X0042115Y0071190D01*
X0041622Y0071593D01*
X0041619Y0071595D01*
X0041618Y0071596D01*
X0041546Y0071672D01*
X0041449Y0071863D01*
X0041247Y0072389D01*
X0041165Y0072425D01*
X0040795Y0073158D01*
X0039936Y0074192D01*
X0037887Y0076909D01*
X0035964Y0079708D01*
X0035039Y0081242D01*
X0035039Y0081242D01*
X0033972Y0082708D01*
X0032637Y0084673D01*
X0031373Y0086680D01*
X0030488Y0088214D01*
X0029830Y0089212D01*
X0029837Y0089253D01*
X0029481Y0089743D01*
X0029388Y0089884D01*
X0028939Y0090586D01*
X0028531Y0091426D01*
X0028251Y0092278D01*
X0028005Y0092511D01*
X0028005Y0092512D01*
X0027556Y0092937D01*
X0027541Y0092951D01*
X0027539Y0092953D01*
X0027413Y0093104D01*
X0027331Y0093270D01*
X0027316Y0093307D01*
X0027112Y0093886D01*
X0027082Y0093900D01*
X0026772Y0094687D01*
X0026031Y0095887D01*
X0025022Y0097792D01*
X0024101Y0099742D01*
X0023655Y0100869D01*
X0023058Y0101935D01*
X0022006Y0104107D01*
X0021090Y0106350D01*
X0020866Y0106951D01*
X0020679Y0107454D01*
X0020679Y0107454D01*
X0020423Y0107955D01*
X0020430Y0107979D01*
X0020134Y0108522D01*
X0020116Y0108557D01*
X0019504Y0109887D01*
X0018848Y0112765D01*
X0018822Y0114241D01*
X0018889Y0115192D01*
X0018660Y0117139D01*
X0018423Y0117894D01*
X0018149Y0122484D01*
X0018125Y0126634D01*
X0018127Y0126636D01*
X0018123Y0127255D01*
X0018136Y0127875D01*
X0018120Y0127891D01*
X0018104Y0132104D01*
X0018119Y0136316D01*
X0018135Y0136332D01*
X0018121Y0136951D01*
X0018126Y0137571D01*
X0018124Y0137573D01*
X0018146Y0141723D01*
X0018424Y0146416D01*
X0018741Y0148261D01*
X0018980Y0152159D01*
X0018889Y0154055D01*
X0018905Y0154775D01*
X0018921Y0155491D01*
X0018937Y0156158D01*
X0018953Y0156774D01*
X0018969Y0157340D01*
X0018986Y0157862D01*
X0019003Y0158338D01*
X0019020Y0158776D01*
X0019038Y0159174D01*
X0019058Y0159540D01*
X0019078Y0159869D01*
X0019100Y0160169D01*
X0019123Y0160440D01*
X0019147Y0160685D01*
X0019173Y0160906D01*
X0019200Y0161107D01*
X0019229Y0161290D01*
X0019260Y0161460D01*
X0019293Y0161620D01*
X0019328Y0161775D01*
X0019367Y0161927D01*
X0019409Y0162083D01*
X0019457Y0162244D01*
X0019511Y0162419D01*
X0019926Y0163732D01*
X0020177Y0164551D01*
X0020271Y0164619D01*
X0020358Y0165141D01*
X0020471Y0165180D01*
X0020471Y0165180D01*
X0020727Y0165619D01*
X0020761Y0165636D01*
X0020783Y0165696D01*
X0020870Y0165783D01*
X0020870Y0165864D01*
X0021163Y0166366D01*
X0021163Y0166366D01*
X0021119Y0166598D01*
X0021912Y0168558D01*
X0023007Y0170681D01*
X0023379Y0171123D01*
X0023509Y0171629D01*
X0025465Y0174892D01*
X0027731Y0178110D01*
X0029863Y0180482D01*
X0031725Y0182378D01*
X0031749Y0182379D01*
X0032161Y0182821D01*
X0032594Y0183242D01*
X0032594Y0183255D01*
X0034448Y0185107D01*
X0036655Y0187016D01*
X0037247Y0187193D01*
X0037731Y0187843D01*
X0038080Y0188154D01*
X0038510Y0188441D01*
X0038543Y0188461D01*
X0039081Y0188769D01*
X0039088Y0188794D01*
X0040050Y0189382D01*
X0040970Y0190011D01*
X0040983Y0190009D01*
X0041500Y0190373D01*
X0041512Y0190381D01*
X0042766Y0191197D01*
X0044007Y0191882D01*
X0044703Y0192123D01*
X0044703Y0192123D01*
X0045245Y0192612D01*
X0046179Y0193185D01*
X0047233Y0193698D01*
X0047244Y0193702D01*
X0047825Y0193951D01*
X0047829Y0193961D01*
X0048460Y0194240D01*
X0049068Y0194593D01*
X0049092Y0194588D01*
X0049620Y0194914D01*
X0049677Y0194947D01*
X0050256Y0195273D01*
X0050413Y0195346D01*
X0050459Y0195332D01*
X0050964Y0195599D01*
X0051491Y0195818D01*
X0051522Y0195893D01*
X0052854Y0196595D01*
X0053948Y0197540D01*
X0053970Y0197539D01*
X0054432Y0197958D01*
X0054531Y0198044D01*
X0055285Y0198690D01*
X0056143Y0199346D01*
X0056734Y0199728D01*
X0056734Y0199728D01*
X0056828Y0199824D01*
X0056846Y0199825D01*
X0057274Y0200284D01*
X0057286Y0200296D01*
X0057523Y0200500D01*
X0057793Y0200646D01*
X0058816Y0201016D01*
X0059678Y0201589D01*
X0061157Y0202289D01*
X0064361Y0203444D01*
X0065994Y0203860D01*
X0066797Y0204003D01*
X0067425Y0204254D01*
X0069868Y0204598D01*
X0072466Y0204806D01*
X0072481Y0204807D01*
X0073113Y0204838D01*
X0073120Y0204846D01*
X0075831Y0205014D01*
X0079096Y0205578D01*
X0081486Y0205862D01*
X0086320Y0206132D01*
X0088741Y0206115D01*
X0088751Y0206115D01*
X0089382Y0206098D01*
X0093214Y0205993D01*
X0097434Y0206537D01*
X0097850Y0206473D01*
X0098047Y0206617D01*
X0098289Y0206648D01*
X0098505Y0206928D01*
X0098530Y0206939D01*
X0098625Y0206973D01*
X0098746Y0207010D01*
X0098891Y0207048D01*
X0099058Y0207086D01*
X0099249Y0207124D01*
X0099460Y0207159D01*
X0099692Y0207192D01*
X0099943Y0207223D01*
X0100214Y0207251D01*
X0100505Y0207276D01*
X0100812Y0207297D01*
X0101139Y0207316D01*
X0101483Y0207331D01*
X0101846Y0207342D01*
X0102225Y0207350D01*
X0102622Y0207355D01*
X0103037Y0207355D01*
X0103469Y0207352D01*
X0103918Y0207346D01*
X0104384Y0207336D01*
X0104837Y0207324D01*
X0105248Y0207313D01*
X0105626Y0207302D01*
X0105973Y0207291D01*
X0106287Y0207279D01*
X0106571Y0207266D01*
X0106828Y0207253D01*
X0107055Y0207239D01*
X0107258Y0207223D01*
X0107435Y0207206D01*
X0107590Y0207188D01*
X0107723Y0207169D01*
X0107837Y0207149D01*
X0107934Y0207129D01*
X0108020Y0207108D01*
X0108096Y0207085D01*
X0108170Y0207061D01*
X0108244Y0207032D01*
X0108325Y0206998D01*
X0108415Y0206957D01*
X0108516Y0206908D01*
X0108516Y0206908D01*
X0108675Y0206823D01*
X0108679Y0206812D01*
X0108836Y0206731D01*
X0108842Y0206713D01*
X0108999Y0206636D01*
X0109008Y0206613D01*
X0109168Y0206540D01*
X0109180Y0206511D01*
X0109345Y0206443D01*
X0109359Y0206411D01*
X0109529Y0206349D01*
X0109546Y0206315D01*
X0109721Y0206259D01*
X0109740Y0206226D01*
X0109908Y0206180D01*
X0109924Y0206171D01*
X0109940Y0206145D01*
X0110065Y0206116D01*
X0110130Y0206084D01*
X0110138Y0206087D01*
X0110147Y0206073D01*
X0110231Y0206057D01*
X0110308Y0206022D01*
X0110338Y0206033D01*
X0110349Y0206028D01*
X0110361Y0206011D01*
X0110407Y0206004D01*
X0110498Y0205967D01*
X0110530Y0205980D01*
X0110582Y0205961D01*
X0110584Y0205959D01*
X0110591Y0205958D01*
X0110697Y0205919D01*
X0110732Y0205935D01*
X0110907Y0205879D01*
X0110941Y0205896D01*
X0111123Y0205846D01*
X0111155Y0205864D01*
X0111345Y0205820D01*
X0111374Y0205839D01*
X0111575Y0205800D01*
X0111600Y0205817D01*
X0111811Y0205784D01*
X0111831Y0205799D01*
X0112055Y0205771D01*
X0112072Y0205784D01*
X0112311Y0205759D01*
X0112324Y0205770D01*
X0112582Y0205748D01*
X0112592Y0205757D01*
X0112604Y0205756D01*
X0112605Y0205756D01*
X0112611Y0205756D01*
X0112870Y0205738D01*
X0112878Y0205745D01*
X0113181Y0205728D01*
X0113187Y0205734D01*
X0113516Y0205718D01*
X0113520Y0205722D01*
X0113548Y0205721D01*
X0113879Y0205708D01*
X0113882Y0205711D01*
X0113889Y0205711D01*
X0113890Y0205711D01*
X0113956Y0205709D01*
X0114274Y0205698D01*
X0114276Y0205700D01*
X0114703Y0205687D01*
X0114705Y0205688D01*
X0115170Y0205675D01*
X0115171Y0205676D01*
X0115677Y0205662D01*
X0115678Y0205662D01*
X0116088Y0205651D01*
X0116544Y0205638D01*
X0116977Y0205625D01*
X0117369Y0205612D01*
X0117733Y0205598D01*
X0118066Y0205584D01*
X0118372Y0205569D01*
X0118648Y0205554D01*
X0118898Y0205538D01*
X0119125Y0205521D01*
X0119327Y0205502D01*
X0119506Y0205483D01*
X0119665Y0205463D01*
X0119804Y0205443D01*
X0119925Y0205422D01*
X0120029Y0205400D01*
X0120122Y0205378D01*
X0120203Y0205356D01*
X0120279Y0205332D01*
X0120351Y0205307D01*
X0120425Y0205278D01*
X0120490Y0205251D01*
X0120702Y0205152D01*
X0120714Y0205146D01*
X0122498Y0204211D01*
X0123854Y0203332D01*
X0123858Y0203312D01*
X0123969Y0203241D01*
X0123981Y0203198D01*
X0124099Y0203130D01*
X0124114Y0203085D01*
X0124237Y0203023D01*
X0124254Y0202978D01*
X0124383Y0202921D01*
X0124403Y0202878D01*
X0124536Y0202827D01*
X0124556Y0202788D01*
X0124663Y0202753D01*
X0124708Y0202719D01*
X0124715Y0202708D01*
X0124727Y0202704D01*
X0124735Y0202699D01*
X0124744Y0202700D01*
X0124790Y0202687D01*
X0124867Y0202633D01*
X0124884Y0202636D01*
X0124926Y0202627D01*
X0125012Y0202571D01*
X0125043Y0202578D01*
X0125043Y0202578D01*
X0125070Y0202572D01*
X0125171Y0202515D01*
X0125213Y0202527D01*
X0125214Y0202526D01*
X0125222Y0202524D01*
X0125339Y0202465D01*
X0125385Y0202480D01*
X0125515Y0202423D01*
X0125559Y0202440D01*
X0125695Y0202389D01*
X0125735Y0202407D01*
X0125877Y0202362D01*
X0125913Y0202380D01*
X0126061Y0202340D01*
X0126092Y0202358D01*
X0126245Y0202322D01*
X0126272Y0202339D01*
X0126432Y0202308D01*
X0126454Y0202323D01*
X0126622Y0202296D01*
X0126640Y0202309D01*
X0126817Y0202285D01*
X0126833Y0202296D01*
X0127021Y0202274D01*
X0127033Y0202284D01*
X0127234Y0202264D01*
X0127244Y0202273D01*
X0127459Y0202255D01*
X0127467Y0202261D01*
X0127698Y0202245D01*
X0127705Y0202250D01*
X0127953Y0202235D01*
X0127958Y0202240D01*
X0128226Y0202225D01*
X0128230Y0202229D01*
X0128244Y0202228D01*
X0128244Y0202228D01*
X0128267Y0202227D01*
X0128517Y0202215D01*
X0128521Y0202218D01*
X0128672Y0202211D01*
X0128703Y0202181D01*
X0129288Y0202191D01*
X0129524Y0202182D01*
X0129525Y0202183D01*
X0129781Y0202174D01*
X0131052Y0202124D01*
X0132386Y0201924D01*
X0132723Y0201638D01*
X0133428Y0201392D01*
X0134337Y0200869D01*
X0135234Y0200207D01*
X0135244Y0200198D01*
X0135730Y0199795D01*
X0135741Y0199796D01*
X0136210Y0199416D01*
X0136210Y0199416D01*
X0138441Y0198362D01*
X0138441Y0198362D01*
X0139579Y0198130D01*
X0141751Y0197433D01*
X0145947Y0195489D01*
X0147888Y0194281D01*
X0148787Y0193586D01*
X0149713Y0193186D01*
X0150068Y0192912D01*
X0150282Y0192940D01*
X0150480Y0192854D01*
X0150897Y0193020D01*
X0151340Y0193077D01*
X0151472Y0193248D01*
X0151673Y0193328D01*
X0151844Y0193723D01*
X0153852Y0196197D01*
X0156081Y0198682D01*
X0157056Y0199620D01*
X0157056Y0199620D01*
X0157539Y0200283D01*
X0157595Y0200295D01*
X0157912Y0200795D01*
X0157968Y0200870D01*
X0158109Y0201037D01*
X0158316Y0201177D01*
X0159203Y0201552D01*
X0159515Y0201989D01*
X0159648Y0202033D01*
X0159853Y0202446D01*
X0160275Y0202631D01*
X0160312Y0202724D01*
X0161124Y0203194D01*
X0162253Y0204135D01*
X0164814Y0206086D01*
X0167456Y0207796D01*
X0168317Y0208173D01*
X0169131Y0208760D01*
X0170418Y0209540D01*
X0171768Y0210265D01*
X0173305Y0211023D01*
X0174830Y0211811D01*
X0176269Y0212500D01*
X0177730Y0213111D01*
X0178800Y0213493D01*
X0178800Y0213493D01*
X0179767Y0213988D01*
X0181387Y0214598D01*
X0183087Y0215122D01*
X0184857Y0215604D01*
X0186516Y0216275D01*
X0189579Y0217227D01*
X0192158Y0217808D01*
X0192159Y0217807D01*
X0192755Y0217942D01*
X0193357Y0218052D01*
X0193377Y0218081D01*
X0195182Y0218488D01*
X0224592Y0218488D01*
X0234565Y0218481D01*
X0243918Y0218449D01*
X0243936Y0218432D01*
X0244556Y0218447D01*
X0245177Y0218445D01*
X0245180Y0218448D01*
X0249491Y0218449D01*
X0254179Y0218228D01*
X0255388Y0217752D01*
X0258414Y0217033D01*
X0259898Y0216897D01*
X0261298Y0216631D01*
X0262665Y0216265D01*
X0263897Y0215786D01*
X0265213Y0215490D01*
X0267191Y0214881D01*
X0269121Y0214130D01*
X0273795Y0211860D01*
X0278349Y0209432D01*
X0279180Y0208862D01*
X0280101Y0208382D01*
X0282351Y0206988D01*
X0284572Y0205497D01*
X0286268Y0204284D01*
X0287997Y0203241D01*
X0290238Y0201509D01*
X0292359Y0199598D01*
X0292385Y0199574D01*
X0292444Y0199516D01*
X0293887Y0198101D01*
X0296640Y0194962D01*
X0297848Y0193354D01*
X0298240Y0192636D01*
X0298817Y0191950D01*
X0301036Y0188939D01*
X0303009Y0185758D01*
X0303887Y0184124D01*
X0304544Y0183014D01*
X0304534Y0182965D01*
X0304867Y0182467D01*
X0304956Y0182317D01*
X0305253Y0181794D01*
X0305508Y0181140D01*
X0305698Y0180287D01*
X0305698Y0180287D01*
X0306201Y0179535D01*
X0307020Y0177897D01*
X0307875Y0174315D01*
X0307883Y0172473D01*
X0307882Y0172455D01*
X0307837Y0171829D01*
X0307848Y0171816D01*
X0307753Y0170030D01*
X0308300Y0167974D01*
X0308263Y0167620D01*
X0308458Y0167378D01*
X0308538Y0167077D01*
X0308600Y0167042D01*
X0308575Y0166779D01*
X0308633Y0166658D01*
X0308633Y0166590D01*
X0308692Y0166533D01*
X0309012Y0165859D01*
X0309158Y0164663D01*
X0309297Y0161216D01*
X0309248Y0160052D01*
X0309220Y0160023D01*
X0309221Y0159437D01*
X0309181Y0158851D01*
X0309223Y0158803D01*
X0309237Y0152134D01*
X0309223Y0145464D01*
X0309181Y0145417D01*
X0309221Y0144831D01*
X0309220Y0144245D01*
X0309248Y0144216D01*
X0309297Y0143052D01*
X0309158Y0139605D01*
X0309013Y0138419D01*
X0308598Y0137505D01*
X0308568Y0137469D01*
X0308579Y0137366D01*
X0308549Y0137349D01*
X0308525Y0137261D01*
X0308451Y0137209D01*
X0308358Y0136654D01*
X0308023Y0135437D01*
X0307808Y0132765D01*
X0307947Y0131464D01*
X0307998Y0129868D01*
X0307618Y0126688D01*
X0307205Y0125191D01*
X0307183Y0125118D01*
X0307023Y0124634D01*
X0306773Y0123882D01*
X0306292Y0122718D01*
X0305779Y0121700D01*
X0305439Y0120607D01*
X0304864Y0119113D01*
X0304199Y0117640D01*
X0303410Y0116048D01*
X0302694Y0114431D01*
X0300732Y0110357D01*
X0298730Y0106510D01*
X0298636Y0106331D01*
X0298621Y0106303D01*
X0297846Y0104898D01*
X0296998Y0103517D01*
X0296169Y0102270D01*
X0295442Y0100969D01*
X0294310Y0099108D01*
X0293110Y0097281D01*
X0291987Y0095649D01*
X0291987Y0095649D01*
X0291287Y0094493D01*
X0291280Y0094491D01*
X0290955Y0093946D01*
X0290950Y0093937D01*
X0290327Y0092955D01*
X0289992Y0092486D01*
X0289983Y0092485D01*
X0289631Y0091983D01*
X0289262Y0091495D01*
X0289266Y0091461D01*
X0288408Y0090234D01*
X0287727Y0088933D01*
X0287722Y0088931D01*
X0287431Y0088367D01*
X0287428Y0088360D01*
X0286571Y0086836D01*
X0285617Y0085393D01*
X0284774Y0084319D01*
X0284009Y0083194D01*
X0282159Y0080913D01*
X0280189Y0078793D01*
X0280130Y0078730D01*
X0279692Y0078289D01*
X0279692Y0078270D01*
X0278011Y0076503D01*
X0275894Y0074312D01*
X0275887Y0074305D01*
X0275442Y0073848D01*
X0275442Y0073845D01*
X0273209Y0071540D01*
X0273209Y0071540D01*
X0271114Y0069093D01*
X0271100Y0069091D01*
X0270699Y0068608D01*
X0270289Y0068128D01*
X0270289Y0068126D01*
X0268056Y0065501D01*
X0265342Y0062475D01*
X0265309Y0062440D01*
X0262562Y0059460D01*
X0259770Y0056463D01*
X0259757Y0056449D01*
X0259330Y0055994D01*
X0259330Y0055993D01*
X0254174Y0050487D01*
X0250853Y0047167D01*
X0250853Y0047167D01*
X0248270Y0043924D01*
X0248205Y0043911D01*
X0247876Y0043428D01*
X0247512Y0042971D01*
X0247513Y0042965D01*
X0247356Y0042769D01*
X0246944Y0042384D01*
X0246692Y0042295D01*
X0246692Y0042295D01*
X0246364Y0041897D01*
X0246284Y0041833D01*
X0246280Y0041795D01*
X0245953Y0041398D01*
X0245953Y0041398D01*
X0245922Y0041181D01*
X0245490Y0040570D01*
X0244819Y0039857D01*
X0243931Y0039175D01*
X0243931Y0039175D01*
X0243931Y0039175D01*
X0242667Y0037085D01*
X0242567Y0036508D01*
X0242561Y0036504D01*
X0242457Y0035876D01*
X0242456Y0035871D01*
X0242300Y0035177D01*
X0242067Y0034505D01*
X0241151Y0032310D01*
X0240637Y0030039D01*
X0240222Y0028732D01*
X0239721Y0027433D01*
X0239158Y0026153D01*
X0238821Y0025303D01*
X0238705Y0025230D01*
X0238590Y0024722D01*
X0238398Y0024237D01*
X0238421Y0024185D01*
X0238416Y0024171D01*
X0237865Y0023449D01*
X0237618Y0023280D01*
X0236984Y0023144D01*
X0236555Y0022675D01*
X0236381Y0022593D01*
X0235686Y0022444D01*
X0235649Y0022477D01*
X0235124Y0022450D01*
X0234600Y0022501D01*
X0234498Y0022417D01*
X0233522Y0022366D01*
X0233414Y0022437D01*
X0232896Y0022333D01*
X0232368Y0022305D01*
X0232282Y0022210D01*
X0232156Y0022184D01*
X0231863Y0021744D01*
X0231510Y0021351D01*
X0231516Y0021223D01*
X0231445Y0021116D01*
X0231549Y0020598D01*
X0231577Y0020070D01*
X0231673Y0019984D01*
X0231910Y0018802D01*
X0232020Y0017906D01*
X0232777Y0016140D01*
X0232987Y0015884D01*
X0232986Y0015871D01*
X0233393Y0015388D01*
X0233400Y0015380D01*
X0233802Y0014783D01*
X0234186Y0013400D01*
X0234168Y0013063D01*
X0234091Y0012975D01*
X0234121Y0012508D01*
X0234047Y0012046D01*
X0234119Y0011946D01*
X0234103Y0011441D01*
X0233539Y0009754D01*
X0233156Y0009208D01*
X0233141Y0009207D01*
X0233054Y0009104D01*
X0233009Y0009098D01*
X0232923Y0008987D01*
X0232871Y0008977D01*
X0232790Y0008858D01*
X0232732Y0008843D01*
X0232658Y0008716D01*
X0232598Y0008695D01*
X0232532Y0008561D01*
X0232472Y0008537D01*
X0232425Y0008421D01*
X0232412Y0008408D01*
X0232412Y0008397D01*
X0232362Y0008372D01*
X0232339Y0008302D01*
X0232330Y0008292D01*
X0232330Y0008277D01*
X0232319Y0008243D01*
X0232303Y0008224D01*
X0232267Y0008203D01*
X0232259Y0008173D01*
X0232250Y0008162D01*
X0232251Y0008143D01*
X0232240Y0008100D01*
X0232190Y0008035D01*
X0232189Y0008034D01*
X0232189Y0008033D01*
X0232173Y0008013D01*
X0232177Y0007978D01*
X0232171Y0007946D01*
X0232102Y0007845D01*
X0232113Y0007787D01*
X0232041Y0007663D01*
X0232057Y0007602D01*
X0231991Y0007469D01*
X0232011Y0007408D01*
X0231954Y0007267D01*
X0231977Y0007211D01*
X0231929Y0007066D01*
X0231954Y0007016D01*
X0231915Y0006868D01*
X0231940Y0006825D01*
X0231909Y0006674D01*
X0231931Y0006640D01*
X0231907Y0006485D01*
X0231927Y0006457D01*
X0231908Y0006298D01*
X0231925Y0006277D01*
X0231911Y0006112D01*
X0231925Y0006095D01*
X0231914Y0005922D01*
X0231925Y0005909D01*
X0231917Y0005727D01*
X0231926Y0005717D01*
X0231920Y0005522D01*
X0231927Y0005515D01*
X0231923Y0005307D01*
X0231928Y0005302D01*
X0231925Y0005077D01*
X0231929Y0005074D01*
X0231927Y0004832D01*
X0231930Y0004829D01*
X0231929Y0004568D01*
X0231930Y0004567D01*
X0231930Y0004285D01*
X0231930Y0004284D01*
X0231930Y0004035D01*
X0231425Y0004006D01*
X0230944Y0003659D01*
X0230920Y0003662D01*
X0230425Y0003285D01*
X0230370Y0003245D01*
X0230362Y0003243D01*
X0230306Y0003231D01*
X0230216Y0003216D01*
X0230093Y0003200D01*
X0229934Y0003184D01*
X0229740Y0003169D01*
X0229509Y0003155D01*
X0229240Y0003143D01*
X0228932Y0003133D01*
X0228583Y0003125D01*
X0228192Y0003118D01*
X0227752Y0003112D01*
X0227267Y0003108D01*
X0226732Y0003105D01*
X0226152Y0003103D01*
X0225506Y0003102D01*
X0224805Y0003101D01*
X0224060Y0003101D01*
X0223285Y0003101D01*
X0222573Y0003102D01*
X0221921Y0003103D01*
X0221331Y0003105D01*
X0220792Y0003107D01*
X0220308Y0003111D01*
X0219871Y0003116D01*
X0219486Y0003123D01*
X0219143Y0003131D01*
X0218846Y0003141D01*
X0218591Y0003152D01*
X0218378Y0003165D01*
X0218252Y0003175D01*
X0218146Y0003362D01*
X0217988Y0003406D01*
X0217654Y0003800D01*
X0217654Y0003800D01*
X0215735Y0004320D01*
X0215735Y0004320D01*
X0215047Y0004078D01*
X0214965Y0004078D01*
X0214740Y0004933D01*
X0214508Y0005983D01*
X0214272Y0008119D01*
X0214270Y0008666D01*
X0214310Y0008711D01*
X0214271Y0009273D01*
X0214290Y0009836D01*
X0214262Y0009866D01*
X0214257Y0010464D01*
X0214635Y0012655D01*
X0215520Y0014694D01*
X0216098Y0015561D01*
X0216739Y0016205D01*
X0216739Y0016205D01*
X0217522Y0018142D01*
X0217510Y0019143D01*
X0217560Y0020321D01*
X0217649Y0020862D01*
X0217587Y0020948D01*
X0217591Y0021055D01*
X0217221Y0021459D01*
X0216901Y0021905D01*
X0216796Y0021922D01*
X0216723Y0022001D01*
X0216176Y0022024D01*
X0214940Y0022228D01*
X0214909Y0022266D01*
X0214313Y0022331D01*
X0214141Y0022359D01*
X0213446Y0022487D01*
X0211904Y0023137D01*
X0210614Y0024201D01*
X0210111Y0024845D01*
X0209405Y0026095D01*
X0208284Y0028808D01*
X0207902Y0030189D01*
X0207887Y0030244D01*
X0207746Y0030849D01*
X0207726Y0030862D01*
X0207392Y0032137D01*
X0206930Y0033384D01*
X0206943Y0033416D01*
X0206708Y0033980D01*
X0206689Y0034033D01*
X0206192Y0035597D01*
X0205968Y0037248D01*
X0205927Y0038425D01*
X0205560Y0038968D01*
X0205568Y0039068D01*
X0205208Y0039490D01*
X0204899Y0039949D01*
X0204800Y0039969D01*
X0202728Y0042398D01*
X0200603Y0044656D01*
X0200603Y0044664D01*
X0200163Y0045124D01*
X0199729Y0045585D01*
X0199723Y0045586D01*
X0198022Y0047368D01*
X0195892Y0049615D01*
X0195451Y0050082D01*
X0195450Y0050082D01*
X0193153Y0052509D01*
X0190829Y0054911D01*
X0190829Y0054913D01*
X0190382Y0055373D01*
X0188128Y0057716D01*
X0186328Y0059618D01*
X0186329Y0059621D01*
X0185893Y0060078D01*
X0185863Y0060110D01*
X0183681Y0062450D01*
X0181535Y0064847D01*
X0180569Y0066008D01*
X0179983Y0066686D01*
X0179983Y0066686D01*
X0179563Y0067171D01*
X0178458Y0068450D01*
X0177763Y0069258D01*
X0177763Y0069274D01*
X0177346Y0069742D01*
X0176938Y0070217D01*
X0176921Y0070219D01*
X0174959Y0072417D01*
X0172921Y0074569D01*
X0172920Y0074606D01*
X0172483Y0075032D01*
X0172064Y0075475D01*
X0172056Y0075475D01*
X0170814Y0076768D01*
X0167885Y0080508D01*
X0166653Y0082457D01*
X0166505Y0082794D01*
X0166505Y0082794D01*
X0166370Y0082936D01*
X0166291Y0083070D01*
X0166225Y0083088D01*
X0165882Y0083446D01*
X0165804Y0083596D01*
X0165750Y0083613D01*
X0165738Y0083668D01*
X0165623Y0083743D01*
X0165465Y0084155D01*
X0164805Y0084755D01*
X0164601Y0084968D01*
X0164596Y0085043D01*
X0164164Y0085424D01*
X0163765Y0085840D01*
X0163690Y0085842D01*
X0163633Y0085892D01*
X0163058Y0085856D01*
X0162482Y0085868D01*
X0162427Y0085816D01*
X0162352Y0085811D01*
X0161971Y0085379D01*
X0161555Y0084980D01*
X0161553Y0084905D01*
X0159430Y0082496D01*
X0156359Y0079207D01*
X0153191Y0076011D01*
X0153183Y0076003D01*
X0153128Y0075950D01*
X0149942Y0072832D01*
X0147099Y0070124D01*
X0147071Y0070124D01*
X0146640Y0069688D01*
X0146253Y0069324D01*
X0143388Y0066644D01*
X0139998Y0063946D01*
X0139465Y0063668D01*
X0139465Y0063668D01*
X0139057Y0063176D01*
X0138543Y0062716D01*
X0138184Y0062452D01*
X0137915Y0062256D01*
X0137408Y0061918D01*
X0137401Y0061881D01*
X0135491Y0060488D01*
X0133659Y0059053D01*
X0133658Y0059054D01*
X0133153Y0058657D01*
X0130670Y0056767D01*
X0128133Y0054956D01*
X0125924Y0053467D01*
X0125924Y0053467D01*
X0124285Y0052220D01*
X0124263Y0052223D01*
X0123777Y0051834D01*
X0123705Y0051779D01*
X0122334Y0050750D01*
X0120918Y0049819D01*
X0120245Y0049529D01*
X0119670Y0048918D01*
X0119446Y0048715D01*
X0119197Y0048536D01*
X0118655Y0048193D01*
X0117759Y0047625D01*
X0116897Y0047000D01*
X0116893Y0047001D01*
X0116375Y0046622D01*
X0114881Y0045591D01*
X0113496Y0044746D01*
X0113195Y0044670D01*
X0112811Y0044348D01*
X0112775Y0044328D01*
X0112772Y0044316D01*
X0112753Y0044300D01*
X0112715Y0044295D01*
X0112658Y0044221D01*
X0112364Y0043974D01*
X0112243Y0043707D01*
X0112176Y0043642D01*
X0111889Y0043495D01*
X0111370Y0043302D01*
X0111328Y0043210D01*
X0110788Y0042935D01*
X0109874Y0042291D01*
X0108628Y0041505D01*
X0107334Y0040780D01*
X0107333Y0040780D01*
X0107331Y0040779D01*
X0106766Y0040481D01*
X0106766Y0040480D01*
X0105975Y0040063D01*
X0105975Y0040063D01*
X0105176Y0039565D01*
X0105128Y0039573D01*
X0104637Y0039229D01*
X0104127Y0038911D01*
X0104121Y0038887D01*
X0102176Y0037600D01*
X0099675Y0036131D01*
X0098258Y0035390D01*
X0098258Y0035390D01*
X0097459Y0034815D01*
X0096938Y0034440D01*
X0095771Y0033662D01*
X0094888Y0033159D01*
X0094685Y0033167D01*
X0094368Y0032871D01*
X0093983Y0032670D01*
X0093914Y0032450D01*
X0093463Y0032030D01*
X0092259Y0030366D01*
X0091870Y0029519D01*
X0091270Y0028546D01*
X0090968Y0027384D01*
X0090120Y0024995D01*
X0089086Y0022917D01*
X0088968Y0022685D01*
X0088668Y0022162D01*
X0088680Y0022118D01*
X0088390Y0021547D01*
X0087699Y0019173D01*
X0087583Y0017948D01*
X0087582Y0017946D01*
X0087412Y0016716D01*
X0087144Y0015510D01*
X0087140Y0015493D01*
X0086979Y0014883D01*
X0086986Y0014871D01*
X0086695Y0013700D01*
X0086695Y0013700D01*
X0086487Y0011895D01*
X0086436Y0011531D01*
X0086385Y0011177D01*
X0086336Y0010853D01*
X0086288Y0010555D01*
X0086241Y0010281D01*
X0086195Y0010033D01*
X0086149Y0009808D01*
X0086104Y0009606D01*
X0086059Y0009427D01*
X0086015Y0009269D01*
X0085971Y0009129D01*
X0085927Y0009007D01*
X0085884Y0008901D01*
X0085842Y0008807D01*
X0085798Y0008721D01*
X0085752Y0008642D01*
X0085703Y0008564D01*
X0085648Y0008486D01*
X0085584Y0008404D01*
X0085510Y0008315D01*
X0085424Y0008219D01*
X0085325Y0008115D01*
X0085212Y0008001D01*
X0085100Y0007892D01*
X0084417Y0007383D01*
X0082805Y0006840D01*
X0082444Y0006837D01*
X0082441Y0006841D01*
X0081875Y0006841D01*
X0081311Y0006896D01*
X0081267Y0006860D01*
X0078826Y0006949D01*
X0076437Y0007210D01*
X0076427Y0007223D01*
X0075828Y0007278D01*
X0075234Y0007365D01*
X0075228Y0007360D01*
X0072877Y0007689D01*
X0070207Y0008324D01*
X0069478Y0008804D01*
X0068723Y0009456D01*
X0068662Y0009511D01*
X0068616Y0009557D01*
X0068247Y0009948D01*
X0067682Y0010935D01*
X0067448Y0012049D01*
X0067460Y0012477D01*
X0067469Y0012665D01*
X0067532Y0013257D01*
X0067521Y0013271D01*
X0067786Y0016204D01*
X0068396Y0019659D01*
X0068934Y0022055D01*
X0068934Y0022055D01*
X0069450Y0026952D01*
X0069450Y0026952D01*
X0069423Y0029315D01*
X0069567Y0030545D01*
X0069289Y0033203D01*
X0068865Y0034462D01*
X0068520Y0035539D01*
X0067760Y0036127D01*
X0067722Y0036170D01*
X0067658Y0036249D01*
X0066812Y0037667D01*
X0066812Y0037667D01*
X0066009Y0038537D01*
X0066010Y0038553D01*
X0065576Y0039006D01*
X0065546Y0039039D01*
X0064481Y0040213D01*
X0062506Y0042768D01*
X0061777Y0043886D01*
X0061734Y0044133D01*
X0061734Y0044133D01*
X0061412Y0044509D01*
X0061405Y0044559D01*
X0061308Y0044633D01*
X0061287Y0044667D01*
X0061274Y0044670D01*
X0060992Y0044999D01*
X0060747Y0045081D01*
X0060535Y0045275D01*
X0060417Y0045434D02*
X0074600Y0045434D01*
X0074600Y0045713D02*
X0074600Y0042833D01*
X0072800Y0041033D01*
X0072800Y0037967D01*
X0074967Y0035800D01*
X0078033Y0035800D01*
X0080200Y0037967D01*
X0080200Y0041033D01*
X0078400Y0042833D01*
X0078400Y0047287D01*
X0077287Y0048400D01*
X0053400Y0072287D01*
X0053400Y0147036D01*
X0056000Y0149636D01*
X0056000Y0153364D01*
X0053364Y0156000D01*
X0049636Y0156000D01*
X0047000Y0153364D01*
X0047000Y0149636D01*
X0049600Y0147036D01*
X0049600Y0070713D01*
X0074600Y0045713D01*
X0073880Y0046433D02*
X0059706Y0046433D01*
X0058999Y0047432D02*
X0072881Y0047432D01*
X0071883Y0048430D02*
X0058266Y0048430D01*
X0057527Y0049429D02*
X0070884Y0049429D01*
X0069886Y0050427D02*
X0056780Y0050427D01*
X0056052Y0051426D02*
X0068887Y0051426D01*
X0067889Y0052424D02*
X0055380Y0052424D01*
X0054731Y0053423D02*
X0066890Y0053423D01*
X0065892Y0054421D02*
X0054261Y0054421D01*
X0054260Y0054424D02*
X0054260Y0054424D01*
X0053265Y0055420D02*
X0064893Y0055420D01*
X0063895Y0056418D02*
X0052520Y0056418D01*
X0052050Y0057169D02*
X0052050Y0057169D01*
X0051850Y0057417D02*
X0062896Y0057417D01*
X0061898Y0058415D02*
X0051043Y0058415D01*
X0050257Y0059414D02*
X0060899Y0059414D01*
X0059901Y0060412D02*
X0049503Y0060412D01*
X0048774Y0061411D02*
X0058902Y0061411D01*
X0057904Y0062409D02*
X0048079Y0062409D01*
X0047436Y0063408D02*
X0056905Y0063408D01*
X0055907Y0064406D02*
X0046789Y0064406D01*
X0046035Y0065405D02*
X0054908Y0065405D01*
X0053910Y0066403D02*
X0045303Y0066403D01*
X0044570Y0067402D02*
X0052911Y0067402D01*
X0051913Y0068400D02*
X0043898Y0068400D01*
X0043244Y0069399D02*
X0050914Y0069399D01*
X0049916Y0070397D02*
X0042593Y0070397D01*
X0042279Y0071055D02*
X0042279Y0071055D01*
X0041862Y0071396D02*
X0049600Y0071396D01*
X0049600Y0072394D02*
X0041235Y0072394D01*
X0040795Y0073158D02*
X0040795Y0073158D01*
X0040599Y0073393D02*
X0049600Y0073393D01*
X0049600Y0074391D02*
X0039785Y0074391D01*
X0039032Y0075390D02*
X0049600Y0075390D01*
X0049600Y0076388D02*
X0038279Y0076388D01*
X0037559Y0077387D02*
X0049600Y0077387D01*
X0049600Y0078385D02*
X0036873Y0078385D01*
X0036187Y0079384D02*
X0049600Y0079384D01*
X0049600Y0080382D02*
X0035557Y0080382D01*
X0034938Y0081381D02*
X0049600Y0081381D01*
X0049600Y0082379D02*
X0034211Y0082379D01*
X0033517Y0083378D02*
X0049600Y0083378D01*
X0049600Y0084376D02*
X0032838Y0084376D01*
X0032195Y0085375D02*
X0049600Y0085375D01*
X0049600Y0086373D02*
X0031566Y0086373D01*
X0030974Y0087372D02*
X0049600Y0087372D01*
X0049600Y0088370D02*
X0030384Y0088370D01*
X0030488Y0088214D02*
X0030488Y0088214D01*
X0029753Y0089369D02*
X0049600Y0089369D01*
X0049600Y0090368D02*
X0029078Y0090368D01*
X0028561Y0091366D02*
X0049600Y0091366D01*
X0049600Y0092365D02*
X0028160Y0092365D01*
X0028251Y0092278D02*
X0028251Y0092278D01*
X0027541Y0092951D02*
X0027541Y0092951D01*
X0027296Y0093363D02*
X0049600Y0093363D01*
X0049600Y0094362D02*
X0026900Y0094362D01*
X0026772Y0094687D02*
X0026772Y0094687D01*
X0026357Y0095360D02*
X0049600Y0095360D01*
X0049600Y0096359D02*
X0025781Y0096359D01*
X0025252Y0097357D02*
X0049600Y0097357D01*
X0049600Y0098356D02*
X0024756Y0098356D01*
X0024284Y0099354D02*
X0049600Y0099354D01*
X0049600Y0100353D02*
X0023859Y0100353D01*
X0023655Y0100869D02*
X0023655Y0100869D01*
X0023385Y0101351D02*
X0049600Y0101351D01*
X0049600Y0102350D02*
X0022857Y0102350D01*
X0022373Y0103348D02*
X0049600Y0103348D01*
X0049600Y0104347D02*
X0021908Y0104347D01*
X0021500Y0105345D02*
X0049600Y0105345D01*
X0049600Y0106344D02*
X0021092Y0106344D01*
X0020866Y0106951D02*
X0020866Y0106951D01*
X0020720Y0107342D02*
X0049600Y0107342D01*
X0049600Y0108341D02*
X0020233Y0108341D01*
X0019756Y0109339D02*
X0049600Y0109339D01*
X0049600Y0110338D02*
X0019402Y0110338D01*
X0019174Y0111336D02*
X0049600Y0111336D01*
X0049600Y0112335D02*
X0018946Y0112335D01*
X0018838Y0113333D02*
X0049600Y0113333D01*
X0049600Y0114332D02*
X0018828Y0114332D01*
X0018873Y0115330D02*
X0049600Y0115330D01*
X0049600Y0116329D02*
X0018755Y0116329D01*
X0018601Y0117327D02*
X0049600Y0117327D01*
X0049600Y0118326D02*
X0018397Y0118326D01*
X0018337Y0119324D02*
X0049600Y0119324D01*
X0049600Y0120323D02*
X0018278Y0120323D01*
X0018218Y0121321D02*
X0049600Y0121321D01*
X0049600Y0122320D02*
X0018159Y0122320D01*
X0018144Y0123318D02*
X0049600Y0123318D01*
X0049600Y0124317D02*
X0018138Y0124317D01*
X0018133Y0125315D02*
X0049600Y0125315D01*
X0049600Y0126314D02*
X0018127Y0126314D01*
X0018124Y0127312D02*
X0049600Y0127312D01*
X0049600Y0128311D02*
X0018118Y0128311D01*
X0018115Y0129309D02*
X0049600Y0129309D01*
X0049600Y0130308D02*
X0018111Y0130308D01*
X0018107Y0131306D02*
X0049600Y0131306D01*
X0049600Y0132305D02*
X0018105Y0132305D01*
X0018108Y0133303D02*
X0049600Y0133303D01*
X0049600Y0134302D02*
X0018112Y0134302D01*
X0018115Y0135301D02*
X0049600Y0135301D01*
X0049600Y0136299D02*
X0018119Y0136299D01*
X0018124Y0137298D02*
X0049600Y0137298D01*
X0049600Y0138296D02*
X0018128Y0138296D01*
X0018133Y0139295D02*
X0049600Y0139295D01*
X0049600Y0140293D02*
X0018138Y0140293D01*
X0018144Y0141292D02*
X0049600Y0141292D01*
X0049600Y0142290D02*
X0018180Y0142290D01*
X0018239Y0143289D02*
X0049600Y0143289D01*
X0049600Y0144287D02*
X0018298Y0144287D01*
X0018357Y0145286D02*
X0049600Y0145286D01*
X0049600Y0146284D02*
X0018417Y0146284D01*
X0018573Y0147283D02*
X0049353Y0147283D01*
X0048355Y0148281D02*
X0018742Y0148281D01*
X0018741Y0148261D02*
X0018741Y0148261D01*
X0018803Y0149280D02*
X0047356Y0149280D01*
X0047000Y0150278D02*
X0018864Y0150278D01*
X0018926Y0151277D02*
X0047000Y0151277D01*
X0047000Y0152275D02*
X0018974Y0152275D01*
X0018980Y0152159D02*
X0018980Y0152159D01*
X0018926Y0153274D02*
X0047000Y0153274D01*
X0047908Y0154272D02*
X0018894Y0154272D01*
X0018916Y0155271D02*
X0048907Y0155271D01*
X0054093Y0155271D02*
X0058907Y0155271D01*
X0059600Y0155964D02*
X0057000Y0153364D01*
X0057000Y0149636D01*
X0059636Y0147000D01*
X0063364Y0147000D01*
X0064600Y0148236D01*
X0064600Y0145713D01*
X0094600Y0115713D01*
X0095713Y0114600D01*
X0129592Y0114600D01*
X0129931Y0113781D01*
X0131281Y0112431D01*
X0132100Y0112092D01*
X0132100Y0089426D01*
X0132646Y0088880D01*
X0132307Y0088061D01*
X0132307Y0086152D01*
X0133037Y0084388D01*
X0134388Y0083037D01*
X0136152Y0082307D01*
X0138061Y0082307D01*
X0139826Y0083037D01*
X0141176Y0084388D01*
X0141907Y0086152D01*
X0141907Y0088061D01*
X0141176Y0089826D01*
X0139826Y0091176D01*
X0138061Y0091907D01*
X0136152Y0091907D01*
X0135900Y0091802D01*
X0135900Y0112092D01*
X0136719Y0112431D01*
X0138069Y0113781D01*
X0138800Y0115545D01*
X0138800Y0117455D01*
X0138069Y0119219D01*
X0136719Y0120569D01*
X0134955Y0121300D01*
X0133045Y0121300D01*
X0131281Y0120569D01*
X0129931Y0119219D01*
X0129592Y0118400D01*
X0097287Y0118400D01*
X0068400Y0147287D01*
X0068400Y0148236D01*
X0069636Y0147000D01*
X0073313Y0147000D01*
X0089600Y0130713D01*
X0090713Y0129600D01*
X0130713Y0129600D01*
X0145850Y0114463D01*
X0145850Y0105636D01*
X0145631Y0105416D01*
X0145250Y0104497D01*
X0145250Y0103503D01*
X0145631Y0102584D01*
X0146334Y0101881D01*
X0147253Y0101500D01*
X0148247Y0101500D01*
X0149166Y0101881D01*
X0149869Y0102584D01*
X0150250Y0103503D01*
X0150250Y0104497D01*
X0149869Y0105416D01*
X0149650Y0105636D01*
X0149650Y0116037D01*
X0148537Y0117150D01*
X0132287Y0133400D01*
X0092287Y0133400D01*
X0076000Y0149687D01*
X0076000Y0153364D01*
X0073364Y0156000D01*
X0069636Y0156000D01*
X0068400Y0154764D01*
X0068400Y0175713D01*
X0069687Y0177000D01*
X0073364Y0177000D01*
X0076000Y0179636D01*
X0076000Y0183364D01*
X0073364Y0186000D01*
X0069636Y0186000D01*
X0067000Y0183364D01*
X0067000Y0179687D01*
X0065713Y0178400D01*
X0064600Y0177287D01*
X0064600Y0154764D01*
X0063400Y0155964D01*
X0063400Y0167287D01*
X0058400Y0172287D01*
X0058400Y0178236D01*
X0059636Y0177000D01*
X0063364Y0177000D01*
X0066000Y0179636D01*
X0066000Y0183364D01*
X0063364Y0186000D01*
X0059636Y0186000D01*
X0058400Y0184764D01*
X0058400Y0185713D01*
X0062287Y0189600D01*
X0100713Y0189600D01*
X0139600Y0150713D01*
X0139600Y0145713D01*
X0229600Y0055713D01*
X0229600Y0039200D01*
X0229217Y0039200D01*
X0227050Y0037033D01*
X0227050Y0033967D01*
X0229217Y0031800D01*
X0232283Y0031800D01*
X0234450Y0033967D01*
X0234450Y0037033D01*
X0233400Y0038083D01*
X0233400Y0057287D01*
X0143400Y0147287D01*
X0143400Y0152287D01*
X0142287Y0153400D01*
X0102287Y0193400D01*
X0060713Y0193400D01*
X0059600Y0192287D01*
X0054600Y0187287D01*
X0054600Y0184764D01*
X0053364Y0186000D01*
X0049636Y0186000D01*
X0047000Y0183364D01*
X0047000Y0179636D01*
X0049636Y0177000D01*
X0053364Y0177000D01*
X0054600Y0178236D01*
X0054600Y0170713D01*
X0055713Y0169600D01*
X0059600Y0165713D01*
X0059600Y0155964D01*
X0059600Y0156269D02*
X0018940Y0156269D01*
X0018967Y0157268D02*
X0059600Y0157268D01*
X0059600Y0158266D02*
X0019000Y0158266D01*
X0019043Y0159265D02*
X0059600Y0159265D01*
X0059600Y0160263D02*
X0019108Y0160263D01*
X0019225Y0161262D02*
X0059600Y0161262D01*
X0059600Y0162260D02*
X0019462Y0162260D01*
X0019776Y0163259D02*
X0059600Y0163259D01*
X0059600Y0164257D02*
X0020087Y0164257D01*
X0020471Y0165180D02*
X0020471Y0165180D01*
X0020515Y0165256D02*
X0059600Y0165256D01*
X0059059Y0166254D02*
X0021097Y0166254D01*
X0021384Y0167253D02*
X0058060Y0167253D01*
X0057062Y0168251D02*
X0021788Y0168251D01*
X0022269Y0169250D02*
X0056063Y0169250D01*
X0055065Y0170248D02*
X0022784Y0170248D01*
X0023379Y0171123D02*
X0023379Y0171123D01*
X0023411Y0171247D02*
X0054600Y0171247D01*
X0054600Y0172245D02*
X0023878Y0172245D01*
X0024477Y0173244D02*
X0054600Y0173244D01*
X0054600Y0174242D02*
X0025076Y0174242D01*
X0025711Y0175241D02*
X0054600Y0175241D01*
X0054600Y0176239D02*
X0026414Y0176239D01*
X0027117Y0177238D02*
X0049398Y0177238D01*
X0048400Y0178237D02*
X0027844Y0178237D01*
X0028742Y0179235D02*
X0047401Y0179235D01*
X0047000Y0180234D02*
X0029639Y0180234D01*
X0030599Y0181232D02*
X0047000Y0181232D01*
X0047000Y0182231D02*
X0031580Y0182231D01*
X0032581Y0183229D02*
X0047000Y0183229D01*
X0047864Y0184228D02*
X0033568Y0184228D01*
X0034448Y0185107D02*
X0034448Y0185107D01*
X0034586Y0185226D02*
X0048862Y0185226D01*
X0054138Y0185226D02*
X0054600Y0185226D01*
X0054600Y0186225D02*
X0035740Y0186225D01*
X0037247Y0187193D02*
X0037247Y0187193D01*
X0037269Y0187223D02*
X0054600Y0187223D01*
X0055535Y0188222D02*
X0038181Y0188222D01*
X0039785Y0189220D02*
X0056533Y0189220D01*
X0057532Y0190219D02*
X0041281Y0190219D01*
X0042803Y0191217D02*
X0058530Y0191217D01*
X0059529Y0192216D02*
X0044806Y0192216D01*
X0046240Y0193214D02*
X0060527Y0193214D01*
X0061907Y0189220D02*
X0101093Y0189220D01*
X0102091Y0188222D02*
X0060909Y0188222D01*
X0059910Y0187223D02*
X0103090Y0187223D01*
X0104088Y0186225D02*
X0058912Y0186225D01*
X0058862Y0185226D02*
X0058400Y0185226D01*
X0064138Y0185226D02*
X0068862Y0185226D01*
X0067864Y0184228D02*
X0065136Y0184228D01*
X0066000Y0183229D02*
X0067000Y0183229D01*
X0067000Y0182231D02*
X0066000Y0182231D01*
X0066000Y0181232D02*
X0067000Y0181232D01*
X0067000Y0180234D02*
X0066000Y0180234D01*
X0065599Y0179235D02*
X0066548Y0179235D01*
X0065550Y0178237D02*
X0064600Y0178237D01*
X0064600Y0177238D02*
X0063602Y0177238D01*
X0064600Y0176239D02*
X0058400Y0176239D01*
X0058400Y0175241D02*
X0064600Y0175241D01*
X0064600Y0174242D02*
X0058400Y0174242D01*
X0058400Y0173244D02*
X0064600Y0173244D01*
X0064600Y0172245D02*
X0058442Y0172245D01*
X0059440Y0171247D02*
X0064600Y0171247D01*
X0064600Y0170248D02*
X0060439Y0170248D01*
X0061437Y0169250D02*
X0064600Y0169250D01*
X0064600Y0168251D02*
X0062436Y0168251D01*
X0063400Y0167253D02*
X0064600Y0167253D01*
X0064600Y0166254D02*
X0063400Y0166254D01*
X0063400Y0165256D02*
X0064600Y0165256D01*
X0064600Y0164257D02*
X0063400Y0164257D01*
X0063400Y0163259D02*
X0064600Y0163259D01*
X0064600Y0162260D02*
X0063400Y0162260D01*
X0063400Y0161262D02*
X0064600Y0161262D01*
X0064600Y0160263D02*
X0063400Y0160263D01*
X0063400Y0159265D02*
X0064600Y0159265D01*
X0064600Y0158266D02*
X0063400Y0158266D01*
X0063400Y0157268D02*
X0064600Y0157268D01*
X0064600Y0156269D02*
X0063400Y0156269D01*
X0064093Y0155271D02*
X0064600Y0155271D01*
X0068400Y0155271D02*
X0068907Y0155271D01*
X0068400Y0156269D02*
X0079340Y0156269D01*
X0079470Y0156400D02*
X0076600Y0153530D01*
X0076600Y0151800D01*
X0081200Y0151800D01*
X0081200Y0156400D01*
X0079470Y0156400D01*
X0078341Y0155271D02*
X0074093Y0155271D01*
X0075092Y0154272D02*
X0077343Y0154272D01*
X0076600Y0153274D02*
X0076000Y0153274D01*
X0076000Y0152275D02*
X0076600Y0152275D01*
X0076600Y0151200D02*
X0076600Y0149470D01*
X0079470Y0146600D01*
X0081200Y0146600D01*
X0081200Y0151200D01*
X0081800Y0151200D01*
X0081800Y0151800D01*
X0086400Y0151800D01*
X0086400Y0153530D01*
X0083530Y0156400D01*
X0081800Y0156400D01*
X0081800Y0151800D01*
X0081200Y0151800D01*
X0081200Y0151200D01*
X0076600Y0151200D01*
X0076000Y0151277D02*
X0081200Y0151277D01*
X0081800Y0151277D02*
X0132989Y0151277D01*
X0133045Y0151300D02*
X0131281Y0150569D01*
X0129931Y0149219D01*
X0129200Y0147455D01*
X0129200Y0145545D01*
X0129931Y0143781D01*
X0131281Y0142431D01*
X0133045Y0141700D01*
X0134955Y0141700D01*
X0136719Y0142431D01*
X0138069Y0143781D01*
X0138800Y0145545D01*
X0138800Y0147455D01*
X0138069Y0149219D01*
X0136719Y0150569D01*
X0134955Y0151300D01*
X0133045Y0151300D01*
X0135011Y0151277D02*
X0139036Y0151277D01*
X0139600Y0150278D02*
X0137010Y0150278D01*
X0138009Y0149280D02*
X0139600Y0149280D01*
X0139600Y0148281D02*
X0138458Y0148281D01*
X0138800Y0147283D02*
X0139600Y0147283D01*
X0139600Y0146284D02*
X0138800Y0146284D01*
X0138692Y0145286D02*
X0140027Y0145286D01*
X0141026Y0144287D02*
X0138279Y0144287D01*
X0137577Y0143289D02*
X0142024Y0143289D01*
X0143023Y0142290D02*
X0136379Y0142290D01*
X0131621Y0142290D02*
X0083397Y0142290D01*
X0084395Y0141292D02*
X0144021Y0141292D01*
X0145020Y0140293D02*
X0085394Y0140293D01*
X0086392Y0139295D02*
X0146018Y0139295D01*
X0147017Y0138296D02*
X0087391Y0138296D01*
X0088389Y0137298D02*
X0148015Y0137298D01*
X0149014Y0136299D02*
X0089388Y0136299D01*
X0090386Y0135301D02*
X0150012Y0135301D01*
X0151011Y0134302D02*
X0091385Y0134302D01*
X0089007Y0131306D02*
X0084381Y0131306D01*
X0085379Y0130308D02*
X0090005Y0130308D01*
X0088008Y0132305D02*
X0083382Y0132305D01*
X0082383Y0133303D02*
X0087009Y0133303D01*
X0086011Y0134302D02*
X0081385Y0134302D01*
X0080386Y0135301D02*
X0085012Y0135301D01*
X0084014Y0136299D02*
X0079388Y0136299D01*
X0078389Y0137298D02*
X0083015Y0137298D01*
X0082017Y0138296D02*
X0077391Y0138296D01*
X0076392Y0139295D02*
X0081018Y0139295D01*
X0080020Y0140293D02*
X0075394Y0140293D01*
X0074395Y0141292D02*
X0079021Y0141292D01*
X0078023Y0142290D02*
X0073397Y0142290D01*
X0072398Y0143289D02*
X0077024Y0143289D01*
X0076026Y0144287D02*
X0071400Y0144287D01*
X0070401Y0145286D02*
X0075027Y0145286D01*
X0074029Y0146284D02*
X0069403Y0146284D01*
X0069353Y0147283D02*
X0068404Y0147283D01*
X0064600Y0147283D02*
X0063647Y0147283D01*
X0064600Y0146284D02*
X0053400Y0146284D01*
X0053400Y0145286D02*
X0065027Y0145286D01*
X0066026Y0144287D02*
X0053400Y0144287D01*
X0053400Y0143289D02*
X0067024Y0143289D01*
X0068023Y0142290D02*
X0053400Y0142290D01*
X0053400Y0141292D02*
X0069021Y0141292D01*
X0070020Y0140293D02*
X0053400Y0140293D01*
X0053400Y0139295D02*
X0071018Y0139295D01*
X0072017Y0138296D02*
X0053400Y0138296D01*
X0053400Y0137298D02*
X0073015Y0137298D01*
X0074014Y0136299D02*
X0053400Y0136299D01*
X0053400Y0135301D02*
X0075012Y0135301D01*
X0076011Y0134302D02*
X0053400Y0134302D01*
X0053400Y0133303D02*
X0077009Y0133303D01*
X0078008Y0132305D02*
X0053400Y0132305D01*
X0053400Y0131306D02*
X0079007Y0131306D01*
X0080005Y0130308D02*
X0053400Y0130308D01*
X0053400Y0129309D02*
X0081004Y0129309D01*
X0082002Y0128311D02*
X0053400Y0128311D01*
X0053400Y0127312D02*
X0083001Y0127312D01*
X0083999Y0126314D02*
X0053400Y0126314D01*
X0053400Y0125315D02*
X0084998Y0125315D01*
X0085996Y0124317D02*
X0053400Y0124317D01*
X0053400Y0123318D02*
X0086995Y0123318D01*
X0087993Y0122320D02*
X0053400Y0122320D01*
X0053400Y0121321D02*
X0088992Y0121321D01*
X0089990Y0120323D02*
X0053400Y0120323D01*
X0053400Y0119324D02*
X0090989Y0119324D01*
X0091987Y0118326D02*
X0053400Y0118326D01*
X0053400Y0117327D02*
X0092986Y0117327D01*
X0093984Y0116329D02*
X0053400Y0116329D01*
X0053400Y0115330D02*
X0094983Y0115330D01*
X0096363Y0119324D02*
X0130036Y0119324D01*
X0131035Y0120323D02*
X0095364Y0120323D01*
X0094366Y0121321D02*
X0138992Y0121321D01*
X0139990Y0120323D02*
X0136965Y0120323D01*
X0137964Y0119324D02*
X0140989Y0119324D01*
X0141987Y0118326D02*
X0138439Y0118326D01*
X0138800Y0117327D02*
X0142986Y0117327D01*
X0143984Y0116329D02*
X0138800Y0116329D01*
X0138711Y0115330D02*
X0144983Y0115330D01*
X0145850Y0114332D02*
X0138297Y0114332D01*
X0137621Y0113333D02*
X0145850Y0113333D01*
X0145850Y0112335D02*
X0136487Y0112335D01*
X0135900Y0111336D02*
X0145850Y0111336D01*
X0145850Y0110338D02*
X0135900Y0110338D01*
X0135900Y0109339D02*
X0145850Y0109339D01*
X0145850Y0108341D02*
X0135900Y0108341D01*
X0135900Y0107342D02*
X0145850Y0107342D01*
X0145850Y0106344D02*
X0135900Y0106344D01*
X0135900Y0105345D02*
X0145601Y0105345D01*
X0145250Y0104347D02*
X0135900Y0104347D01*
X0135900Y0103348D02*
X0145314Y0103348D01*
X0145865Y0102350D02*
X0135900Y0102350D01*
X0135900Y0101351D02*
X0183962Y0101351D01*
X0184960Y0100353D02*
X0135900Y0100353D01*
X0135900Y0099354D02*
X0185959Y0099354D01*
X0186957Y0098356D02*
X0135900Y0098356D01*
X0135900Y0097357D02*
X0187956Y0097357D01*
X0188954Y0096359D02*
X0135900Y0096359D01*
X0135900Y0095360D02*
X0189953Y0095360D01*
X0190951Y0094362D02*
X0135900Y0094362D01*
X0135900Y0093363D02*
X0191950Y0093363D01*
X0192948Y0092365D02*
X0135900Y0092365D01*
X0139366Y0091366D02*
X0193947Y0091366D01*
X0194945Y0090368D02*
X0140634Y0090368D01*
X0141365Y0089369D02*
X0195944Y0089369D01*
X0196943Y0088370D02*
X0141779Y0088370D01*
X0141907Y0087372D02*
X0197941Y0087372D01*
X0198940Y0086373D02*
X0141907Y0086373D01*
X0141585Y0085375D02*
X0161967Y0085375D01*
X0161088Y0084376D02*
X0141165Y0084376D01*
X0140166Y0083378D02*
X0160207Y0083378D01*
X0159321Y0082379D02*
X0138237Y0082379D01*
X0135976Y0082379D02*
X0053400Y0082379D01*
X0053400Y0081381D02*
X0158389Y0081381D01*
X0157456Y0080382D02*
X0053400Y0080382D01*
X0053400Y0079384D02*
X0156524Y0079384D01*
X0155544Y0078385D02*
X0053400Y0078385D01*
X0053400Y0077387D02*
X0154554Y0077387D01*
X0153565Y0076388D02*
X0053400Y0076388D01*
X0053400Y0075390D02*
X0152556Y0075390D01*
X0151536Y0074391D02*
X0053400Y0074391D01*
X0053400Y0073393D02*
X0150515Y0073393D01*
X0149483Y0072394D02*
X0073894Y0072394D01*
X0073719Y0072569D02*
X0071955Y0073300D01*
X0070045Y0073300D01*
X0068281Y0072569D01*
X0066931Y0071219D01*
X0066200Y0069455D01*
X0066200Y0067545D01*
X0066931Y0065781D01*
X0068281Y0064431D01*
X0069600Y0063884D01*
X0069600Y0058213D01*
X0084600Y0043213D01*
X0084600Y0042833D01*
X0082800Y0041033D01*
X0082800Y0037967D01*
X0084967Y0035800D01*
X0088033Y0035800D01*
X0090200Y0037967D01*
X0090200Y0041033D01*
X0088400Y0042833D01*
X0088400Y0044787D01*
X0087287Y0045900D01*
X0073400Y0059787D01*
X0073400Y0064299D01*
X0073719Y0064431D01*
X0075069Y0065781D01*
X0075800Y0067545D01*
X0075800Y0069455D01*
X0075069Y0071219D01*
X0073719Y0072569D01*
X0074892Y0071396D02*
X0148434Y0071396D01*
X0147386Y0070397D02*
X0117563Y0070397D01*
X0116848Y0070693D02*
X0118612Y0069963D01*
X0119963Y0068612D01*
X0120693Y0066848D01*
X0120693Y0064939D01*
X0119963Y0063174D01*
X0118612Y0061824D01*
X0116848Y0061093D01*
X0114939Y0061093D01*
X0113174Y0061824D01*
X0111824Y0063174D01*
X0111093Y0064939D01*
X0111093Y0066848D01*
X0111824Y0068612D01*
X0113174Y0069963D01*
X0114939Y0070693D01*
X0116848Y0070693D01*
X0114224Y0070397D02*
X0075410Y0070397D01*
X0075800Y0069399D02*
X0112611Y0069399D01*
X0111736Y0068400D02*
X0075800Y0068400D01*
X0075741Y0067402D02*
X0111323Y0067402D01*
X0111093Y0066403D02*
X0075327Y0066403D01*
X0074693Y0065405D02*
X0111093Y0065405D01*
X0111314Y0064406D02*
X0073660Y0064406D01*
X0073400Y0063408D02*
X0111728Y0063408D01*
X0112589Y0062409D02*
X0073400Y0062409D01*
X0073400Y0061411D02*
X0114173Y0061411D01*
X0117614Y0061411D02*
X0136757Y0061411D01*
X0135395Y0060412D02*
X0073400Y0060412D01*
X0073773Y0059414D02*
X0134119Y0059414D01*
X0132835Y0058415D02*
X0074772Y0058415D01*
X0075770Y0057417D02*
X0131523Y0057417D01*
X0130181Y0056418D02*
X0076769Y0056418D01*
X0077767Y0055420D02*
X0128782Y0055420D01*
X0127339Y0054421D02*
X0078766Y0054421D01*
X0079764Y0053423D02*
X0125865Y0053423D01*
X0124553Y0052424D02*
X0080763Y0052424D01*
X0081761Y0051426D02*
X0123235Y0051426D01*
X0121843Y0050427D02*
X0082760Y0050427D01*
X0083758Y0049429D02*
X0120150Y0049429D01*
X0120245Y0049529D02*
X0120245Y0049529D01*
X0119029Y0048430D02*
X0084757Y0048430D01*
X0085755Y0047432D02*
X0117491Y0047432D01*
X0118655Y0048193D02*
X0118655Y0048193D01*
X0116102Y0046433D02*
X0086754Y0046433D01*
X0087752Y0045434D02*
X0114624Y0045434D01*
X0113195Y0044670D02*
X0113195Y0044670D01*
X0112915Y0044436D02*
X0088400Y0044436D01*
X0088400Y0043437D02*
X0111734Y0043437D01*
X0112364Y0043974D02*
X0112364Y0043974D01*
X0112364Y0043974D01*
X0110788Y0042935D02*
X0110788Y0042935D01*
X0110085Y0042439D02*
X0088794Y0042439D01*
X0089792Y0041440D02*
X0108512Y0041440D01*
X0106693Y0040442D02*
X0090200Y0040442D01*
X0090200Y0039443D02*
X0104943Y0039443D01*
X0103453Y0038445D02*
X0090200Y0038445D01*
X0089679Y0037446D02*
X0101914Y0037446D01*
X0100215Y0036448D02*
X0088680Y0036448D01*
X0084320Y0036448D02*
X0078680Y0036448D01*
X0079679Y0037446D02*
X0083321Y0037446D01*
X0082800Y0038445D02*
X0080200Y0038445D01*
X0080200Y0039443D02*
X0082800Y0039443D01*
X0082800Y0040442D02*
X0080200Y0040442D01*
X0079792Y0041440D02*
X0083208Y0041440D01*
X0084206Y0042439D02*
X0078794Y0042439D01*
X0078400Y0043437D02*
X0084376Y0043437D01*
X0083377Y0044436D02*
X0078400Y0044436D01*
X0078400Y0045434D02*
X0082378Y0045434D01*
X0081380Y0046433D02*
X0078400Y0046433D01*
X0078255Y0047432D02*
X0080381Y0047432D01*
X0079383Y0048430D02*
X0077257Y0048430D01*
X0076258Y0049429D02*
X0078384Y0049429D01*
X0077386Y0050427D02*
X0075260Y0050427D01*
X0074261Y0051426D02*
X0076387Y0051426D01*
X0075389Y0052424D02*
X0073263Y0052424D01*
X0072264Y0053423D02*
X0074390Y0053423D01*
X0073392Y0054421D02*
X0071266Y0054421D01*
X0070267Y0055420D02*
X0072393Y0055420D01*
X0071395Y0056418D02*
X0069269Y0056418D01*
X0068270Y0057417D02*
X0070396Y0057417D01*
X0069600Y0058415D02*
X0067272Y0058415D01*
X0066273Y0059414D02*
X0069600Y0059414D01*
X0069600Y0060412D02*
X0065275Y0060412D01*
X0064276Y0061411D02*
X0069600Y0061411D01*
X0069600Y0062409D02*
X0063278Y0062409D01*
X0062279Y0063408D02*
X0069600Y0063408D01*
X0068340Y0064406D02*
X0061281Y0064406D01*
X0060282Y0065405D02*
X0067307Y0065405D01*
X0066673Y0066403D02*
X0059284Y0066403D01*
X0058285Y0067402D02*
X0066259Y0067402D01*
X0066200Y0068400D02*
X0057287Y0068400D01*
X0056288Y0069399D02*
X0066200Y0069399D01*
X0066590Y0070397D02*
X0055290Y0070397D01*
X0054291Y0071396D02*
X0067108Y0071396D01*
X0068106Y0072394D02*
X0053400Y0072394D01*
X0053400Y0083378D02*
X0134047Y0083378D01*
X0133049Y0084376D02*
X0053400Y0084376D01*
X0053400Y0085375D02*
X0132628Y0085375D01*
X0132307Y0086373D02*
X0053400Y0086373D01*
X0053400Y0087372D02*
X0132307Y0087372D01*
X0132435Y0088370D02*
X0053400Y0088370D01*
X0053400Y0089369D02*
X0132157Y0089369D01*
X0132100Y0090368D02*
X0053400Y0090368D01*
X0053400Y0091366D02*
X0132100Y0091366D01*
X0132100Y0092365D02*
X0053400Y0092365D01*
X0053400Y0093363D02*
X0132100Y0093363D01*
X0132100Y0094362D02*
X0073552Y0094362D01*
X0073719Y0094431D02*
X0075069Y0095781D01*
X0075800Y0097545D01*
X0075800Y0099455D01*
X0075069Y0101219D01*
X0073719Y0102569D01*
X0071955Y0103300D01*
X0070045Y0103300D01*
X0068281Y0102569D01*
X0066931Y0101219D01*
X0066200Y0099455D01*
X0066200Y0097545D01*
X0066931Y0095781D01*
X0068281Y0094431D01*
X0070045Y0093700D01*
X0071955Y0093700D01*
X0073719Y0094431D01*
X0074648Y0095360D02*
X0132100Y0095360D01*
X0132100Y0096359D02*
X0075308Y0096359D01*
X0075722Y0097357D02*
X0132100Y0097357D01*
X0132100Y0098356D02*
X0075800Y0098356D01*
X0075800Y0099354D02*
X0132100Y0099354D01*
X0132100Y0100353D02*
X0075428Y0100353D01*
X0074937Y0101351D02*
X0132100Y0101351D01*
X0132100Y0102350D02*
X0073939Y0102350D01*
X0068061Y0102350D02*
X0053400Y0102350D01*
X0053400Y0103348D02*
X0132100Y0103348D01*
X0132100Y0104347D02*
X0053400Y0104347D01*
X0053400Y0105345D02*
X0132100Y0105345D01*
X0132100Y0106344D02*
X0053400Y0106344D01*
X0053400Y0107342D02*
X0132100Y0107342D01*
X0132100Y0108341D02*
X0053400Y0108341D01*
X0053400Y0109339D02*
X0132100Y0109339D01*
X0132100Y0110338D02*
X0053400Y0110338D01*
X0053400Y0111336D02*
X0132100Y0111336D01*
X0131513Y0112335D02*
X0053400Y0112335D01*
X0053400Y0113333D02*
X0130379Y0113333D01*
X0129703Y0114332D02*
X0053400Y0114332D01*
X0053400Y0101351D02*
X0067063Y0101351D01*
X0066572Y0100353D02*
X0053400Y0100353D01*
X0053400Y0099354D02*
X0066200Y0099354D01*
X0066200Y0098356D02*
X0053400Y0098356D01*
X0053400Y0097357D02*
X0066278Y0097357D01*
X0066692Y0096359D02*
X0053400Y0096359D01*
X0053400Y0095360D02*
X0067352Y0095360D01*
X0068448Y0094362D02*
X0053400Y0094362D01*
X0093367Y0122320D02*
X0137993Y0122320D01*
X0136995Y0123318D02*
X0092369Y0123318D01*
X0091370Y0124317D02*
X0135996Y0124317D01*
X0134998Y0125315D02*
X0090372Y0125315D01*
X0089373Y0126314D02*
X0133999Y0126314D01*
X0133001Y0127312D02*
X0088375Y0127312D01*
X0087376Y0128311D02*
X0132002Y0128311D01*
X0131004Y0129309D02*
X0086378Y0129309D01*
X0082398Y0143289D02*
X0130423Y0143289D01*
X0129721Y0144287D02*
X0081400Y0144287D01*
X0080401Y0145286D02*
X0129308Y0145286D01*
X0129200Y0146284D02*
X0079403Y0146284D01*
X0078788Y0147283D02*
X0078404Y0147283D01*
X0077789Y0148281D02*
X0077406Y0148281D01*
X0076791Y0149280D02*
X0076407Y0149280D01*
X0076600Y0150278D02*
X0076000Y0150278D01*
X0081200Y0150278D02*
X0081800Y0150278D01*
X0081800Y0151200D02*
X0081800Y0146600D01*
X0083530Y0146600D01*
X0086400Y0149470D01*
X0086400Y0151200D01*
X0081800Y0151200D01*
X0081800Y0152275D02*
X0081200Y0152275D01*
X0081200Y0153274D02*
X0081800Y0153274D01*
X0081800Y0154272D02*
X0081200Y0154272D01*
X0081200Y0155271D02*
X0081800Y0155271D01*
X0081800Y0156269D02*
X0081200Y0156269D01*
X0083660Y0156269D02*
X0134044Y0156269D01*
X0135042Y0155271D02*
X0084659Y0155271D01*
X0085657Y0154272D02*
X0136041Y0154272D01*
X0137039Y0153274D02*
X0086400Y0153274D01*
X0086400Y0152275D02*
X0138038Y0152275D01*
X0141415Y0154272D02*
X0227209Y0154272D01*
X0227011Y0153274D02*
X0142413Y0153274D01*
X0143400Y0152275D02*
X0226812Y0152275D01*
X0226650Y0151461D02*
X0226650Y0145039D01*
X0227903Y0138741D01*
X0230360Y0132808D01*
X0233928Y0127469D01*
X0238469Y0122928D01*
X0243808Y0119360D01*
X0249741Y0116903D01*
X0256039Y0115650D01*
X0262461Y0115650D01*
X0268759Y0116903D01*
X0274692Y0119360D01*
X0277621Y0121318D01*
X0284235Y0113612D01*
X0285512Y0112965D01*
X0286940Y0112856D01*
X0288301Y0113302D01*
X0289388Y0114235D01*
X0290035Y0115512D01*
X0290144Y0116940D01*
X0289698Y0118301D01*
X0283096Y0125993D01*
X0284572Y0127469D01*
X0288140Y0132808D01*
X0290597Y0138741D01*
X0291850Y0145039D01*
X0291850Y0151461D01*
X0290597Y0157759D01*
X0288140Y0163692D01*
X0284572Y0169031D01*
X0280031Y0173572D01*
X0274692Y0177140D01*
X0268759Y0179597D01*
X0262461Y0180850D01*
X0256039Y0180850D01*
X0249741Y0179597D01*
X0243808Y0177140D01*
X0238469Y0173572D01*
X0233928Y0169031D01*
X0230360Y0163692D01*
X0227903Y0157759D01*
X0226650Y0151461D01*
X0226650Y0151277D02*
X0143400Y0151277D01*
X0143400Y0150278D02*
X0226650Y0150278D01*
X0226650Y0149280D02*
X0143400Y0149280D01*
X0143400Y0148281D02*
X0226650Y0148281D01*
X0226650Y0147283D02*
X0143404Y0147283D01*
X0144403Y0146284D02*
X0226650Y0146284D01*
X0226650Y0145286D02*
X0145401Y0145286D01*
X0146400Y0144287D02*
X0226800Y0144287D01*
X0226998Y0143289D02*
X0147398Y0143289D01*
X0148397Y0142290D02*
X0227197Y0142290D01*
X0227395Y0141292D02*
X0149395Y0141292D01*
X0150394Y0140293D02*
X0227594Y0140293D01*
X0227793Y0139295D02*
X0151392Y0139295D01*
X0152391Y0138296D02*
X0228087Y0138296D01*
X0228501Y0137298D02*
X0153389Y0137298D01*
X0154388Y0136299D02*
X0228914Y0136299D01*
X0229328Y0135301D02*
X0155386Y0135301D01*
X0156385Y0134302D02*
X0229741Y0134302D01*
X0230155Y0133303D02*
X0157383Y0133303D01*
X0158382Y0132305D02*
X0230696Y0132305D01*
X0231364Y0131306D02*
X0159381Y0131306D01*
X0160379Y0130308D02*
X0232031Y0130308D01*
X0232698Y0129309D02*
X0161378Y0129309D01*
X0162376Y0128311D02*
X0233365Y0128311D01*
X0234084Y0127312D02*
X0163375Y0127312D01*
X0164373Y0126314D02*
X0235083Y0126314D01*
X0236081Y0125315D02*
X0165372Y0125315D01*
X0166370Y0124317D02*
X0237080Y0124317D01*
X0238078Y0123318D02*
X0167369Y0123318D01*
X0168367Y0122320D02*
X0239379Y0122320D01*
X0240873Y0121321D02*
X0169366Y0121321D01*
X0170364Y0120323D02*
X0242367Y0120323D01*
X0243895Y0119324D02*
X0171363Y0119324D01*
X0172361Y0118326D02*
X0246305Y0118326D01*
X0248716Y0117327D02*
X0173360Y0117327D01*
X0174358Y0116329D02*
X0252627Y0116329D01*
X0254604Y0114332D02*
X0176355Y0114332D01*
X0175357Y0115330D02*
X0282760Y0115330D01*
X0283617Y0114332D02*
X0263896Y0114332D01*
X0262978Y0115250D02*
X0259750Y0115250D01*
X0259750Y0106750D01*
X0258750Y0106750D01*
X0258750Y0115250D01*
X0255522Y0115250D01*
X0250250Y0109978D01*
X0250250Y0106750D01*
X0258750Y0106750D01*
X0258750Y0105750D01*
X0250250Y0105750D01*
X0250250Y0102522D01*
X0255522Y0097250D01*
X0258750Y0097250D01*
X0258750Y0105750D01*
X0259750Y0105750D01*
X0259750Y0106750D01*
X0268250Y0106750D01*
X0268250Y0109978D01*
X0262978Y0115250D01*
X0264895Y0113333D02*
X0284785Y0113333D01*
X0288338Y0113333D02*
X0302165Y0113333D01*
X0301684Y0112335D02*
X0265893Y0112335D01*
X0266892Y0111336D02*
X0301203Y0111336D01*
X0300722Y0110338D02*
X0267890Y0110338D01*
X0268250Y0109339D02*
X0300202Y0109339D01*
X0299682Y0108341D02*
X0268250Y0108341D01*
X0268250Y0107342D02*
X0299163Y0107342D01*
X0298643Y0106344D02*
X0259750Y0106344D01*
X0259750Y0105750D02*
X0268250Y0105750D01*
X0268250Y0102522D01*
X0262978Y0097250D01*
X0259750Y0097250D01*
X0259750Y0105750D01*
X0259750Y0105345D02*
X0258750Y0105345D01*
X0258750Y0104347D02*
X0259750Y0104347D01*
X0259750Y0103348D02*
X0258750Y0103348D01*
X0258750Y0102350D02*
X0259750Y0102350D01*
X0259750Y0101351D02*
X0258750Y0101351D01*
X0258750Y0100353D02*
X0259750Y0100353D01*
X0259750Y0099354D02*
X0258750Y0099354D01*
X0258750Y0098356D02*
X0259750Y0098356D01*
X0259750Y0097357D02*
X0258750Y0097357D01*
X0255415Y0097357D02*
X0193330Y0097357D01*
X0194328Y0096359D02*
X0292475Y0096359D01*
X0291812Y0095360D02*
X0195327Y0095360D01*
X0196325Y0094362D02*
X0291203Y0094362D01*
X0290586Y0093363D02*
X0197324Y0093363D01*
X0198322Y0092365D02*
X0289898Y0092365D01*
X0289200Y0091366D02*
X0199321Y0091366D01*
X0200319Y0090368D02*
X0288501Y0090368D01*
X0288408Y0090234D02*
X0288408Y0090234D01*
X0287955Y0089369D02*
X0201318Y0089369D01*
X0202316Y0088370D02*
X0287433Y0088370D01*
X0286872Y0087372D02*
X0223329Y0087372D01*
X0223225Y0087447D02*
X0222496Y0087819D01*
X0221718Y0088072D01*
X0220909Y0088200D01*
X0220886Y0088200D01*
X0220886Y0083386D01*
X0220114Y0083386D01*
X0220114Y0088200D01*
X0220091Y0088200D01*
X0219282Y0088072D01*
X0218504Y0087819D01*
X0217775Y0087447D01*
X0217112Y0086966D01*
X0216534Y0086388D01*
X0216053Y0085725D01*
X0215681Y0084996D01*
X0215428Y0084218D01*
X0215300Y0083409D01*
X0215300Y0083386D01*
X0220114Y0083386D01*
X0220114Y0082614D01*
X0215300Y0082614D01*
X0215300Y0082591D01*
X0215428Y0081782D01*
X0215681Y0081004D01*
X0216053Y0080275D01*
X0216534Y0079612D01*
X0217112Y0079034D01*
X0217775Y0078553D01*
X0218504Y0078181D01*
X0219282Y0077928D01*
X0220091Y0077800D01*
X0220114Y0077800D01*
X0220114Y0082614D01*
X0220886Y0082614D01*
X0220886Y0083386D01*
X0225700Y0083386D01*
X0225700Y0083409D01*
X0225572Y0084218D01*
X0225319Y0084996D01*
X0224947Y0085725D01*
X0224466Y0086388D01*
X0223888Y0086966D01*
X0223225Y0087447D01*
X0224477Y0086373D02*
X0286265Y0086373D01*
X0285603Y0085375D02*
X0225126Y0085375D01*
X0225520Y0084376D02*
X0284819Y0084376D01*
X0284774Y0084319D02*
X0284774Y0084319D01*
X0284134Y0083378D02*
X0220886Y0083378D01*
X0220886Y0082614D02*
X0225700Y0082614D01*
X0225700Y0082591D01*
X0225572Y0081782D01*
X0225319Y0081004D01*
X0224947Y0080275D01*
X0224466Y0079612D01*
X0223888Y0079034D01*
X0223225Y0078553D01*
X0222496Y0078181D01*
X0221718Y0077928D01*
X0220909Y0077800D01*
X0220886Y0077800D01*
X0220886Y0082614D01*
X0220886Y0082379D02*
X0220114Y0082379D01*
X0220114Y0081381D02*
X0220886Y0081381D01*
X0220886Y0080382D02*
X0220114Y0080382D01*
X0220114Y0079384D02*
X0220886Y0079384D01*
X0220886Y0078385D02*
X0220114Y0078385D01*
X0218103Y0078385D02*
X0212302Y0078385D01*
X0213300Y0077387D02*
X0278852Y0077387D01*
X0279787Y0078385D02*
X0222897Y0078385D01*
X0224238Y0079384D02*
X0280739Y0079384D01*
X0281666Y0080382D02*
X0225002Y0080382D01*
X0225442Y0081381D02*
X0282539Y0081381D01*
X0283348Y0082379D02*
X0225667Y0082379D01*
X0220886Y0084376D02*
X0220114Y0084376D01*
X0220114Y0083378D02*
X0207309Y0083378D01*
X0206311Y0084376D02*
X0215480Y0084376D01*
X0215874Y0085375D02*
X0205312Y0085375D01*
X0204314Y0086373D02*
X0216523Y0086373D01*
X0217671Y0087372D02*
X0203315Y0087372D01*
X0200937Y0084376D02*
X0165222Y0084376D01*
X0165465Y0084155D02*
X0165465Y0084155D01*
X0165947Y0083378D02*
X0201935Y0083378D01*
X0202934Y0082379D02*
X0166703Y0082379D01*
X0167334Y0081381D02*
X0203932Y0081381D01*
X0204931Y0080382D02*
X0167984Y0080382D01*
X0168766Y0079384D02*
X0205929Y0079384D01*
X0206928Y0078385D02*
X0169548Y0078385D01*
X0170330Y0077387D02*
X0207926Y0077387D01*
X0208925Y0076388D02*
X0171179Y0076388D01*
X0172144Y0075390D02*
X0209923Y0075390D01*
X0210922Y0074391D02*
X0173090Y0074391D01*
X0174035Y0073393D02*
X0211920Y0073393D01*
X0212919Y0072394D02*
X0174979Y0072394D01*
X0175870Y0071396D02*
X0213917Y0071396D01*
X0214916Y0070397D02*
X0176761Y0070397D01*
X0177652Y0069399D02*
X0215914Y0069399D01*
X0216913Y0068400D02*
X0178501Y0068400D01*
X0178458Y0068450D02*
X0178458Y0068450D01*
X0179364Y0067402D02*
X0217911Y0067402D01*
X0218910Y0066403D02*
X0180227Y0066403D01*
X0179563Y0067171D02*
X0179563Y0067171D01*
X0181071Y0065405D02*
X0219908Y0065405D01*
X0220907Y0064406D02*
X0181930Y0064406D01*
X0182824Y0063408D02*
X0221905Y0063408D01*
X0222904Y0062409D02*
X0183719Y0062409D01*
X0184650Y0061411D02*
X0223902Y0061411D01*
X0224901Y0060412D02*
X0185582Y0060412D01*
X0186522Y0059414D02*
X0225899Y0059414D01*
X0226898Y0058415D02*
X0187466Y0058415D01*
X0188416Y0057417D02*
X0218620Y0057417D01*
X0217781Y0057069D02*
X0216431Y0055719D01*
X0215700Y0053955D01*
X0215700Y0052045D01*
X0216431Y0050281D01*
X0217781Y0048931D01*
X0218850Y0048488D01*
X0218850Y0038833D01*
X0217050Y0037033D01*
X0217050Y0033967D01*
X0219217Y0031800D01*
X0222283Y0031800D01*
X0224450Y0033967D01*
X0224450Y0037033D01*
X0222650Y0038833D01*
X0222650Y0048695D01*
X0223219Y0048931D01*
X0224569Y0050281D01*
X0225300Y0052045D01*
X0225300Y0053955D01*
X0224569Y0055719D01*
X0223219Y0057069D01*
X0221455Y0057800D01*
X0219545Y0057800D01*
X0217781Y0057069D01*
X0217130Y0056418D02*
X0189376Y0056418D01*
X0190337Y0055420D02*
X0216307Y0055420D01*
X0215893Y0054421D02*
X0191303Y0054421D01*
X0192269Y0053423D02*
X0215700Y0053423D01*
X0215700Y0052424D02*
X0193233Y0052424D01*
X0194178Y0051426D02*
X0215957Y0051426D01*
X0216370Y0050427D02*
X0195123Y0050427D01*
X0196069Y0049429D02*
X0217283Y0049429D01*
X0218850Y0048430D02*
X0197016Y0048430D01*
X0197962Y0047432D02*
X0218850Y0047432D01*
X0218850Y0046433D02*
X0198914Y0046433D01*
X0198022Y0047368D02*
X0198022Y0047368D01*
X0199871Y0045434D02*
X0218850Y0045434D01*
X0218850Y0044436D02*
X0200810Y0044436D01*
X0201750Y0043437D02*
X0218850Y0043437D01*
X0218850Y0042439D02*
X0202690Y0042439D01*
X0203545Y0041440D02*
X0218850Y0041440D01*
X0218850Y0040442D02*
X0204397Y0040442D01*
X0205248Y0039443D02*
X0218850Y0039443D01*
X0218462Y0038445D02*
X0205913Y0038445D01*
X0205927Y0038425D02*
X0205927Y0038425D01*
X0205961Y0037446D02*
X0217464Y0037446D01*
X0217050Y0036448D02*
X0206076Y0036448D01*
X0206239Y0035449D02*
X0217050Y0035449D01*
X0217050Y0034451D02*
X0206556Y0034451D01*
X0206928Y0033452D02*
X0217565Y0033452D01*
X0218564Y0032454D02*
X0207275Y0032454D01*
X0207571Y0031455D02*
X0240958Y0031455D01*
X0241151Y0032310D02*
X0241151Y0032310D01*
X0241211Y0032454D02*
X0232936Y0032454D01*
X0233935Y0033452D02*
X0241628Y0033452D01*
X0242045Y0034451D02*
X0234450Y0034451D01*
X0234450Y0035449D02*
X0242361Y0035449D01*
X0242552Y0036448D02*
X0234450Y0036448D01*
X0234036Y0037446D02*
X0242886Y0037446D01*
X0242667Y0037085D02*
X0242667Y0037085D01*
X0243490Y0038445D02*
X0233400Y0038445D01*
X0233400Y0039443D02*
X0244281Y0039443D01*
X0245369Y0040442D02*
X0233400Y0040442D01*
X0233400Y0041440D02*
X0245988Y0041440D01*
X0247003Y0042439D02*
X0233400Y0042439D01*
X0233400Y0043437D02*
X0247882Y0043437D01*
X0248678Y0044436D02*
X0233400Y0044436D01*
X0233400Y0045434D02*
X0249474Y0045434D01*
X0250269Y0046433D02*
X0233400Y0046433D01*
X0233400Y0047432D02*
X0251118Y0047432D01*
X0252117Y0048430D02*
X0233400Y0048430D01*
X0233400Y0049429D02*
X0253116Y0049429D01*
X0254115Y0050427D02*
X0233400Y0050427D01*
X0233400Y0051426D02*
X0255054Y0051426D01*
X0255988Y0052424D02*
X0233400Y0052424D01*
X0233400Y0053423D02*
X0256923Y0053423D01*
X0257858Y0054421D02*
X0233400Y0054421D01*
X0233400Y0055420D02*
X0258793Y0055420D01*
X0259728Y0056418D02*
X0233400Y0056418D01*
X0233270Y0057417D02*
X0260659Y0057417D01*
X0261589Y0058415D02*
X0232272Y0058415D01*
X0231273Y0059414D02*
X0262519Y0059414D01*
X0263440Y0060412D02*
X0230275Y0060412D01*
X0229276Y0061411D02*
X0264360Y0061411D01*
X0265281Y0062409D02*
X0228278Y0062409D01*
X0227279Y0063408D02*
X0266178Y0063408D01*
X0267074Y0064406D02*
X0226281Y0064406D01*
X0225282Y0065405D02*
X0267970Y0065405D01*
X0268824Y0066403D02*
X0224284Y0066403D01*
X0223285Y0067402D02*
X0269673Y0067402D01*
X0270522Y0068400D02*
X0222287Y0068400D01*
X0221288Y0069399D02*
X0271376Y0069399D01*
X0272230Y0070397D02*
X0220290Y0070397D01*
X0219291Y0071396D02*
X0273085Y0071396D01*
X0274036Y0072394D02*
X0218293Y0072394D01*
X0217294Y0073393D02*
X0275003Y0073393D01*
X0275971Y0074391D02*
X0216296Y0074391D01*
X0215297Y0075390D02*
X0276935Y0075390D01*
X0277900Y0076388D02*
X0214299Y0076388D01*
X0216762Y0079384D02*
X0211303Y0079384D01*
X0210305Y0080382D02*
X0215998Y0080382D01*
X0215558Y0081381D02*
X0209306Y0081381D01*
X0208308Y0082379D02*
X0215333Y0082379D01*
X0220114Y0085375D02*
X0220886Y0085375D01*
X0220886Y0086373D02*
X0220114Y0086373D01*
X0220114Y0087372D02*
X0220886Y0087372D01*
X0199938Y0085375D02*
X0164220Y0085375D01*
X0149635Y0102350D02*
X0182963Y0102350D01*
X0181965Y0103348D02*
X0150186Y0103348D01*
X0150250Y0104347D02*
X0180966Y0104347D01*
X0179968Y0105345D02*
X0149899Y0105345D01*
X0149650Y0106344D02*
X0178969Y0106344D01*
X0177971Y0107342D02*
X0149650Y0107342D01*
X0149650Y0108341D02*
X0176972Y0108341D01*
X0175974Y0109339D02*
X0149650Y0109339D01*
X0149650Y0110338D02*
X0174975Y0110338D01*
X0173977Y0111336D02*
X0149650Y0111336D01*
X0149650Y0112335D02*
X0172978Y0112335D01*
X0171980Y0113333D02*
X0149650Y0113333D01*
X0149650Y0114332D02*
X0170981Y0114332D01*
X0169983Y0115330D02*
X0149650Y0115330D01*
X0149358Y0116329D02*
X0168984Y0116329D01*
X0167986Y0117327D02*
X0148360Y0117327D01*
X0147361Y0118326D02*
X0166987Y0118326D01*
X0165989Y0119324D02*
X0146363Y0119324D01*
X0145364Y0120323D02*
X0164990Y0120323D01*
X0163992Y0121321D02*
X0144366Y0121321D01*
X0143367Y0122320D02*
X0162993Y0122320D01*
X0161995Y0123318D02*
X0142369Y0123318D01*
X0141370Y0124317D02*
X0160996Y0124317D01*
X0159998Y0125315D02*
X0140372Y0125315D01*
X0139373Y0126314D02*
X0158999Y0126314D01*
X0158001Y0127312D02*
X0138375Y0127312D01*
X0137376Y0128311D02*
X0157002Y0128311D01*
X0156004Y0129309D02*
X0136378Y0129309D01*
X0135379Y0130308D02*
X0155005Y0130308D01*
X0154007Y0131306D02*
X0134381Y0131306D01*
X0133382Y0132305D02*
X0153008Y0132305D01*
X0152009Y0133303D02*
X0132383Y0133303D01*
X0129200Y0147283D02*
X0084212Y0147283D01*
X0085211Y0148281D02*
X0129542Y0148281D01*
X0129991Y0149280D02*
X0086209Y0149280D01*
X0086400Y0150278D02*
X0130990Y0150278D01*
X0133045Y0157268D02*
X0068400Y0157268D01*
X0068400Y0158266D02*
X0132047Y0158266D01*
X0131048Y0159265D02*
X0068400Y0159265D01*
X0068400Y0160263D02*
X0130050Y0160263D01*
X0129051Y0161262D02*
X0068400Y0161262D01*
X0068400Y0162260D02*
X0128053Y0162260D01*
X0127054Y0163259D02*
X0068400Y0163259D01*
X0068400Y0164257D02*
X0126056Y0164257D01*
X0125057Y0165256D02*
X0068400Y0165256D01*
X0068400Y0166254D02*
X0124059Y0166254D01*
X0123060Y0167253D02*
X0068400Y0167253D01*
X0068400Y0168251D02*
X0122062Y0168251D01*
X0121063Y0169250D02*
X0068400Y0169250D01*
X0068400Y0170248D02*
X0120065Y0170248D01*
X0119066Y0171247D02*
X0068400Y0171247D01*
X0068400Y0172245D02*
X0118068Y0172245D01*
X0117069Y0173244D02*
X0068400Y0173244D01*
X0068400Y0174242D02*
X0116071Y0174242D01*
X0115072Y0175241D02*
X0068400Y0175241D01*
X0068926Y0176239D02*
X0114074Y0176239D01*
X0113075Y0177238D02*
X0083602Y0177238D01*
X0083364Y0177000D02*
X0086000Y0179636D01*
X0086000Y0183364D01*
X0083364Y0186000D01*
X0079636Y0186000D01*
X0077000Y0183364D01*
X0077000Y0179636D01*
X0079636Y0177000D01*
X0083364Y0177000D01*
X0084600Y0178237D02*
X0112076Y0178237D01*
X0111078Y0179235D02*
X0085599Y0179235D01*
X0086000Y0180234D02*
X0110079Y0180234D01*
X0109081Y0181232D02*
X0086000Y0181232D01*
X0086000Y0182231D02*
X0108082Y0182231D01*
X0107084Y0183229D02*
X0086000Y0183229D01*
X0085136Y0184228D02*
X0106085Y0184228D01*
X0105087Y0185226D02*
X0084138Y0185226D01*
X0078862Y0185226D02*
X0074138Y0185226D01*
X0075136Y0184228D02*
X0077864Y0184228D01*
X0077000Y0183229D02*
X0076000Y0183229D01*
X0076000Y0182231D02*
X0077000Y0182231D01*
X0077000Y0181232D02*
X0076000Y0181232D01*
X0076000Y0180234D02*
X0077000Y0180234D01*
X0077401Y0179235D02*
X0075599Y0179235D01*
X0074600Y0178237D02*
X0078400Y0178237D01*
X0079398Y0177238D02*
X0073602Y0177238D01*
X0059398Y0177238D02*
X0058400Y0177238D01*
X0054600Y0177238D02*
X0053602Y0177238D01*
X0048398Y0194213D02*
X0147976Y0194213D01*
X0148787Y0193586D02*
X0148787Y0193586D01*
X0149647Y0193214D02*
X0102473Y0193214D01*
X0103471Y0192216D02*
X0250250Y0192216D01*
X0250250Y0193214D02*
X0151446Y0193214D01*
X0152241Y0194213D02*
X0250485Y0194213D01*
X0250250Y0193978D02*
X0250250Y0190750D01*
X0258750Y0190750D01*
X0258750Y0199250D01*
X0255522Y0199250D01*
X0250250Y0193978D01*
X0251483Y0195211D02*
X0153052Y0195211D01*
X0153863Y0196210D02*
X0252482Y0196210D01*
X0253480Y0197208D02*
X0154758Y0197208D01*
X0155654Y0198207D02*
X0254479Y0198207D01*
X0255477Y0199205D02*
X0156624Y0199205D01*
X0157482Y0200204D02*
X0291687Y0200204D01*
X0292762Y0199205D02*
X0263023Y0199205D01*
X0262978Y0199250D02*
X0259750Y0199250D01*
X0259750Y0190750D01*
X0258750Y0190750D01*
X0258750Y0189750D01*
X0250250Y0189750D01*
X0250250Y0186522D01*
X0255522Y0181250D01*
X0258750Y0181250D01*
X0258750Y0189750D01*
X0259750Y0189750D01*
X0259750Y0190750D01*
X0268250Y0190750D01*
X0268250Y0193978D01*
X0262978Y0199250D01*
X0264021Y0198207D02*
X0293780Y0198207D01*
X0294670Y0197208D02*
X0265020Y0197208D01*
X0266018Y0196210D02*
X0295546Y0196210D01*
X0296421Y0195211D02*
X0267017Y0195211D01*
X0268015Y0194213D02*
X0297203Y0194213D01*
X0297924Y0193214D02*
X0268250Y0193214D01*
X0268250Y0192216D02*
X0298594Y0192216D01*
X0298240Y0192636D02*
X0298240Y0192636D01*
X0299357Y0191217D02*
X0268250Y0191217D01*
X0268250Y0189750D02*
X0259750Y0189750D01*
X0259750Y0181250D01*
X0262978Y0181250D01*
X0268250Y0186522D01*
X0268250Y0189750D01*
X0268250Y0189220D02*
X0300829Y0189220D01*
X0301481Y0188222D02*
X0268250Y0188222D01*
X0268250Y0187223D02*
X0302100Y0187223D01*
X0302719Y0186225D02*
X0267953Y0186225D01*
X0266954Y0185226D02*
X0303294Y0185226D01*
X0303831Y0184228D02*
X0265955Y0184228D01*
X0264957Y0183229D02*
X0304416Y0183229D01*
X0303887Y0184124D02*
X0303887Y0184124D01*
X0305005Y0182231D02*
X0263958Y0182231D01*
X0265560Y0180234D02*
X0305734Y0180234D01*
X0305472Y0181232D02*
X0114455Y0181232D01*
X0115453Y0180234D02*
X0252940Y0180234D01*
X0254542Y0182231D02*
X0113456Y0182231D01*
X0112458Y0183229D02*
X0253543Y0183229D01*
X0252545Y0184228D02*
X0111459Y0184228D01*
X0110461Y0185226D02*
X0251546Y0185226D01*
X0250547Y0186225D02*
X0109462Y0186225D01*
X0108464Y0187223D02*
X0250250Y0187223D01*
X0250250Y0188222D02*
X0107465Y0188222D01*
X0106467Y0189220D02*
X0250250Y0189220D01*
X0250250Y0191217D02*
X0104470Y0191217D01*
X0105468Y0190219D02*
X0258750Y0190219D01*
X0258750Y0191217D02*
X0259750Y0191217D01*
X0259750Y0190219D02*
X0300093Y0190219D01*
X0306351Y0179235D02*
X0269633Y0179235D01*
X0272044Y0178237D02*
X0306850Y0178237D01*
X0307177Y0177238D02*
X0274455Y0177238D01*
X0276039Y0176239D02*
X0307415Y0176239D01*
X0307654Y0175241D02*
X0277534Y0175241D01*
X0279028Y0174242D02*
X0307875Y0174242D01*
X0307880Y0173244D02*
X0280359Y0173244D01*
X0281358Y0172245D02*
X0307867Y0172245D01*
X0307818Y0171247D02*
X0282356Y0171247D01*
X0283355Y0170248D02*
X0307765Y0170248D01*
X0307753Y0170030D02*
X0307753Y0170030D01*
X0307961Y0169250D02*
X0284353Y0169250D01*
X0285093Y0168251D02*
X0308226Y0168251D01*
X0308492Y0167253D02*
X0285760Y0167253D01*
X0286428Y0166254D02*
X0308824Y0166254D01*
X0308575Y0166779D02*
X0308575Y0166779D01*
X0309086Y0165256D02*
X0287095Y0165256D01*
X0287762Y0164257D02*
X0309175Y0164257D01*
X0309215Y0163259D02*
X0288319Y0163259D01*
X0288733Y0162260D02*
X0309255Y0162260D01*
X0309295Y0161262D02*
X0289146Y0161262D01*
X0289560Y0160263D02*
X0309257Y0160263D01*
X0309209Y0159265D02*
X0289973Y0159265D01*
X0290387Y0158266D02*
X0309224Y0158266D01*
X0309226Y0157268D02*
X0290695Y0157268D01*
X0290894Y0156269D02*
X0309228Y0156269D01*
X0309230Y0155271D02*
X0291092Y0155271D01*
X0291291Y0154272D02*
X0309232Y0154272D01*
X0309234Y0153274D02*
X0291489Y0153274D01*
X0291688Y0152275D02*
X0309236Y0152275D01*
X0309235Y0151277D02*
X0291850Y0151277D01*
X0291850Y0150278D02*
X0309233Y0150278D01*
X0309231Y0149280D02*
X0291850Y0149280D01*
X0291850Y0148281D02*
X0309229Y0148281D01*
X0309226Y0147283D02*
X0291850Y0147283D01*
X0291850Y0146284D02*
X0309224Y0146284D01*
X0309190Y0145286D02*
X0291850Y0145286D01*
X0291700Y0144287D02*
X0309220Y0144287D01*
X0309287Y0143289D02*
X0291502Y0143289D01*
X0291303Y0142290D02*
X0309266Y0142290D01*
X0309226Y0141292D02*
X0291105Y0141292D01*
X0290906Y0140293D02*
X0309186Y0140293D01*
X0309120Y0139295D02*
X0290707Y0139295D01*
X0290413Y0138296D02*
X0308957Y0138296D01*
X0308534Y0137298D02*
X0289999Y0137298D01*
X0289586Y0136299D02*
X0308260Y0136299D01*
X0308023Y0135437D02*
X0308023Y0135437D01*
X0308012Y0135301D02*
X0289172Y0135301D01*
X0288759Y0134302D02*
X0307932Y0134302D01*
X0307851Y0133303D02*
X0288345Y0133303D01*
X0287804Y0132305D02*
X0307857Y0132305D01*
X0307808Y0132765D02*
X0307808Y0132765D01*
X0307952Y0131306D02*
X0287136Y0131306D01*
X0286469Y0130308D02*
X0307984Y0130308D01*
X0307931Y0129309D02*
X0285802Y0129309D01*
X0285135Y0128311D02*
X0307812Y0128311D01*
X0307693Y0127312D02*
X0284416Y0127312D01*
X0283417Y0126314D02*
X0307515Y0126314D01*
X0307239Y0125315D02*
X0283678Y0125315D01*
X0284535Y0124317D02*
X0306918Y0124317D01*
X0306540Y0123318D02*
X0285392Y0123318D01*
X0286249Y0122320D02*
X0306092Y0122320D01*
X0305779Y0121700D02*
X0305779Y0121700D01*
X0305661Y0121321D02*
X0287106Y0121321D01*
X0287963Y0120323D02*
X0305329Y0120323D01*
X0304945Y0119324D02*
X0288820Y0119324D01*
X0289677Y0118326D02*
X0304508Y0118326D01*
X0304044Y0117327D02*
X0290017Y0117327D01*
X0290097Y0116329D02*
X0303549Y0116329D01*
X0303410Y0116048D02*
X0303410Y0116048D01*
X0303092Y0115330D02*
X0289943Y0115330D01*
X0289437Y0114332D02*
X0302646Y0114332D01*
X0298093Y0105345D02*
X0268250Y0105345D01*
X0268250Y0104347D02*
X0297507Y0104347D01*
X0296886Y0103348D02*
X0268250Y0103348D01*
X0268078Y0102350D02*
X0296222Y0102350D01*
X0295656Y0101351D02*
X0267079Y0101351D01*
X0266081Y0100353D02*
X0295067Y0100353D01*
X0294460Y0099354D02*
X0265082Y0099354D01*
X0264084Y0098356D02*
X0293816Y0098356D01*
X0293160Y0097357D02*
X0263085Y0097357D01*
X0254416Y0098356D02*
X0192331Y0098356D01*
X0191333Y0099354D02*
X0253418Y0099354D01*
X0252419Y0100353D02*
X0190334Y0100353D01*
X0189336Y0101351D02*
X0251421Y0101351D01*
X0250422Y0102350D02*
X0188337Y0102350D01*
X0187339Y0103348D02*
X0250250Y0103348D01*
X0250250Y0104347D02*
X0186340Y0104347D01*
X0185342Y0105345D02*
X0250250Y0105345D01*
X0250250Y0107342D02*
X0183345Y0107342D01*
X0184343Y0106344D02*
X0258750Y0106344D01*
X0258750Y0107342D02*
X0259750Y0107342D01*
X0259750Y0108341D02*
X0258750Y0108341D01*
X0258750Y0109339D02*
X0259750Y0109339D01*
X0259750Y0110338D02*
X0258750Y0110338D01*
X0258750Y0111336D02*
X0259750Y0111336D01*
X0259750Y0112335D02*
X0258750Y0112335D01*
X0258750Y0113333D02*
X0259750Y0113333D01*
X0259750Y0114332D02*
X0258750Y0114332D01*
X0253605Y0113333D02*
X0177354Y0113333D01*
X0178352Y0112335D02*
X0252607Y0112335D01*
X0251608Y0111336D02*
X0179351Y0111336D01*
X0180349Y0110338D02*
X0250610Y0110338D01*
X0250250Y0109339D02*
X0181348Y0109339D01*
X0182346Y0108341D02*
X0250250Y0108341D01*
X0265873Y0116329D02*
X0281903Y0116329D01*
X0281046Y0117327D02*
X0269784Y0117327D01*
X0272195Y0118326D02*
X0280189Y0118326D01*
X0279332Y0119324D02*
X0274605Y0119324D01*
X0276132Y0120323D02*
X0278475Y0120323D01*
X0227408Y0155271D02*
X0140416Y0155271D01*
X0139418Y0156269D02*
X0227606Y0156269D01*
X0227805Y0157268D02*
X0138419Y0157268D01*
X0137421Y0158266D02*
X0228113Y0158266D01*
X0228527Y0159265D02*
X0136422Y0159265D01*
X0135424Y0160263D02*
X0228940Y0160263D01*
X0229354Y0161262D02*
X0134425Y0161262D01*
X0133427Y0162260D02*
X0229767Y0162260D01*
X0230181Y0163259D02*
X0132428Y0163259D01*
X0131430Y0164257D02*
X0230738Y0164257D01*
X0231405Y0165256D02*
X0130431Y0165256D01*
X0129433Y0166254D02*
X0232072Y0166254D01*
X0232740Y0167253D02*
X0128434Y0167253D01*
X0127436Y0168251D02*
X0233407Y0168251D01*
X0234147Y0169250D02*
X0126437Y0169250D01*
X0125439Y0170248D02*
X0235145Y0170248D01*
X0236144Y0171247D02*
X0124440Y0171247D01*
X0123442Y0172245D02*
X0237142Y0172245D01*
X0238141Y0173244D02*
X0122443Y0173244D01*
X0121445Y0174242D02*
X0239472Y0174242D01*
X0240966Y0175241D02*
X0120446Y0175241D01*
X0119448Y0176239D02*
X0242461Y0176239D01*
X0244045Y0177238D02*
X0118449Y0177238D01*
X0117450Y0178237D02*
X0246456Y0178237D01*
X0248867Y0179235D02*
X0116452Y0179235D01*
X0139202Y0198207D02*
X0054721Y0198207D01*
X0053563Y0197208D02*
X0142235Y0197208D01*
X0144391Y0196210D02*
X0052123Y0196210D01*
X0052854Y0196595D02*
X0052854Y0196595D01*
X0050146Y0195211D02*
X0146394Y0195211D01*
X0136656Y0199205D02*
X0055959Y0199205D01*
X0057200Y0200204D02*
X0135237Y0200204D01*
X0133758Y0201202D02*
X0059096Y0201202D01*
X0058816Y0201016D02*
X0058816Y0201016D01*
X0060970Y0202201D02*
X0128683Y0202201D01*
X0123981Y0203199D02*
X0063682Y0203199D01*
X0066797Y0204003D02*
X0066797Y0204003D01*
X0067284Y0204198D02*
X0122517Y0204198D01*
X0120607Y0205196D02*
X0076888Y0205196D01*
X0088741Y0206115D02*
X0088741Y0206115D01*
X0089382Y0206098D02*
X0089382Y0206098D01*
X0093214Y0205993D02*
X0093214Y0205993D01*
X0094779Y0206195D02*
X0109852Y0206195D01*
X0107544Y0207193D02*
X0099700Y0207193D01*
X0048460Y0194240D02*
X0048460Y0194240D01*
X0055092Y0154272D02*
X0057908Y0154272D01*
X0057000Y0153274D02*
X0056000Y0153274D01*
X0056000Y0152275D02*
X0057000Y0152275D01*
X0057000Y0151277D02*
X0056000Y0151277D01*
X0056000Y0150278D02*
X0057000Y0150278D01*
X0057356Y0149280D02*
X0055644Y0149280D01*
X0054645Y0148281D02*
X0058355Y0148281D01*
X0059353Y0147283D02*
X0053647Y0147283D01*
X0081200Y0147283D02*
X0081800Y0147283D01*
X0081800Y0148281D02*
X0081200Y0148281D01*
X0081200Y0149280D02*
X0081800Y0149280D01*
X0158377Y0201202D02*
X0290578Y0201202D01*
X0289343Y0202201D02*
X0159731Y0202201D01*
X0159203Y0201552D02*
X0159203Y0201552D01*
X0159203Y0201552D01*
X0161124Y0203194D02*
X0161124Y0203194D01*
X0161130Y0203199D02*
X0288052Y0203199D01*
X0286411Y0204198D02*
X0162334Y0204198D01*
X0163646Y0205196D02*
X0284993Y0205196D01*
X0283533Y0206195D02*
X0164983Y0206195D01*
X0166525Y0207193D02*
X0282020Y0207193D01*
X0280408Y0208192D02*
X0168343Y0208192D01*
X0168317Y0208173D02*
X0168317Y0208173D01*
X0169841Y0209190D02*
X0278701Y0209190D01*
X0276929Y0210189D02*
X0171627Y0210189D01*
X0173623Y0211187D02*
X0275056Y0211187D01*
X0273795Y0211860D02*
X0273795Y0211860D01*
X0273123Y0212186D02*
X0175613Y0212186D01*
X0177935Y0213184D02*
X0271067Y0213184D01*
X0268984Y0214183D02*
X0180284Y0214183D01*
X0183304Y0215181D02*
X0266215Y0215181D01*
X0263897Y0215786D02*
X0263897Y0215786D01*
X0262884Y0216180D02*
X0186280Y0216180D01*
X0189424Y0217178D02*
X0257801Y0217178D01*
X0258414Y0217033D02*
X0258414Y0217033D01*
X0255388Y0217752D02*
X0255388Y0217752D01*
X0254309Y0218177D02*
X0193802Y0218177D01*
X0258750Y0199205D02*
X0259750Y0199205D01*
X0259750Y0198207D02*
X0258750Y0198207D01*
X0258750Y0197208D02*
X0259750Y0197208D01*
X0259750Y0196210D02*
X0258750Y0196210D01*
X0258750Y0195211D02*
X0259750Y0195211D01*
X0259750Y0194213D02*
X0258750Y0194213D01*
X0258750Y0193214D02*
X0259750Y0193214D01*
X0259750Y0192216D02*
X0258750Y0192216D01*
X0258750Y0189220D02*
X0259750Y0189220D01*
X0259750Y0188222D02*
X0258750Y0188222D01*
X0258750Y0187223D02*
X0259750Y0187223D01*
X0259750Y0186225D02*
X0258750Y0186225D01*
X0258750Y0185226D02*
X0259750Y0185226D01*
X0259750Y0184228D02*
X0258750Y0184228D01*
X0258750Y0183229D02*
X0259750Y0183229D01*
X0259750Y0182231D02*
X0258750Y0182231D01*
X0146333Y0069399D02*
X0119176Y0069399D01*
X0120050Y0068400D02*
X0145265Y0068400D01*
X0144198Y0067402D02*
X0120464Y0067402D01*
X0120693Y0066403D02*
X0143085Y0066403D01*
X0143388Y0066644D02*
X0143388Y0066644D01*
X0141831Y0065405D02*
X0120693Y0065405D01*
X0120473Y0064406D02*
X0140576Y0064406D01*
X0139249Y0063408D02*
X0120059Y0063408D01*
X0119197Y0062409D02*
X0138126Y0062409D01*
X0098372Y0035449D02*
X0068549Y0035449D01*
X0068520Y0035539D02*
X0068520Y0035539D01*
X0068869Y0034451D02*
X0096953Y0034451D01*
X0097459Y0034815D02*
X0097459Y0034815D01*
X0095404Y0033452D02*
X0069205Y0033452D01*
X0069289Y0033203D02*
X0069289Y0033203D01*
X0069367Y0032454D02*
X0093916Y0032454D01*
X0093463Y0032030D02*
X0093463Y0032030D01*
X0093463Y0032030D01*
X0093047Y0031455D02*
X0069471Y0031455D01*
X0069567Y0030545D02*
X0069567Y0030545D01*
X0069556Y0030457D02*
X0092325Y0030457D01*
X0092259Y0030366D02*
X0092259Y0030366D01*
X0091833Y0029458D02*
X0069440Y0029458D01*
X0069433Y0028460D02*
X0091248Y0028460D01*
X0091270Y0028546D02*
X0091270Y0028546D01*
X0090989Y0027461D02*
X0069444Y0027461D01*
X0069398Y0026463D02*
X0090641Y0026463D01*
X0090286Y0025464D02*
X0069293Y0025464D01*
X0069188Y0024466D02*
X0089856Y0024466D01*
X0089360Y0023467D02*
X0069083Y0023467D01*
X0068978Y0022469D02*
X0088844Y0022469D01*
X0088390Y0021547D02*
X0088390Y0021547D01*
X0088367Y0021470D02*
X0068803Y0021470D01*
X0068578Y0020472D02*
X0088077Y0020472D01*
X0087787Y0019473D02*
X0068363Y0019473D01*
X0068187Y0018475D02*
X0087633Y0018475D01*
X0087699Y0019173D02*
X0087699Y0019173D01*
X0087517Y0017476D02*
X0068010Y0017476D01*
X0067834Y0016478D02*
X0087359Y0016478D01*
X0087137Y0015479D02*
X0067720Y0015479D01*
X0067630Y0014481D02*
X0086889Y0014481D01*
X0086670Y0013482D02*
X0067540Y0013482D01*
X0067460Y0012484D02*
X0086555Y0012484D01*
X0086430Y0011485D02*
X0067566Y0011485D01*
X0067939Y0010487D02*
X0086276Y0010487D01*
X0086074Y0009488D02*
X0068688Y0009488D01*
X0069956Y0008490D02*
X0085650Y0008490D01*
X0084563Y0007491D02*
X0074293Y0007491D01*
X0074320Y0036448D02*
X0067539Y0036448D01*
X0066944Y0037446D02*
X0073321Y0037446D01*
X0072800Y0038445D02*
X0066094Y0038445D01*
X0065179Y0039443D02*
X0072800Y0039443D01*
X0072800Y0040442D02*
X0064304Y0040442D01*
X0063532Y0041440D02*
X0073208Y0041440D01*
X0074206Y0042439D02*
X0062761Y0042439D01*
X0062070Y0043437D02*
X0074600Y0043437D01*
X0074600Y0044436D02*
X0061475Y0044436D01*
X0060992Y0044999D02*
X0060992Y0044999D01*
X0060992Y0044999D01*
X0207837Y0030457D02*
X0240731Y0030457D01*
X0240453Y0029458D02*
X0208104Y0029458D01*
X0208428Y0028460D02*
X0240117Y0028460D01*
X0239732Y0027461D02*
X0208841Y0027461D01*
X0209254Y0026463D02*
X0239294Y0026463D01*
X0238885Y0025464D02*
X0209762Y0025464D01*
X0210407Y0024466D02*
X0238489Y0024466D01*
X0237880Y0023467D02*
X0211504Y0023467D01*
X0213544Y0022469D02*
X0234561Y0022469D01*
X0234929Y0022469D02*
X0235484Y0022469D01*
X0235658Y0022469D02*
X0235802Y0022469D01*
X0236984Y0023144D02*
X0236984Y0023144D01*
X0231617Y0021470D02*
X0217213Y0021470D01*
X0217585Y0020472D02*
X0231556Y0020472D01*
X0231775Y0019473D02*
X0217524Y0019473D01*
X0217518Y0018475D02*
X0231950Y0018475D01*
X0232020Y0017906D02*
X0232020Y0017906D01*
X0232204Y0017476D02*
X0217253Y0017476D01*
X0217522Y0018142D02*
X0217522Y0018142D01*
X0216849Y0016478D02*
X0232632Y0016478D01*
X0232777Y0016140D02*
X0232777Y0016140D01*
X0233316Y0015479D02*
X0216044Y0015479D01*
X0215427Y0014481D02*
X0233886Y0014481D01*
X0234163Y0013482D02*
X0214994Y0013482D01*
X0214605Y0012484D02*
X0234117Y0012484D01*
X0234104Y0011485D02*
X0214433Y0011485D01*
X0214261Y0010487D02*
X0233784Y0010487D01*
X0233353Y0009488D02*
X0214279Y0009488D01*
X0214271Y0008490D02*
X0232453Y0008490D01*
X0232002Y0007491D02*
X0214341Y0007491D01*
X0214452Y0006493D02*
X0231908Y0006493D01*
X0231927Y0005494D02*
X0214616Y0005494D01*
X0214855Y0004496D02*
X0231930Y0004496D01*
X0231425Y0004006D02*
X0231425Y0004006D01*
X0230704Y0003497D02*
X0217911Y0003497D01*
X0222936Y0032454D02*
X0228564Y0032454D01*
X0227565Y0033452D02*
X0223935Y0033452D01*
X0224450Y0034451D02*
X0227050Y0034451D01*
X0227050Y0035449D02*
X0224450Y0035449D01*
X0224450Y0036448D02*
X0227050Y0036448D01*
X0227464Y0037446D02*
X0224036Y0037446D01*
X0223038Y0038445D02*
X0228462Y0038445D01*
X0229600Y0039443D02*
X0222650Y0039443D01*
X0222650Y0040442D02*
X0229600Y0040442D01*
X0229600Y0041440D02*
X0222650Y0041440D01*
X0222650Y0042439D02*
X0229600Y0042439D01*
X0229600Y0043437D02*
X0222650Y0043437D01*
X0222650Y0044436D02*
X0229600Y0044436D01*
X0229600Y0045434D02*
X0222650Y0045434D01*
X0222650Y0046433D02*
X0229600Y0046433D01*
X0229600Y0047432D02*
X0222650Y0047432D01*
X0222650Y0048430D02*
X0229600Y0048430D01*
X0229600Y0049429D02*
X0223717Y0049429D01*
X0224630Y0050427D02*
X0229600Y0050427D01*
X0229600Y0051426D02*
X0225043Y0051426D01*
X0225300Y0052424D02*
X0229600Y0052424D01*
X0229600Y0053423D02*
X0225300Y0053423D01*
X0225107Y0054421D02*
X0229600Y0054421D01*
X0229600Y0055420D02*
X0224693Y0055420D01*
X0223870Y0056418D02*
X0228895Y0056418D01*
X0227896Y0057417D02*
X0222380Y0057417D01*
D18*
X0286500Y0116500D02*
X0259250Y0148250D01*
D19*
X0286500Y0116500D03*
M02*
